<?xml version="1.0" encoding="UTF-8"?>
<svg id="Layer_1" data-name="Layer 1" xmlns="http://www.w3.org/2000/svg" viewBox="0 0 320 320">
  <defs>
    <style>
      .cls-1 {
        fill: #3f221e;
      }

      .cls-2 {
        fill: #eec79b;
      }

      .cls-3 {
        fill: #d47a66;
      }
    </style>
  </defs>
  <rect class="cls-1" y="0" width="320" height="320"/>
  <g>
    <g>
      <path class="cls-3" d="M116.47,140.07h-4.38v-8.62h-2.13v29.8h1.48v.81h-7.7v-.81h1.48v-29.8h-2.13v8.62h-4.38v-9.42h17.77v9.42Z"/>
      <g>
        <path class="cls-3" d="M52.77,140.07h-4.38v-8.62h-2.13v29.8h1.48v.81h-7.7v-.81h1.48v-29.8h-2.13v8.62h-4.38v-9.42h17.77v9.42Z"/>
        <path class="cls-3" d="M71.73,162.06h-7.7v-.81h1.48v-15.39h-4.74v15.39h1.48v.81h-7.7v-.81h1.48v-29.8h-1.48v-.81h7.7v.81h-1.48v13.6h4.74v-13.6h-1.48v-.81h7.7v.81h-1.48v29.8h1.48v.81Z"/>
        <path class="cls-3" d="M88.32,162.06h-14.81v-.81h1.48v-29.8h-1.48v-.81h14.81v9.42h-4.74v-8.62h-3.85v13.6h5.63v.81h-5.63v15.39h3.85v-8.62h4.74v9.42Z"/>
      </g>
      <g>
        <path class="cls-3" d="M139.54,132h-1.48l-2.73,29.76h-4.51l-2.02-22.47-1.48,22.47h-4.51l-2.73-29.76h-1.48v-1.07h7.53v1.07h-1.48l1.66,23.35,1.66-24.42h4.39l2.07,24.42,1.96-23.35h-1.48v-1.07h4.62v1.07Z"/>
        <path class="cls-3" d="M154.47,156.01c0,3.32-2.79,6.05-6.7,6.05s-6.7-2.73-6.7-6.05v-19.32c0-3.32,2.79-6.05,6.7-6.05s6.7,2.73,6.7,6.05v19.32ZM149.85,158.62v-24.54c0-1.3-.77-2.37-2.07-2.37s-2.08,1.07-2.08,2.37v24.54c0,1.3.77,2.37,2.08,2.37s2.07-1.07,2.07-2.37Z"/>
        <path class="cls-3" d="M161.94,161.76h-4.56v-7.11h4.56v7.11Z"/>
        <path class="cls-3" d="M178.24,156.01c0,3.32-2.79,6.05-6.7,6.05s-6.7-2.73-6.7-6.05v-19.32c0-3.32,2.79-6.05,6.7-6.05s6.7,2.73,6.7,6.05v19.32ZM173.62,158.62v-24.54c0-1.3-.77-2.37-2.08-2.37s-2.07,1.07-2.07,2.37v24.54c0,1.3.77,2.37,2.07,2.37s2.08-1.07,2.08-2.37Z"/>
        <path class="cls-3" d="M196.38,161.76h-6.11v-27.68c0-1.3-.42-2.25-1.72-2.25-.83,0-1.48.36-2.13,1.01v27.86h1.48v1.07h-7.59v-1.07h1.48v-28.69h-1.48v-1.07h6.11v.83c.89-.77,2.07-1.13,3.44-1.13,3.32,0,5.04,1.9,5.04,5.45v24.6h1.48v1.07Z"/>
        <path class="cls-3" d="M211.55,156.01c0,3.32-2.79,6.05-6.7,6.05s-6.7-2.73-6.7-6.05v-19.32c0-3.32,2.79-6.05,6.7-6.05s6.7,2.73,6.7,6.05v10.14h-8.77v11.8c0,1.3.77,2.37,2.07,2.37s2.08-1.07,2.08-2.37v-6.28h4.62v3.68ZM206.93,145.76v-11.68c0-1.3-.77-2.37-2.08-2.37s-2.07,1.07-2.07,2.37v11.68h4.15Z"/>
        <path class="cls-3" d="M219.02,161.76h-4.56v-7.11h4.56v7.11Z"/>
      </g>
      <g>
        <path class="cls-3" d="M252.1,156.01c0,3.32-2.79,6.05-6.7,6.05s-6.7-2.73-6.7-6.05v-19.32c0-3.32,2.79-6.05,6.7-6.05s6.7,2.73,6.7,6.05v19.32ZM247.48,158.62v-24.54c0-1.3-.77-2.37-2.07-2.37s-2.08,1.07-2.08,2.37v24.54c0,1.3.77,2.37,2.08,2.37s2.07-1.07,2.07-2.37Z"/>
        <path class="cls-3" d="M269.95,161.76h-6.11v-.83c-.89.77-2.08,1.13-3.44,1.13-3.32,0-5.04-1.9-5.04-5.45v-24.6h-1.48v-1.07h6.11v27.68c0,1.3.41,2.25,1.72,2.25.83,0,1.48-.36,2.13-1.01v-27.86h-1.48v-1.07h6.11v29.76h1.48v1.07Z"/>
        <path class="cls-3" d="M285,140.36h-4.62v-6.28c0-1.3-.12-2.25-1.42-2.25-.65,0-1.24.36-1.84,1.01v27.86h1.48v1.07h-7.59v-1.07h1.48v-28.69h-1.48v-1.07h6.11v.83c.89-.77,1.9-1.13,3.26-1.13,3.32,0,4.62,1.9,4.62,5.45v4.27Z"/>
      </g>
      <path class="cls-3" d="M236.61,140.07h-4.74v-8.62h-3.55v13.6h5.33v.81h-5.33v15.39h1.48v.81h-7.7v-.81h1.48v-29.8h-1.48v-.81h14.51v9.42Z"/>
    </g>
    <g>
      <path class="cls-2" d="M96.73,189.14l-5.51-14.06h-.06c.01.26.03.55.04.87.01.32.02.66.03,1.01,0,.35.01.71.01,1.09v11.09h-1.19v-15.38h1.9l5.3,13.46h.06l5.36-13.46h1.85v15.38h-1.25v-11.22c0-.32,0-.64.01-.97,0-.33.02-.65.04-.97.02-.32.03-.61.03-.88h-.06l-5.56,14.04h-1.01Z"/>
      <path class="cls-2" d="M124.38,189.14l-2.05-5.3h-6.37l-2.07,5.3h-1.29l6.05-15.44h1.14l5.9,15.44h-1.31ZM119.9,177.17c-.06-.14-.13-.34-.22-.58s-.17-.5-.26-.78c-.09-.27-.17-.52-.24-.73-.07.24-.15.49-.23.75s-.16.5-.25.73-.16.44-.22.62l-2.13,5.51h5.58l-2.05-5.53Z"/>
      <path class="cls-2" d="M139.95,181.31h5.6v7.15c-.76.3-1.56.53-2.4.68s-1.74.23-2.7.23c-1.62,0-2.99-.31-4.1-.94-1.11-.62-1.96-1.53-2.53-2.7s-.86-2.59-.86-4.24c0-1.56.32-2.94.95-4.13.63-1.19,1.53-2.12,2.7-2.8,1.17-.67,2.58-1.01,4.23-1.01.83,0,1.63.08,2.38.23.75.15,1.47.38,2.14.7l-.5,1.1c-.65-.3-1.31-.53-2-.68s-1.39-.23-2.09-.23c-1.35,0-2.51.29-3.49.86-.98.57-1.72,1.37-2.24,2.39-.52,1.02-.77,2.2-.77,3.55,0,1.48.24,2.72.73,3.74.49,1.01,1.21,1.77,2.16,2.28.95.51,2.14.77,3.54.77.75,0,1.41-.05,2-.15s1.12-.24,1.59-.41v-5.23h-4.35v-1.14Z"/>
      <path class="cls-2" d="M164.91,189.14l-2.05-5.3h-6.37l-2.07,5.3h-1.29l6.05-15.44h1.14l5.9,15.44h-1.31ZM160.43,177.17c-.06-.14-.13-.34-.22-.58s-.17-.5-.26-.78c-.09-.27-.16-.52-.24-.73-.07.24-.15.49-.23.75-.08.26-.16.5-.25.73s-.16.44-.22.62l-2.13,5.51h5.58l-2.05-5.53Z"/>
      <path class="cls-2" d="M183.69,189.14h-10.75v-.93l8.94-13.33h-8.51v-1.12h10.08v.93l-8.94,13.31h9.17v1.14Z"/>
      <path class="cls-2" d="M196.07,189.14h-4.52v-.77l1.64-.24v-13.33l-1.64-.26v-.78h4.52v.78l-1.64.26v13.33l1.64.24v.77Z"/>
      <path class="cls-2" d="M216.61,189.14h-1.34l-8.92-13.44h-.06c.03.37.05.76.05,1.16,0,.4.02.81.03,1.24.01.42.02.86.02,1.32v9.71h-1.18v-15.38h1.33l8.89,13.39h.06c-.01-.3-.03-.66-.04-1.08s-.02-.85-.03-1.3c0-.45-.01-.87-.01-1.26v-9.76h1.19v15.38Z"/>
      <path class="cls-2" d="M235.28,189.14h-8.44v-15.38h8.44v1.12h-7.19v5.62h6.78v1.12h-6.78v6.4h7.19v1.12Z"/>
    </g>
  </g>
</svg>