<svg xmlns="http://www.w3.org/2000/svg">
    <symbol id="chevron-right" viewBox="0 0 6.4987299 11.481276">
        <path d="m 0.74933,11.481266 c -0.09853,5e-4 -0.19617,-0.0187 -0.28718,-0.0565 -0.09101,-0.0378 -0.17356,-0.0934 -0.24281,-0.1635 C 0.07889,11.120666 0,10.930066 0,10.731266 c 0,-0.1987 0.07889,-0.3893 0.21934,-0.53 L 4.68933,5.7312663 0.21934,1.2612963 c -0.13248,-0.14218 -0.2046,-0.33022 -0.20117,-0.52452 0.00342,-0.1943 0.08214,-0.37969 0.21955,-0.5171 0.13741,-0.13742 0.3228,-0.21613 0.51711,-0.21955999543 C 0.94913,-0.0033037 1.13713,0.0688163 1.27933,0.2012963 l 5,4.99997 c 0.1405,0.1407 0.2194,0.3313 0.2194,0.53 0,0.1988 -0.0789,0.3894 -0.2194,0.53 l -5,4.9999997 c -0.0692,0.0701 -0.1518,0.1257 -0.2428,0.1635 -0.091,0.0378 -0.1886,0.057 -0.2872,0.0565 z" fill="currentColor"/>
    </symbol> 
</svg>