<?xml version="1.0" encoding="UTF-8"?>
<svg id="Layer_2" data-name="Layer 2" xmlns="http://www.w3.org/2000/svg" viewBox="0 0 600.43 295.68">
  <defs>
    <style>
      .cls-1 {
        fill: #185159;
      }
    </style>
  </defs>
  <g id="Layer_1-2" data-name="Layer 1">
    <g>
      <path class="cls-1" d="M337.73,247.33v-26.76c0-15.65,9.59-24.36,25.37-24.36s24.24,8.46,24.24,24.36v14.64h-29.29v14.01c0,5.68,2.02,7.83,5.05,7.83s5.3-1.77,5.3-7.07v-7.7h18.94v7.07c0,14.77-9.09,22.34-24.24,22.34-15.91,0-25.37-8.84-25.37-24.36ZM368.41,225.62v-7.32c0-5.81-2.27-7.45-5.43-7.45s-4.92,1.89-4.92,8.58v6.19h10.35Z"/>
      <path class="cls-1" d="M394.66,253.39l14.01-6.19c2.65,6.56,6.31,10.6,10.73,10.6,3.16,0,4.8-1.39,4.8-3.79,0-3.91-2.52-6.06-10.1-12.37l-5.3-4.42c-7.7-6.56-12.5-11.87-12.5-20.96,0-11.87,10.48-20.07,22.47-20.07s20.2,6.82,23.48,18.81l-13.25,6.06c-1.52-4.67-5.18-10.48-9.72-10.48-2.78,0-4.42,1.64-4.42,4.17,0,3.16,3.79,6.69,10.22,11.87l5.18,4.54c6.31,5.3,13.13,11.36,13.13,20.7,0,12.75-10.73,19.82-22.34,19.82-12.75,0-21.08-5.3-26.38-18.3Z"/>
      <path class="cls-1" d="M452.1,170.83h20.7v14.26h-20.7v-14.26ZM452.23,197.47h20.58v72.96h-20.58v-72.96Z"/>
      <path class="cls-1" d="M482.28,280.78c0-6.82,4.67-11.49,11.36-14.52-6.44-1.77-10.1-5.43-10.1-11.61,0-5.81,3.03-9.72,8.08-14.14-4.67-4.17-7.2-10.22-7.2-18.94,0-16.41,9.34-25.37,26.13-25.37,7.57,0,13.25,1.89,17.29,5.68,1.77-2.9,4.92-5.68,8.84-7.57l2.65-1.26,4.8,9.85c-2.27.76-7.95,3.28-11.36,5.18,1.77,3.66,2.9,8.58,2.9,13.63,0,15.78-8.46,25.12-25.12,25.12-4.67,0-8.96-.76-12.5-2.02-1.01,1.39-1.89,2.78-1.89,4.42,0,2.02,1.77,3.16,6.94,3.79l19.19,2.15c12.5,1.39,18.18,8.33,18.18,19.06,0,14.01-8.71,21.46-31.18,21.46-16.41,0-27.01-4.8-27.01-14.9ZM526.33,274.98c0-3.54-2.52-4.8-10.98-5.68l-13.51-1.39c-2.53,1.89-4.29,4.04-4.29,6.82,0,4.04,3.91,6.06,14.39,6.06,9.21,0,14.39-1.14,14.39-5.81ZM516.23,221.58c0-9.59-1.01-13.13-5.68-13.13s-5.68,3.41-5.68,13.13,1.01,13,5.68,13,5.68-3.41,5.68-13Z"/>
      <path class="cls-1" d="M548.81,197.47h20.58v7.32c5.3-5.3,11.11-8.58,17.55-8.58,8.96,0,13.51,7.32,13.51,17.04v57.18h-20.45v-54.28c0-3.54-1.01-5.43-4.17-5.43-1.64,0-4.04,1.01-6.44,2.65v57.06h-20.58v-72.96Z"/>
      <g>
        <path class="cls-1" d="M289,216.08v-32.12h3.41c9.97,0,10.98,3.66,10.98,12.62v2.95c5.22-7.79,9.86-16.73,13.84-25.6-5.35-3.93-13.35-5.75-24.95-5.75h-25.88v60.92c7.21-2.66,15.2-6.75,22.6-13.02Z"/>
        <path class="cls-1" d="M308.77,218.23c-1.75,1.81-3.55,3.51-5.38,5.12v17.79c0,9.22-.63,13.63-10.86,13.63h-3.53v-20.73c-8.03,5-15.93,8.55-22.6,11.03v25.35h26.13c26.38,0,34.08-9.85,34.08-32.82v-37.11c0-.7,0-1.39-.02-2.06-5.55,6.6-11.51,13.27-17.83,19.8Z"/>
      </g>
    </g>
    <g>
      <path class="cls-1" d="M239.84,250.21c-13.33-1.11-25.87-6.83-35.4-16.14-3.54-3.39-6.93-6.98-10.16-10.69-.48,2.8-1.06,5.61-1.69,8.36-.9,3.76-1.75,7.51-2.65,11.27-1.75,7.62-3.54,15.56-5.82,23.23-.48,1.53-1.01,3.07-1.59,4.6h73.44l-7.46-20.63c-2.96.16-5.93.21-8.68,0h0Z"/>
      <path class="cls-1" d="M164.02,75.24c-2.12-6.14-4.34-12.54-7.94-17.25-.95-1.22-1.53-1.43-1.69-1.43h0c-.74.32-1.96,2.96-1.69,6.03.42,4.71,1.16,9.42,1.85,13.86l.69,4.92c2.7,19.21,5.29,37.3,10.69,55.71,3.02,10.79,6.61,21.43,10.69,31.75,1.11,2.7,2.17,5.5,3.23,8.31,2.8,7.3,5.66,14.87,9.47,21.59v-13.17c.95-38.31-11.69-75.34-22.8-103.28-.9-2.22-1.69-4.6-2.54-6.98l.05-.05Z"/>
      <path class="cls-1" d="M187.94,215.34c-1.38-2.01-2.65-4.13-3.86-6.35-5.56-10.21-9.84-21.32-13.92-32.12l-.85-2.22c-7.88-20.74-13.76-43.54-17.88-69.84-1.8-11.64-3.39-23.23-4.66-34.29l-.26-2.17c-.85-7.2-1.96-16.14,1.69-22.91,1.59-2.86,3.44-4.29,5.66-4.29h.21c4.44.21,7.72,6.4,10.63,13.07,4.6,10.74,8.94,21.85,12.96,33.17,5.56,15.56,12.33,36.3,15.61,58.47,1.48,10,2.49,19.89,2.96,29.31.21,4.6.05,9.1-.11,13.49-.11,3.33-.21,6.72-.16,10.11,0,3.12,0,6.08-.11,9.05,3.6,4.13,7.3,8.04,11.11,11.69,7.3,7.14,16.4,11.9,26.4,13.81,3.23.69,6.56.85,9.89.74L162.12,0h-67.94L0,270.9h75.93l16.03-53.02h72.17l13.07,42.38c1.16-3.39,2.33-6.77,3.23-10.32,3.39-13.12,5.87-24.44,7.57-34.55l-.05-.05ZM103.02,168.25l25.19-83.92,24.02,83.92h-49.21,0Z"/>
    </g>
  </g>
</svg>