<?xml version="1.0" encoding="UTF-8"?>
<svg id="Layer_1" xmlns="http://www.w3.org/2000/svg" version="1.1" viewBox="0 0 216 288">
  <!-- Generator: Adobe Illustrator 29.1.0, SVG Export Plug-In . SVG Version: 2.1.0 Build 142)  -->
  <defs>
    <style>
      .st0 {
        fill: #989798;
      }

      .st1 {
        fill: #6e6f72;
      }

      .st2 {
        fill: #e26694;
      }

      .st3 {
        fill: #e582a5;
      }

      .st4 {
        fill: #e683a6;
      }

      .st5 {
        fill: #231f20;
      }

      .st6 {
        fill: #9f6629;
      }

      .st7 {
        fill: #424143;
      }

      .st8 {
        fill: #35281d;
      }
    </style>
  </defs>
  <g id="sword">
    <g>
      <path class="st3" d="M140.3,282.1c-19.1,0-24-18.1-24.3-25.6-1.9-3.9-10.7-22.3-12.4-27.8-1.2-4-1.9-8.2-2.1-12.4-1.8-1.2-3.3-2.7-4.4-4.5-1.4-2-3.9-12.6-6.4-23.9l2.2,55.3c0,1.2-.2,2.4-.6,3.6l-10.9,27.1c-.6,1.7-1.8,3-3.3,3.8-.7.3-1.4.5-2.1.5-2,0-3.7-1.2-4.6-2.9l-1.7-3h-.4c-.3,0-.7,0-1,0-6.2,0-15.4-4.6-16-13-.2-2.6-.1-9.3,0-16.4,0-5.9.1-12.1,0-14.7-.3-6.5-2.7-21.2-3.8-23.5-2-3.9-6.6-34.7-7.7-44.2,0-.1,0-.2,0-.3-.2-1.6-.8-6.9,0-9.9.8-5.8,2.5-11.4,5-16.6-4-1.6-8.7-3.8-10.2-5.6-.3-.3-.6-.6-1-.8-2.4-1.8-6.9-5.3-4.9-14.1,1.7-7.6,7.2-24.8,8.5-28.9-.7-6.2,1.1-12.4,5-17.3,2.7-3.6,6-6.7,9.7-9.2,0-1.7.6-3.3,1.6-4.7l7-9.2c.8-.9,1.7-1.6,2.8-2-1.6-2.4-2.5-5.3-2.6-8.2-.2-10.4,9.3-20.4,9.7-20.8.7-.7,1.6-1.1,2.5-1.1h0c1,0,1.9.4,2.5,1.1,13.7,14.3,10,24.9,7.5,29.1,0,1,0,2-.4,2.9.2.6.3,1.3.3,2l.2.2c.4.5.8,1.1,1,1.8l1.3.2c1-1.5,2.1-2.9,3.4-4.1,4.2-4.1,9.8-6.4,15.7-6.4,12.6,0,20.7,11.4,22.6,19.6v.2c1.2.1,2.3.3,3.4.7,1.2-4.1,3.4-9.1,6.8-10.8.7-.4,1.5-.6,2.3-.6,1.3,0,2.6.6,3.5,1.5,1.8,1.9,2.3,5.7,2.4,8.8,4.7,1,9,3.3,12.4,6.6,7.8,7.3,9.2,12.5,9.3,13.1,0,.4.1.8,0,1.3l-.4,2.6c1.8,2.3,4.4,7.2,4.7,16.3.4,12.6,0,13.2-.4,14.1-.2.3-.4.6-.6.9-.4.4-.8.8-1.1,1.1,1.2,11.8,1.8,18,2.1,21.4.8.6,1.3,1.6,1.4,2.7.2,6.9.4,15.6-.1,17.6-.4,1.6-1.4,4.1-2,5.4l.5,11.1c0,0,0,.1,0,.2l-.6,50.8c0,1.3-.7,2.5-1.9,3.1-2.2,1-4.5,1.7-6.9,1.9,0,0-1,25.6-1,25.7-.2,10.5-4.8,28.1-21.1,28.2h-.2Z"/>
      <path class="st4" d="M73.7,15.4c14,14.6,7.7,24.2,6.2,26.1.5.8.6,1.9-.6,3.3.7.9.9,2.1.5,3.2l1.2,1.4c.6.8.5,2-.3,2.6,0,0,0,0,0,0l7.2.8c1-2,2.4-3.8,4-5.3,3.5-3.5,8.3-5.4,13.3-5.4,10.6,0,17.7,9.9,19.2,17,.3,1,.5,2,.7,3,.5-.1,1.1-.2,1.6-.2,2.4.1,4.8.8,6.8,2.1,0,0,2.2-10.7,5.9-12.6.2-.1.5-.2.8-.2,2.9,0,2.3,10,2.3,10.1.2,0,.4,0,.6,0h0c1.8,0,7.1.5,13,6,7.2,6.8,8.3,11.3,8.3,11.3l-.6,4.2s4.5,3.6,4.9,15.3,0,12.3,0,12.3c-.7.7-1.5,1.4-2.3,2,0,0,2.6,25.4,2.4,26.3l1.2-.6s.5,14.7,0,16.6-2.1,5.7-2.1,5.7l.5,11.9-.6,50.8c-2.1,1-4.3,1.5-6.6,1.6-.7,0-1.3,0-2-.2v1.8h0c0,0-1.1,27.3-1.1,27.3h0c0,.7-.5,24.8-17.6,24.9h-.1c-17.2,0-20.8-17.5-20.8-23,0,0-10.7-22.1-12.6-28-1.2-4.4-1.9-9-2.1-13.5,0,0-2.6-.7-4.9-4.2s-10.9-47.2-10.9-47.2l-3-1.9,3.3,82.7c0,.7,0,1.4-.4,2.1l-10.8,27.2c-.3.8-.8,1.5-1.6,1.9-.2,0-.4.1-.6.1-.7,0-1.3-.5-1.5-1.1l-3-5.2c-.8.2-1.7.4-2.5.5h-.7c-4.5,0-12-3.5-12.5-9.8-.3-4.6.2-25.2,0-31s-2.5-21.7-4.2-24.9c-1.4-2.8-6-31.5-7.3-43.3h0s-.8-6.3-.1-8.7h0c.9-6.7,3.1-13.2,6.5-19.1,0,0-10.7-4-12.6-6.1s-7-3.5-5.1-11.9,8.7-29.4,8.7-29.4c0,0-1.9-7.7,4.2-15.4,5.7-7.3,10-9.2,10.4-9.3h0v-2.1c0-.9.3-1.8.9-2.6l7.1-9.1c.6-.7,1.5-1.2,2.4-1.2h0c.1,0,.3,0,.4,0l2,.3c0,0,0-.1.1-.2-.3-.9-.4-1.9-.2-2.8-11-10.5,4.8-26.9,4.8-26.9M73.7,8.4c-1.9,0-3.7.8-5,2.1-1.2,1.2-10.9,11.7-10.7,23.3,0,2.4.5,4.8,1.5,7-.3.3-.7.6-.9,1h0c0,0-7.1,9.2-7.1,9.2h0c-1.1,1.5-1.8,3.2-2.1,4.9-3.5,2.6-6.5,5.6-9.1,9-4.4,5.3-6.5,12.2-5.9,19-1.6,5.1-6.7,21.1-8.3,28.4-2.4,11,3.6,15.7,6.2,17.7l.6.5c.6.7,2.2,2.3,8.1,5-1.9,4.5-3.1,9.3-3.8,14.2-.7,3.3-.3,8.2,0,10.9,0,.1,0,.3,0,.4.9,7.5,5.4,39.9,8,45.1,1.1,2.6,3.2,16.4,3.5,22.1.1,2.6,0,8.7,0,14.6,0,7.2-.2,13.9,0,16.6.8,10.4,11.3,16,18.9,16.3l.7,1.1c1.5,2.9,4.4,4.7,7.7,4.7,1.2,0,2.4-.3,3.5-.8,2.4-1.2,4.3-3.2,5.2-5.7l10.9-27.1c.6-1.6.9-3.3.8-5l-1.1-27.8c.8,1.1,1.8,2,2.9,2.9.3,3.9,1,7.8,2.2,11.5,1.7,5.5,9.8,22.4,12.3,27.6.5,5.4,2.1,10.7,4.9,15.4,4.7,8.1,13.5,13,22.9,12.8h.2c10,0,17.8-6,21.7-16.8,1.7-4.7,2.6-9.7,2.8-14.8v-.2l.9-22.6c1.8-.4,3.5-1,5.1-1.8,2.3-1.2,3.8-3.6,3.8-6.1l.6-50.8v-.4l-.4-10.4c.6-1.4,1.4-3.6,1.8-5.1.3-1,.8-2.9.2-18.7,0-1.5-.6-2.9-1.5-4.1-.3-3.5-.9-9.2-1.8-18.5.5-.5.9-1,1.2-1.6.9-1.6,1.2-2.3.8-15.8-.3-8.6-2.5-14-4.5-17.1l.2-1.2c.1-.9,0-1.7-.1-2.6-.4-1.6-2.2-7.2-10.3-14.8-3.3-3.1-7.2-5.5-11.5-6.8-.4-3.8-1.4-6.6-3.2-8.4-1.6-1.7-3.7-2.6-6-2.6-1.3,0-2.7.3-3.9.9-2.9,1.5-5.1,4.5-6.6,7.8-1.5-3.7-3.8-7-6.5-9.9-4.6-5-11.2-7.9-18-8-6.4,0-12.7,2.3-17.4,6.7,2.7-5.9,4.5-17.2-9-31.3-1.3-1.4-3.1-2.2-5-2.2h-.2Z"/>
    </g>
    <path class="st5" d="M50.5,131.9s-10.7-4-12.6-6.1-7-3.5-5.1-11.9,8.7-29.4,8.7-29.4c0,0-1.9-7.7,4.2-15.4s10.5-9.3,10.5-9.3v-2.1c0-.9.3-1.8.9-2.6l7.1-9.1c.7-.9,1.8-1.4,2.9-1.2l10.5,1.6c1,.1,1.8.6,2.4,1.4l1.2,1.5c.6.8.5,2-.3,2.6,0,0,0,0,0,0h0l7.2.8s4.9-10.7,17.2-10.7,19.8,13.4,19.5,20.1c0,0,3-1.5,8.8,1.8,0,0,2.2-10.7,5.9-12.6s3,9.9,3,9.9c0,0,6.4-.8,13.6,5.9,7.2,6.7,8.3,11.3,8.3,11.3l-.6,4.2s4.5,3.6,4.9,15.3,0,12.3,0,12.3c-.7.7-1.5,1.4-2.3,2,0,0,2.7,25.5,2.5,26.4l1.2-.6s.5,14.7,0,16.6-2.1,5.7-2.1,5.7l.5,11.9-.6,50.8c-2.7,1.3-5.7,1.8-8.6,1.4l-1.2,29.1s-.2,24.8-17.6,24.9-21-17.5-21-23c0,0-10.7-22.1-12.6-28-1.2-4.4-1.9-9-2.1-13.5,0,0-2.6-.7-4.9-4.2s-10.8-47.2-10.8-47.2l-3.5-2.3s-2.7,38.5-3.9,46.1c-.9,5.3,1.6,34.2.5,48.6-.4,7.2-6,13.1-13.2,13.8-4.3.4-12.7-3.1-13.2-9.8-.3-4.6.2-25.2,0-31s-2.5-21.7-4.2-24.9-7.4-40.3-7.7-47.3,2.2-16.5,6.7-24Z"/>
    <path class="st7" d="M139.4,51.5c3.7-1.9,3,9.9,3,9.9,0,0-.2,16.1-6.5,28s14.7,29.5,14.7,29.5l1.6-2.6s5.8,1.7,14.1-3.8l2.4-2s.4-.7,0-12.3-4.9-15.3-4.9-15.3l.6-4.2s-1.1-4.5-8.3-11.3-13.6-5.9-13.6-5.9c0,0,.7-11.8-3-9.9"/>
    <path class="st1" d="M33.6,114.2l2.4-5.1,2.4-5.1,4.8-10.1c.8-1.7,1.6-3.4,2.4-5.1.4-.8.8-1.7,1.2-2.6.4-.9.7-1.7,1-2.6.6-1.8,1.1-3.6,1.6-5.4s.9-3.6,1.4-5.4c-.7,3.7-1.6,7.3-2.7,10.9-.6,1.8-1.3,3.5-2.1,5.2-.8,1.7-1.6,3.4-2.4,5.1-1.6,3.4-3.2,6.8-4.9,10.1s-3.3,6.6-5,10Z"/>
    <path class="st7" d="M106.6,80.3s5-2.1,6-4c2.1,1.1,4.5,1.7,6.9,1.8,2.1-.2,3.9-1.2,5.1-2.9.5-2.3.8-4.6.8-6.9,0-2.2-.4-6.2-.4-6.2-.9-6.7-7.6-20-19.9-20s-17.3,10.9-17.3,10.9c0,0-4.6,13.5-3.2,20.4.3,1.9.8,3.7,1.5,5.5h0c1.4,4.6,3.7,9,6.7,12.8,3.2,4.2,7.6,7.3,12.6,9.1,3.1-1.4,6-3.3,8.6-5.6,4.9-4.1,7.7-9.4,9.6-14.1.6-1.7,1-3.5,1.1-5.3,0,0-3.6,8.7-8.4,11.9-3,1.9-6.3,3.3-9.8,4.1-3.8-.5-7.6-1.7-10.9-3.5-3.1-1.9-5.8-4.3-8-7.2l-.5-.7h0l-.3-2.3s8.7-.1,14.6-3.2c0,0,2.5,4.1,5.3,5.5Z"/>
    <path class="st1" d="M37.9,125.9c1.2.6,2.4,1.2,3.7,1.6,1.3.4,2.6.7,3.9.8h2c.3,0,.7-.1,1-.2.3,0,.6-.2.9-.3,1.2-.5,2.4-1.1,3.4-2,1-.9,1.8-1.9,2.4-3.1.3-.6.5-1.2.6-1.8.1-.7.2-1.3.3-2l1.2-7.9c.4-2.7.8-5.3,1.4-7.9.2-1.3.5-2.6.8-3.9s.6-2.6.9-3.9c.6-2.6,1.3-5.2,1.8-7.8s1.2-5.2,1.8-7.8c-.5,2.6-1.1,5.2-1.6,7.9s-1.2,5.2-1.8,7.8l-.9,3.9c-.3,1.3-.6,2.6-.8,3.9-.5,2.6-.9,5.3-1.3,7.9l-1.2,7.9c0,.7-.2,1.3-.3,2-.1.7-.3,1.3-.6,1.9-.6,1.2-1.5,2.3-2.5,3.2-1,.9-2.2,1.5-3.5,2l-1,.3c-.3.1-.7.1-1,.2h-1c-.3,0-.7,0-1,0-1.3-.1-2.7-.4-3.9-.9-1.2-.5-2.4-1.1-3.6-1.7Z"/>
    <path class="st1" d="M96.2,157.8c1.7,1.7,3.5,3.4,5.3,5s3.7,3.2,5.6,4.7c.9.8,1.9,1.5,2.9,2.3s2,1.4,2.9,2.2c2,1.4,4,2.8,6.2,4,.5.3,1,.6,1.6.9l1.6.8.8.4.8.4,1.7.7c2.3.9,4.6,1.7,6.9,2.3,2.3.7,4.7,1.2,7.1,1.5.6.1,1.2.2,1.8.2s1.2.1,1.8.1c1.2.1,2.4.1,3.7,0-1.2.1-2.4.2-3.7.1-.6,0-1.2,0-1.8-.1s-1.2-.1-1.8-.2c-2.4-.3-4.8-.8-7.2-1.5-2.4-.6-4.7-1.4-7-2.3l-1.7-.7-.8-.4-.8-.4-1.6-.8c-.5-.3-1.1-.6-1.6-.9-4.2-2.5-8.2-5.3-12-8.5-3.7-3.2-7.3-6.5-10.6-10Z"/>
    <path class="st1" d="M86.1,106.9c1.2,3,2.5,6,3.9,8.9,1.4,2.9,2.9,5.7,4.7,8.5.9,1.3,1.9,2.6,3,3.7.6.5,1.2,1,1.8,1.6s1.2,1.1,1.8,1.6c2.4,2.2,4.7,4.4,7,6.8,1.1,1.1,2.2,2.3,3.3,3.6l.8.9c.2.3.5.6.8.9.1.1.2.3.4.5l.4.4c.3.3.6.5.9.8,2.5,2,5.3,3.7,8.2,5.1,2.9,1.4,5.9,2.6,9,3.5,3.1,1,6.2,1.7,9.4,2.2-3.2-.5-6.4-1.1-9.5-2-3.1-.9-6.2-2.1-9.1-3.5-2.9-1.4-5.7-3.1-8.2-5.1-.3-.3-.6-.5-.9-.8l-.4-.4-.4-.4c-.3-.3-.5-.6-.8-.9s-.5-.6-.8-.9c-1-1.2-2.2-2.4-3.3-3.6-2.2-2.3-4.6-4.6-6.9-6.8-.6-.6-1.2-1.1-1.8-1.6s-1.2-1.1-1.8-1.6c-1.2-1.1-2.2-2.4-3-3.8-1.7-2.7-3.3-5.6-4.6-8.5-1.4-3-2.7-5.9-3.8-9Z"/>
    <path class="st1" d="M97.1,141.5c1.4,2,2.9,4,4.4,5.9s3.1,3.8,4.8,5.6c1.6,1.8,3.4,3.6,5.2,5.2l1.4,1.2,1.4,1.1.3.3c.1.1.3.2.4.3l.7.5.7.5.8.4c1,.6,2.1,1.2,3.2,1.7l1.7.7,1.8.6c2.3.8,4.7,1.5,7.1,2.1s4.8,1.1,7.2,1.6,4.8.9,7.3,1.2c-2.4-.3-4.9-.6-7.3-1.1s-4.8-.9-7.2-1.5-4.8-1.3-7.1-2l-1.8-.6-1.7-.7c-1.1-.5-2.3-1-3.3-1.7l-.8-.5-.8-.5-.8-.5-.4-.3-.3-.3-1.4-1.2-1.4-1.2c-1.8-1.7-3.5-3.4-5.1-5.3-3.2-3.7-6.2-7.6-9-11.7Z"/>
    <path class="st1" d="M97.1,148.9c1.5,1.7,3,3.5,4.5,5.2s3.1,3.4,4.8,5c3.2,3.2,6.6,6.5,10.9,8.2,4.2,1.9,8.5,3.6,12.9,4.9,2.2.7,4.4,1.3,6.6,1.7s4.5.9,6.8,1.2c-2.3-.2-4.6-.6-6.8-1s-4.5-1-6.7-1.7c-4.4-1.3-8.7-2.9-12.9-4.9-.5-.2-1-.5-1.5-.8l-.8-.4c-.2-.1-.5-.3-.8-.4-.3-.1-.5-.3-.7-.5l-.7-.5c-.5-.3-.9-.7-1.4-1.1-1.8-1.5-3.4-3.1-5-4.7-3.2-3.3-6.3-6.8-9.2-10.4Z"/>
    <path class="st1" d="M141.5,159.2c-4.8-.7-9.6-1.7-14.3-3-2.4-.7-4.7-1.5-6.9-2.4-2.3-.9-4.4-2.1-6.4-3.7-1.8-1.6-3.6-3.3-5.3-5.1s-3.4-3.5-5-5.3l-5-5.4c-1.6-1.8-3.4-3.5-5.2-5.2,1.8,1.6,3.6,3.3,5.3,5.1s3.3,3.5,5,5.3c3.4,3.5,6.7,7.1,10.4,10.3,1.9,1.5,4,2.7,6.3,3.6,2.2,1,4.5,1.8,6.9,2.4,2.3.7,4.7,1.3,7.1,1.9s4.8,1,7.2,1.4Z"/>
    <path class="st7" d="M143.6,183.4c1.4,16.6,15.6,42.9,15.6,42.9,0,0-.3,7.3-3.1,6.6s-7.9-2.4-11.4-1.4-17.8-2.6-19.8-3.1-2.5-3.8-4.4-8-4-11.7-4.9-20.1-7.1-31.7-7.1-31.7c0,0,9,8.7,21.1,12,12.1,3.3,14.2,2.8,14.2,2.8Z"/>
    <path class="st1" d="M140.4,109.9c.4,3.7.7,7.4,1,11.2.1,1.8.2,3.7.3,5.6s.1,3.7,0,5.6c0,.5,0,1-.1,1.4,0,.5-.2.9-.2,1.4s-.1.9-.2,1.4,0,.9-.1,1.4c-.1,1.9-.2,3.7-.2,5.6s0,3.7,0,5.6v4.9c0,.2,0,.5,0,.7,0-.2,0-.5-.1-.7,0-.2,0-.5,0-.7,0-.4,0-.9,0-1.4,0-.9,0-1.9-.1-2.8v-5.6c0-1.9,0-3.7.2-5.6,0-.5,0-.9.1-1.4s.1-.9.1-1.4.2-.9.2-1.4c0-.4.1-.9.1-1.4.1-3.7-.1-7.4-.3-11.2-.1-1.9-.2-3.7-.3-5.6l-.3-5.7Z"/>
    <path class="st1" d="M120.3,254.8c.2-1,.5-2,.9-3,.4-1,.9-1.9,1.4-2.8,1.1-1.8,2.5-3.4,4.1-4.6,1.7-1.3,3.6-2.1,5.7-2.5,2.1-.3,4.1-.5,6.2-.4,4.2,0,8.3,1,12.1,2.8.9.5,1.8,1,2.6,1.6.8.6,1.6,1.4,2.2,2.2.6.8,1.1,1.7,1.5,2.7.4.9.8,1.9.9,2.9-.5-2-1.4-3.9-2.6-5.6-1.3-1.6-2.9-2.9-4.8-3.7-3.8-1.7-7.9-2.6-12-2.6-2.1,0-4.1,0-6.1.4-2,.4-3.9,1.2-5.6,2.4-1.7,1.2-3.1,2.8-4.1,4.5-1.1,1.8-1.9,3.7-2.4,5.7Z"/>
    <path class="st1" d="M138.3,243.9c.3,2.3.4,4.7.7,7.1s.3,4.7.4,7.1v3.6c0,1.2-.2,2.3-.3,3.5l-.4,3.5c-.1,1.2-.2,2.3-.4,3.5,0-1.2.1-2.4.2-3.5l.2-3.5c0-1.2.2-2.4.2-3.5s0-2.3,0-3.5c0-2.4-.2-4.7-.3-7.1l-.4-7.1Z"/>
    <path class="st1" d="M131,245.3c.6,2,1,4,1.4,6,.3,2,.6,4,.7,6.1.1,2,.1,4.1,0,6.1-.1,2-.5,4-1,6,.2-1,.4-2,.5-3,.1-1,.2-2,.2-3,.1-2,.1-4.1,0-6.1-.1-2-.3-4.1-.6-6.1-.1-1-.3-2-.5-3s-.5-2.1-.8-3.1Z"/>
    <path class="st1" d="M143.6,245.3c.7,2.2,1.2,4.4,1.6,6.6.4,2.2.6,4.5.5,6.8,0,1.2-.1,2.3-.2,3.4s-.3,2.3-.4,3.4c-.3,2.3-.8,4.5-1.4,6.7l.6-3.4c.2-1.1.4-2.2.5-3.4.3-2.2.5-4.5.6-6.8,0-2.3,0-4.5-.4-6.7-.2-1.1-.4-2.2-.6-3.4s-.5-2.2-.7-3.4Z"/>
    <path class="st1" d="M149.9,248.2c.4,1.5.7,3,.9,4.6.3,1.5.4,3.1.5,4.6v.6c0,.2,0,.4,0,.6,0,.4-.1.8-.1,1.1-.1.8-.2,1.5-.4,2.3-.3,1.5-.6,3-.9,4.5l.3-2.3.3-2.3.3-2.3c0-.4.1-.8.1-1.2v-1.1c0-1.5-.2-3-.4-4.6-.1-.8-.2-1.5-.3-2.3l-.3-2.3Z"/>
    <path class="st7" d="M45.3,151.3s2.8,10.1,11.4,13.8c8.6,3.7,28.1,3.5,28.1,3.5l-1,13s-13.5-.8-24.1-6.6c-6.5-3.6-11.9-8.8-15.6-15.2,0,0-.8-6.3-.1-8.7l1.4.3Z"/>
    <path class="st1" d="M46.3,149.3c-.1-1.2-.2-2.5,0-3.7,0-1.2.2-2.5.5-3.7.5-2.4,1.5-4.8,2.9-6.8,1.5-2.1,3.4-3.8,5.6-5,1.1-.6,2.3-1.1,3.5-1.5.6-.2,1.2-.3,1.8-.5.3,0,.6-.1.9-.1.3,0,.6,0,1-.1,1.3,0,2.5,0,3.8.2,1.2.2,2.5.5,3.6,1,1.2.5,2.3,1.1,3.3,1.9,1,.8,1.9,1.6,2.7,2.6.8.9,1.6,2,2.2,3,.2.3.3.5.5.8.2.3.3.5.5.8l.4.8.4.9c.1.3.3.6.3.9.1.3.2.6.3.9.2.6.3,1.2.5,1.8.3,1.2.4,2.5.5,3.7,0-1.2-.3-2.5-.6-3.7-.1-.6-.3-1.2-.5-1.8,0-.3-.2-.6-.3-.9s-.2-.6-.3-.9l-.4-.8-.4-.8c-.1-.3-.3-.6-.4-.8-.2-.3-.3-.5-.5-.8-.7-1.1-1.4-2.1-2.2-3-1.6-1.9-3.6-3.4-5.9-4.4-1.1-.5-2.3-.8-3.6-1-1.2-.2-2.4-.2-3.7-.1-.3,0-.6,0-.9.1-.3,0-.6,0-.9.1-.6.1-1.2.3-1.8.4-1.2.4-2.3.9-3.4,1.5-2.2,1.2-4.1,2.8-5.6,4.8-1.4,2-2.4,4.3-2.9,6.8-.3,1.2-.5,2.4-.6,3.7-.2,1.3-.2,2.5-.1,3.8Z"/>
    <path class="st1" d="M52.7,139.6l-.2,2.3c0,.8-.1,1.6-.2,2.4-.1,1.6-.2,3.1-.2,4.7s0,1.5,0,2.3.1,1.6.2,2.3l.2,2.4c0,.8.1,1.6.1,2.3,0-.8-.2-1.5-.3-2.3l-.2-2.4c-.1-.8-.1-1.6-.2-2.3s-.1-1.6-.1-2.3c0-1.6.1-3.1.3-4.7s.3-3.2.6-4.7Z"/>
    <path class="st1" d="M60,134c-.1,2.4-.3,4.8-.4,7.2s-.1,4.8,0,7.2c0,1.2.2,2.4.3,3.6s.2,2.4.3,3.6l.3,3.6c.1,1.2.2,2.4.3,3.6-.2-1.2-.3-2.4-.5-3.6l-.4-3.6-.4-3.6c-.1-1.2-.3-2.4-.3-3.6s0-2.4,0-3.6,0-2.4.1-3.6c.2-2.4.4-4.8.6-7.2Z"/>
    <path class="st1" d="M66.4,134.7v6.4c0,2.1,0,4.3,0,6.4s.2,4.3.4,6.4c0,1.1.2,2.1.3,3.2s.2,2.1.3,3.2c-.4-2.1-.7-4.2-.9-6.4s-.4-4.3-.5-6.4,0-4.3,0-6.4.1-4.3.3-6.5Z"/>
    <path class="st1" d="M73.4,140.2l-.2,4c-.1,1.3-.1,2.7,0,4,0,1.3.3,2.6.4,3.9l.2,2,.2,2c-.1-.7-.3-1.3-.4-2l-.3-2c-.2-1.3-.4-2.6-.5-4,0-.7,0-1.3,0-2,0-.7,0-1.3.1-2,.1-1.3.3-2.7.5-3.9Z"/>
    <path class="st1" d="M56.8,261.6c1-2.8,2.8-5.3,5.3-7,1.2-.9,2.6-1.5,4.1-1.9,1.5-.3,3-.2,4.5.2.7.2,1.4.5,2.1.9.6.4,1.2.9,1.8,1.4.3.2.5.6.8.8.1.2.2.3.3.5l.3.5c.2.3.4.6.5,1,.1.4.2.7.3,1.1.3,1.5.4,3,.3,4.4,0,.7,0,1.5,0,2.2,0,.7.3,1.5.6,2.1-.4-.6-.6-1.3-.7-2.1,0-.7-.1-1.5-.1-2.2,0-1.5,0-2.9-.4-4.4,0-.3-.2-.7-.3-1-.2-.3-.3-.6-.5-.9,0-.2-.2-.3-.3-.5l-.3-.4c-.2-.3-.5-.5-.8-.8-.5-.5-1.1-.9-1.8-1.3-.6-.4-1.3-.7-2-.9-1.4-.4-2.9-.5-4.3-.2-1.4.3-2.8.9-4,1.8-1.2.8-2.3,1.8-3.2,3-.9,1.1-1.7,2.4-2.2,3.7Z"/>
    <path class="st0" d="M89.3,243.4l-6.6-164.8-7.9,1.9-7.9,1.9-5.4,167.4c0,.7.1,1.4.4,2.1l12.3,21.7c.6,1,1.4,1.3,2.2,1,.7-.4,1.3-1.1,1.6-1.9l10.9-27.2c.2-.7.4-1.4.3-2.1Z"/>
    <path class="st2" d="M79.6,41.8s9.8-10-5.9-26.4c0,0-16,16.5-4.6,27l10.5-.6Z"/>
    <path class="st0" d="M68.9,42c-.2-1.2-.2-2.5,0-3.7.2-1.2.5-2.5.9-3.7.4-1.2.9-2.4,1.4-3.5.3-.6.6-1.1.9-1.6l1-1.6.3-.4.4.3c1.1.8,2,1.7,2.9,2.8.8,1,1.5,2.2,2,3.4.5,1.2.8,2.5,1,3.8.2,1.3.2,2.6,0,3.9,0-.6,0-1.3-.1-1.9,0-.6-.2-1.3-.3-1.9-.2-1.2-.7-2.4-1.2-3.5-.5-1.1-1.2-2.2-2-3.1-.8-1-1.7-1.8-2.7-2.5h.7c0-.1-1,1.4-1,1.4l-1,1.6c-.6,1.1-1.1,2.2-1.6,3.3-.5,1.1-.8,2.3-1.1,3.5-.3,1.2-.4,2.4-.4,3.6Z"/>
    <path class="st8" d="M69.1,45.1s-1.7-4.7,3-5.2,5.7,0,5.7,0c0,0,4.2,1.6,1.5,5,.8,1.1,1,2.5.4,3.7,0,0,1.5,2.9-.2,4.7.7,1,.5,2.3-.4,3.1,0,0,1.5.3,0,3.6.8,1.1.7,2.6-.2,3.5,0,0,1.3.8,0,2.5.8,1,.8,2.5,0,3.6,0,0,1.1,1.7.4,3,.7.5.8,1.5.3,2.2,0,0,1.1.3.8,2l-8.1.9s-.7-1.7.4-2.2c-.8-.8-.8-2,0-2.8,0,0,.1-.1.2-.2-1-.7-1.2-2-.5-2.9,0-.1.2-.2.3-.3-.8-.7-1-1.9-.5-2.8,0,0-1.7-1.4-.5-2.8,0,0-1.3-2.1,0-3.2-1-1-1.3-2.5-.6-3.7,0,0-1.6-2.2-.4-3.7,0,0-2-.7-.9-3.3,0,0-2.2-2-.6-4.5Z"/>
    <path class="st6" d="M109,82.6c-.3-5-4.1-8.7-8.4-8.1,0,0-9.6.9-13,1.2-2.7.2-6.3.7-10.2,1.1-3,.3-7.1.8-9.9,1.3-.7.1-1.9.3-3.2.5l-1,5.4h.6c0,0,28.2-3.6,28.2-3.6,2.1-.2,7.8-.7,7.8-.7,2.6-.3,4.6.2,4.8,3.2s-1.7,5.7-4.3,6c-1.3.2-2.5-.3-3.4-1.2-.5-.5-1.2-.5-1.7,0,0,0-.1.1-.1.2h0c-.3.5-.3,1.1,0,1.5,1.5,2.3,4.1,3.6,6.8,3.3,4.3-.5,7.6-5,7.3-10.1Z"/>
    <path class="st7" d="M80.6,52.1c.8-.6,1-1.8.4-2.6,0,0,0,0,0,0l-1.2-1.5c-.6-.7-1.5-1.2-2.4-1.4l-10.5-1.6c-1.1-.2-2.2.3-2.9,1.2l-7.1,9.1c-.6.7-.9,1.6-.9,2.6v2.1l-5.3,12.8s-.5,4.1,4.8,6.1,7.3,1.4,7.3,1.4c0,0,1.9-.8,1.9-2.2,0-.8,0-1.6-.1-2.4l5.5-5h8.8c1.3-.2,2.3-1.2,2.3-2.5h0c0-.1,0-.2,0-.3-.2-1.2-1.2-2.2-2.4-2.4l-1-.2,2.8-.5c1.6,0,2.8-1.3,2.9-2.9h0c0-1.6-1.3-2.9-2.9-2.9,0,0,0,0-.1,0h-.6l2.6-.7c1-.3,1.5-1.3,1.3-2.2,0,0,0-.2,0-.2l-.3-.7c-.6-1.3-1.5-2.3-2.8-3h0Z"/>
  </g>
</svg>