<svg id="Dinosaur" xmlns="http://www.w3.org/2000/svg" viewBox="0 0 216 288">
  <defs>
    <style>
      .cls-1 {
        fill: #e784a7;
      }

      .cls-2 {
        fill: #34281d;
      }

      .cls-3 {
        fill: #694018;
      }

      .cls-4 {
        fill: #fff;
      }

      .cls-5 {
        fill: #231f20;
      }

      .cls-6 {
        fill: #e26595;
      }
    </style>
  </defs>
  <g>
    <g>
      <path class="cls-1" d="M102.22,284.44a3.48,3.48,0,0,1-1-.15,3.6,3.6,0,0,1-1.31-.73,15.67,15.67,0,0,1-1.74.53,4.81,4.81,0,0,1-1.27.16c-2.33,0-5-1.56-6.69-2.72a20.46,20.46,0,0,0-3.39.62,31.92,31.92,0,0,1-7.58,1c-3.4,0-5.43-.7-6.58-2.27-1.73-2.37-.86-5.84.27-9.49.06-.19.11-.35.14-.46A5,5,0,0,1,75.58,268a4.36,4.36,0,0,0,2.13-2.79c.71-2.07,1.4-3.81,2-5.12a3.48,3.48,0,0,1-1.3-3.33,45,45,0,0,0,.58-5.13,9.1,9.1,0,0,1,1.48-4.23c1.22-2.31,2.74-5.18,1.83-8.21-2.1-7-2-10.7,2.5-17.5,2.48-3.72,1.85-7.72,1.11-12.34-.14-.88-.28-1.77-.4-2.66-.57-4.22.64-7.15,2.18-9l-3.2-8.51a17.57,17.57,0,0,0-3.74-2.8,3.55,3.55,0,0,1-1.12,1.35,3.49,3.49,0,0,1-1.55.63,3.06,3.06,0,0,1-.34.57,3.48,3.48,0,0,1-4,1.26l-.24-.09a3.51,3.51,0,0,1-3.44-.34,7.28,7.28,0,0,1-2.81-4.55,6.65,6.65,0,0,1-.52-2.64v-.13a15.49,15.49,0,0,0-3.24.58c-.61,3.15.35,4.57,2,7.06a25.24,25.24,0,0,1,3.41,6.49c2.63,8.09-2.3,16.33-6,17.79-1.29.75-6.25,5.41-6.68,9.75a21.17,21.17,0,0,1-5.07,12,3.46,3.46,0,0,1-1.44.91,2.31,2.31,0,0,0-.82,1.06l0,.1a10.85,10.85,0,0,1-.78,6.45,13.46,13.46,0,0,1-6.2,7.26c-1.92,8.25-6.62,11.48-9.09,12.63a16.53,16.53,0,0,1-5.48,5,3.6,3.6,0,0,1-1.63.4,3.51,3.51,0,0,1-3.48-3.12s0-.08,0-.13a16.39,16.39,0,0,1-2.24.69,5.75,5.75,0,0,0,0,2.56,3.5,3.5,0,0,1-3.41,4.27,3.28,3.28,0,0,1-1.07-.17,9.07,9.07,0,0,1-6-5.19c-1.67-4.06,0-8.63.77-10.34.23-2.12.54-5.34.54-6.47a15,15,0,0,1,1.41-5.47c0-1.59-.1-4.92,0-6.53.16-1.88,1.4-3.81,3.42-6.75a24.87,24.87,0,0,0,1.86-2.92,24.73,24.73,0,0,0,1-3.7c.09-.41.18-.78.26-1.11.51-2.05,4.37-8.75,10.44-12.43,3-1.8,7.54-7.33,10.39-11.06-3.78-3.37-9.71-8.81-11.07-11-.24-.39-.64-.91-1.09-1.52-1.78-2.34-4.6-6.06-5.3-11.25a3.59,3.59,0,0,1-1.54-.53c-4.18-2.66-4.78-3.68-5.08-4.17-.93-1.55-2.08-6.56-2.08-9.07,0-2.27,1.34-5.94,2.12-7.89a36.52,36.52,0,0,1,1.78-13.25c0-.32-.09-.79-.14-1.18-.52-4.33-1-9.25.34-12.85a37.83,37.83,0,0,0,2-10.82c0-.19-.09-.63-.19-1.25-1.43-9-2.88-20-1.38-25.24A104.86,104.86,0,0,0,20.3,80.9l-.24-.21a3.51,3.51,0,0,1,0-5.26l-.25-.26a3.51,3.51,0,0,1,1.4-5.69l2.72-1,.59-.67-.2-.3a3.49,3.49,0,0,1,2.91-5.44h1a3.48,3.48,0,0,1,1.67-5,3.51,3.51,0,0,1,.28-3.7A3.47,3.47,0,0,1,32.65,52l-.07-.11a3.5,3.5,0,0,1,3.08-5.18,4,4,0,0,1,.49,0l2.27.33L39.85,45l-1-2.09a3.5,3.5,0,0,1,3.15-5,3.58,3.58,0,0,1,1.49.33l1.47.7,3.12-4.1L47.67,34a3.49,3.49,0,0,1,3.18-5H51l3.25.16c.4-.27.89-.59,1.48-.94a3.69,3.69,0,0,1,.93-1.31,10.62,10.62,0,0,0,.19-4.41,61.58,61.58,0,0,1-.13-10c.35-4.75,1.1-6.79,2.86-7.77a3.9,3.9,0,0,1,1.86-.48c2,0,3.16,1.37,4.48,2.94a32.65,32.65,0,0,0,6.93,6.47,79.28,79.28,0,0,1,10.06,8c.82.1,1.6.23,2.38.39a42.69,42.69,0,0,1,7.45,2.25,63.06,63.06,0,0,1,7.41,1.25,4.29,4.29,0,0,0,.76,0,37,37,0,0,0,5.33-.67,35.62,35.62,0,0,1,5.63-.69A5.68,5.68,0,0,1,116.33,26a4.35,4.35,0,0,1,1,3.58c-.15.91-.56,3.34-5.63,7.31,1.57,1.51,2.45,2.53,2.5,2.59a3.41,3.41,0,0,1,.82,1.81c0,.3,1,7.26,1.21,12.64a23.65,23.65,0,0,1-2.28,9.82c-.06,1.07-.23,2.59-.25,2.78a3.43,3.43,0,0,1-.54,1.51,3.49,3.49,0,0,1-1,1.7,1.3,1.3,0,0,1-.08.17,8.73,8.73,0,0,1-1.64,3.22,3.5,3.5,0,0,1-1.29,1,4.56,4.56,0,0,1-1.19,1,2.91,2.91,0,0,1-.35.18,5.1,5.1,0,0,1-1.19,1.15,5,5,0,0,1-.89.45,6.68,6.68,0,0,1-1.73,1.38,2.41,2.41,0,0,1-.33.15,3.4,3.4,0,0,1-1.1.53,8.3,8.3,0,0,1-.6.6,3.52,3.52,0,0,1-1.13.67,3.38,3.38,0,0,1-.35.31,3.6,3.6,0,0,1,.12.44,3.88,3.88,0,0,1,.94.27,2.78,2.78,0,0,1,.42.22,3.53,3.53,0,0,1,2.6-1.15,3.27,3.27,0,0,1,.54,0,3.51,3.51,0,0,1,.8.23A3.48,3.48,0,0,1,107.6,80a3.7,3.7,0,0,1,.87.11l.2.06a3.51,3.51,0,0,1,5,1.77,3.44,3.44,0,0,1,1.9-.56,3.58,3.58,0,0,1,.85.1,3.51,3.51,0,0,1,2.61,2.89,3.31,3.31,0,0,1,.55,0,3.41,3.41,0,0,1,1.69.44,3.48,3.48,0,0,1,1.74,2.4,3.58,3.58,0,0,1,.64.43,3.68,3.68,0,0,1,1.21.28,3.18,3.18,0,0,1,.32.16,3.55,3.55,0,0,1,1.25-.23,3.41,3.41,0,0,1,1.46.32,3.49,3.49,0,0,1,1.89,2.18l.83-.25a3.76,3.76,0,0,1,1-.14,3.5,3.5,0,0,1,3.47,4,3.49,3.49,0,0,1,.55,2.93l0,.09,1.21-.45a3.51,3.51,0,0,1,3.57.68l.09.09a3,3,0,0,1,.52,0,3.5,3.5,0,0,1,3.43,4.21,3.49,3.49,0,0,1,1.15,3.39l.73-.15a4.26,4.26,0,0,1,.7-.07,3.5,3.5,0,0,1,3.37,4.44.21.21,0,0,1,0,.06l.53-.28a3.5,3.5,0,0,1,4.82,4.58l-.09.18a3.51,3.51,0,0,1,3.05,4.38l-.39,1.47,1-.51a3.44,3.44,0,0,1,4.13.69,3.52,3.52,0,0,1,1-.13,3.45,3.45,0,0,1,1.7.44,3.51,3.51,0,0,1,1.79,3.32l-.16,2.15a87.74,87.74,0,0,1,24.53,25.38c11.22,18,13.66,38,7.24,59.29-14.77,49.09-68.67,61.41-71,61.91a3.82,3.82,0,0,1-.75.08,3.5,3.5,0,0,1-2.5-5.95c12-12.29,42.29-48.26,38.76-67.22-2.09-7.47-7.05-13.44-14.75-17.73-8-4.2-17.14-5.86-21.75-6.47a70,70,0,0,1-3.72,9.57c-.93,2.11-2,4.51-3.07,7.22-1.31,3.26-1,5-.44,7.67a24.69,24.69,0,0,1-.74,13.93c-2.79,8.73-6.44,13.24-8.52,15.25,0,.31,0,.62,0,.93.07,3.59.12,6.43-.95,8.35-1.15,2.09-1.78,8.15-1.91,12.32,2.13,4,2.72,6.6,2.82,8.07a31.57,31.57,0,0,0,2.39,4.87c.18.19,1,.82,1.67,1.28a29.35,29.35,0,0,1,3.82,3.16,7.86,7.86,0,0,1,3,4.25,9.44,9.44,0,0,1-1.19,7.24c-2,4.44-5.82,4.44-8.88,4.44a18.26,18.26,0,0,1-6.08-1.1l-.19.11a8.38,8.38,0,0,1-.73,1A3.48,3.48,0,0,1,102.22,284.44Z"/>
      <path class="cls-1" d="M61.45,7.76c1,0,3.14,4.5,9.44,8.8A70.67,70.67,0,0,1,81.2,24.92a.64.64,0,0,1-.07.12,30.16,30.16,0,0,1,3.47.49A39.38,39.38,0,0,1,92.33,28l-.41-.18A57.42,57.42,0,0,1,99.37,29a7.25,7.25,0,0,0,1.55.14c3.24,0,8.23-1.36,11-1.36,1.29,0,2.08.31,1.93,1.22-.44,2.65-6,6.4-7.76,7.55a54.07,54.07,0,0,1,5.45,5.21s1,7,1.17,12.3c.12,2.77-1.05,6.14-2.18,8.73a2.66,2.66,0,0,1-.08.44c0,.91-.25,2.9-.25,2.9l-.39-1.37-.07.15v2.29l-.44-1.5-.17.3v0c-.15.24-.3.47-.46.69a1.17,1.17,0,0,0,.46-.67l-.15,2.24-.45-1.37h0a15.93,15.93,0,0,0,.2,1.68c.16.87-1,2.37-1,2.37a10.07,10.07,0,0,1,0-1.86,2.45,2.45,0,0,0-.13-1l-.45.49c0,.43,0,.94,0,1.5a2.38,2.38,0,0,1-.91,2.06L105.62,70l-.07,0c0,.25,0,.59,0,1.1a3.14,3.14,0,0,1-1.07,2.45,8.7,8.7,0,0,0,0-1.78,2.23,2.23,0,0,0-.14-.76l-.21.16-.38.27c0,.3,0,.68,0,1.21a3.19,3.19,0,0,1-1.58,2.57l.36-1.51a1,1,0,0,0-.48-1.06,4,4,0,0,1-.59,3l-.5-2.48-.09,0v1.28A4.18,4.18,0,0,1,99.41,77s.2-1,.32-1.7a3.63,3.63,0,0,0-.2-1.55l-.09,0-1.33,4a12.81,12.81,0,0,1,0-2,5,5,0,0,0-.2-1.61l-.3.09c0,.39,0,.86,0,1.4C97.67,77,96,78.24,96,78.24a18.79,18.79,0,0,0,.32-3.4c0-.08,0-.15,0-.23a10.71,10.71,0,0,1-1.12.14l-.73,2.66A5.23,5.23,0,0,1,94,74.77l-.24,0L93,76.94l-.16-2.3-.17,0a7.59,7.59,0,0,1-1.88,3.12,20.28,20.28,0,0,0,.55-2.22,2.85,2.85,0,0,0,0-1.28,7.21,7.21,0,0,1-1.52-.81h0c-2.5,0-4.09,3.45-4.49,4.27-2,4,6.12,6.17,6.12,6.17l1.79-1.69.21,2.74L97,81.75l-.22,5.17,3.17-2.43.21,2.43h2.11l2.11-3.06,1,3.16,2.32-3.48.21,2.54,2.64-2.85v4.53l2.42-2.21v3.16l2.75-3.8.73,5.49,3.28-2.53-.43,4.22,2.22-1.8v2.85l2.11-2V94.2l3-2.85L126.27,95l5.38-1.58L129,97.26,132.28,96l-.84,3.27,2.43,2.11,4.22-1.58-1,3.59,3.9-2.64-2.11,5.06,3.27-1.69L140.93,108l.95,1.16,5.17-1.06-2.32,3.38,2.64-.74L147,115l5.69-3.06-2.74,5.8,3.27-1-.53,2.21,2.75-1.79-1.06,4,3.59,2.53,3.06-1.58-.43,3.79,3.91-2.84-.32,4.22c10.13,6.32,46.42,34.17,32.07,81.85s-68.36,59.5-68.36,59.5S172.37,223,167.52,198.1c-2.67-9.72-9.25-16-16.46-20-12.09-6.36-26.21-7.22-26.21-7.22-.79,5.54-3.8,10.6-7.28,19.3s2.37,10.44-1.27,21.84-8.7,14.71-8.7,14.71c0,3.8.32,7.76-.48,9.18-2.23,4-2.37,14.87-2.37,14.87,3.17,5.7,2.85,7.92,2.85,7.92a38.19,38.19,0,0,0,3,6.17c.88,1.27,4,2.91,6.09,5.13h0s3.84,2.14.93,7.21h0c-1.09,2.52-2.71,2.53-5.76,2.53a15,15,0,0,1-6.8-1.74,3.55,3.55,0,0,1-.28.43,2.9,2.9,0,0,1-1.65,1.05,5.7,5.7,0,0,1-.92,1.45,6.26,6.26,0,0,0-.35-1.32,5.39,5.39,0,0,1-1.23-.19,15.48,15.48,0,0,1-3.33,1.27,1.86,1.86,0,0,1-.42.05c-2,0-5.59-2.74-5.59-2.74h-.37a20.38,20.38,0,0,0-5,.77,29.17,29.17,0,0,1-6.69.83c-1.82,0-3.32-.24-3.75-.83-1-1.3.63-5.82,1-6.93s3-.95,4.59-5.54a67.94,67.94,0,0,1,3-7.44c.16-.79-2.21-1.58-2.21-1.58a49.36,49.36,0,0,0,.63-5.7c0-1.89,5.06-7.12,3.17-13.44s-1.75-8.87,2-14.56,2.06-11.55,1.27-17.41,2.85-7.43,2.85-7.43l-4.28-11.4s-2.23-3.09-9-6a8.76,8.76,0,0,1-.71,1.51h0l-.11.16a2.3,2.3,0,0,0-.14,1.85,2,2,0,0,1-.68-1.28l-.12,0v-2.92h0l-1.26,3.86.1-2.73-1,2.33s-.42,2,.22,2.78a1.7,1.7,0,0,1-.9-1.11h0a4,4,0,0,1-.1-1.88h0l-.22-4-.42,2.9a3.77,3.77,0,0,1-.8,1.51h0a3.9,3.9,0,0,0-.41,2.55,3.74,3.74,0,0,1-1.43-2.71h0a3.1,3.1,0,0,1-.42-1.69L69.94,179c-.71-.06-1.39-.09-2-.09a17.08,17.08,0,0,0-7.46,1.51c-2.69,9,2.84,10.44,5.06,17.25s-2.53,13-4,13.45-8.22,6.33-8.86,12.66a17.81,17.81,0,0,1-4.11,10,1.06,1.06,0,0,0-.16-1.35,1.34,1.34,0,0,1,.16,1.35,5.57,5.57,0,0,0-3,3.17,5.69,5.69,0,0,1,0-2.85s.88-3.5.29-3.5c-.07,0-.16.06-.29.18-1.1,1.11-1.58,6.49-1.58,6.49s2.85.95.79,6.17-6,6-6,6c-1.74,10.76-8.39,12.34-8.39,12.34a12.91,12.91,0,0,1-4.74,4.75,18,18,0,0,1,1.26-8.23c1.84.07,2.75.68,3.18,1.37a2.6,2.6,0,0,0-2.52-1.42,4,4,0,0,0-.66.05l.32-4.75s-1.27,4-2.38,6.81-6.17,3.8-6.17,3.8c-3.44,1.19-2.21,6.64-2.21,6.64C9,268.36,13.61,259.5,13.61,259.5c3.15,1.94,4.34,3.18,4.79,3.87-1.14-2.3-4.79-3.87-4.79-3.87s.63-5.54.63-7.44a14,14,0,0,1,1.43-4.75s-.16-5.06,0-7,4.27-6.65,5.06-8.7a38,38,0,0,0,1.42-5.22c.32-1.27,3.64-7.12,8.87-10.29s13.29-14.56,13.29-14.56-11.24-9.81-12.82-12.34-6-6.64-6-13.29a12.73,12.73,0,0,1,.12-1.71l-2.1-1.38-.71-.23-.32,2.21s-3.48-2.21-3.95-3a23.73,23.73,0,0,1-1.59-7.28c0-2.22,2.22-7.44,2.22-7.44-.95-4.27,1.32-12.82,1.67-13.13s-1.62-9,0-13.4,2.39-10.76,2.18-12.45S19.62,98.94,21.31,93a117.05,117.05,0,0,0,2.74-13.5l-1.68-1.48,2.74-2.32-2.74-3L26,71.52l3-3.38-1.69-2.53h4L33,63.29l-1.75-2.95,2.95.84,1.06-1.48L33,55.48l4.36.85.85-1.48-2.53-4.64,4.43.63,3.8-5.57L42,41.35l4,1.9,6.12-8-1.26-2.74,4.43.21A36.89,36.89,0,0,1,60,29.82a2.16,2.16,0,0,1-1-.29s2-1,1.35-7.38,0-13.82.95-14.35a.42.42,0,0,1,.16,0m40.47,25.61a42,42,0,0,0-5-3.12c1.78,1,3.44,2.06,5,3.12m.22,39.12a2.36,2.36,0,0,0,.78-.49c-.25.17-.51.33-.78.49m-74.2,93.8a70,70,0,0,1,3.71-7.59l-.63-.79H29.43a6.6,6.6,0,0,1-.51,2,9.77,9.77,0,0,1-1.22,3,9.93,9.93,0,0,1-1.27,1.66,7.64,7.64,0,0,1,1.51,1.73m-2.25,7.36c.1-.61.23-1.24.39-1.88l-.92-1.2v1.16l.53,1.92M47,232.32a1.46,1.46,0,0,1,.77-.28.72.72,0,0,1,.35.08.71.71,0,0,0-.37-.1,1.33,1.33,0,0,0-.75.3M61.45.76a7.4,7.4,0,0,0-3.56.92C54.16,3.76,53.55,8,53.24,12.25a65.69,65.69,0,0,0,.13,10.59,14.43,14.43,0,0,1,.07,2.42,3.43,3.43,0,0,0-.24.33l-2-.09h-.33a7,7,0,0,0-6.78,8.74l-.28.36A7.05,7.05,0,0,0,42,34.35a7,7,0,0,0-6.75,8.87A7,7,0,0,0,28.66,50a6.72,6.72,0,0,0-1.31,1.35A7,7,0,0,0,26,55.7l-.3.36a7,7,0,0,0-1.37,3.18,7,7,0,0,0-3.26,3.07,6.9,6.9,0,0,0-.81,3.8l-.2.07a7,7,0,0,0-4.16,9.24A6.86,6.86,0,0,0,15.37,78a6.94,6.94,0,0,0,1.2,4,91.66,91.66,0,0,1-2,9.12c-1.33,4.66-.94,12.66,1.29,26.76.08.44.13.79.16,1a35.63,35.63,0,0,1-1.79,9.31c-1.58,4.33-1.09,9.74-.52,14.47l0,.24a43.33,43.33,0,0,0-1.14,4.92,34.39,34.39,0,0,0-.64,8.37c-1,2.51-2,5.87-2,8.37,0,2.9,1.22,8.6,2.58,10.88.5.82,1.33,2.21,6.2,5.31l.36.21a28.57,28.57,0,0,0,5.57,10.74c.35.47.76,1,.91,1.25.8,1.27,3.09,3.94,9.26,9.55C32,206,29,209.15,27.39,210.15c-6.9,4.18-11.3,11.68-12,14.58-.09.36-.18.76-.28,1.2a21.43,21.43,0,0,1-.84,3.08c-.24.46-1,1.57-1.52,2.32-2,2.95-3.78,5.49-4,8.44-.13,1.54-.1,4.32-.06,6.14a17.23,17.23,0,0,0-1.39,6.15c0,.77-.22,3.29-.46,5.56-1,2.51-2.61,7.67-.58,12.59a12.71,12.71,0,0,0,8.13,7.19,7.6,7.6,0,0,0,2.25.35,6.81,6.81,0,0,0,4.71-1.83A7.07,7.07,0,0,0,23.16,273a7.06,7.06,0,0,0,2.48.45,7,7,0,0,0,3.26-.81,20,20,0,0,0,6.19-5.36c3.07-1.65,7.57-5.32,9.78-13.13a17.59,17.59,0,0,0,6.42-8.24,15.62,15.62,0,0,0,1.23-6.43,6.62,6.62,0,0,0,1-.88h0l.16-.17a24.94,24.94,0,0,0,5.93-14c.25-2.49,3.42-6,4.91-7,5.31-2.52,10.7-12.4,7.6-21.94-.19-.56-.38-1.1-.59-1.6H72a6.85,6.85,0,0,0,1.42-.15,6.85,6.85,0,0,0,1.42.15,7,7,0,0,0,5.41-2.55,7.29,7.29,0,0,0,.88-.45l.32.27,2.27,6A15.15,15.15,0,0,0,82,207.11c.12.91.27,1.83.41,2.74.76,4.77,1.08,7.38-.56,9.85C77,227,76.33,231.56,78.9,240.15c.46,1.53-.36,3.27-1.58,5.56a12.28,12.28,0,0,0-1.88,5.87,40.58,40.58,0,0,1-.54,4.55,7.13,7.13,0,0,0,.73,4.53c-.39,1-.8,2.12-1.23,3.36a2.85,2.85,0,0,1-.34.74l-.32.21a8.44,8.44,0,0,0-4,4.95l-.12.39c-1.35,4.35-2.44,8.91.24,12.58,2.43,3.33,6.54,3.71,9.41,3.71a36.25,36.25,0,0,0,8.47-1.06c.64-.17,1.2-.29,1.65-.37a14.86,14.86,0,0,0,7.54,2.58A8.3,8.3,0,0,0,99,287.5a7.66,7.66,0,0,0,.93.4,5.88,5.88,0,0,0,2,.35,7.46,7.46,0,0,0,5-2.11,20.62,20.62,0,0,0,5,.61c3.17,0,9,0,12-6.36a14.39,14.39,0,0,0,1.75-5.19,7,7,0,0,0,3.73.21,117.57,117.57,0,0,0,30.83-12.66c21.57-12.57,36.35-30.44,42.73-51.66,6.63-22,4-43.52-7.62-62.15a91.19,91.19,0,0,0-23.86-25.25v-.17a7,7,0,0,0-3.58-6.64,6.86,6.86,0,0,0-3.36-.88,6.81,6.81,0,0,0-2.39-.86,7,7,0,0,0-2.48-3.62,7,7,0,0,0-6.34-6.57,5.9,5.9,0,0,0-.4-.69,7,7,0,0,0-4.28-3,6.94,6.94,0,0,0-.59-1.07,7,7,0,0,0-6.37-6.47,7,7,0,0,0-3-1,7,7,0,0,0-7-6.35h-.16a7,7,0,0,0-5-2.11,6.79,6.79,0,0,0-.78,0A7,7,0,0,0,123,81.74a8,8,0,0,0-1.52-.62,7,7,0,0,0-4.18-3,6.67,6.67,0,0,0-1.7-.22,5.83,5.83,0,0,0-.59,0,7.06,7.06,0,0,0-2-1.23,7.65,7.65,0,0,0-1-.3,6.92,6.92,0,0,0,1.11-1.12,12.54,12.54,0,0,0,2.09-3.79,7,7,0,0,0,1.1-2.06,7.08,7.08,0,0,0,.79-2.52c0-.38.15-1.39.22-2.36a26.35,26.35,0,0,0,2.33-10.77c-.22-5.55-1.2-12.67-1.24-13a6.94,6.94,0,0,0-1.64-3.63l-.09-.1c3.44-3.44,3.83-5.82,4-6.93A7.86,7.86,0,0,0,119,23.74a8.83,8.83,0,0,0-7.11-2.95,38.5,38.5,0,0,0-6.23.74,36.43,36.43,0,0,1-4.74.62h-.13a69.52,69.52,0,0,0-7.19-1.23A45.57,45.57,0,0,0,86,18.67c-.49-.1-1-.19-1.48-.27a85.87,85.87,0,0,0-9.67-7.62A29.07,29.07,0,0,1,68.61,5C67.13,3.18,65.09.77,61.45.76Zm53.19,229c2.45-2.71,5.76-7.54,8.33-15.57a28.07,28.07,0,0,0,.84-15.68c-.48-2.47-.66-3.39.26-5.69,1.06-2.65,2.1-5,3-7.11,1.1-2.48,2.12-4.78,2.94-7.07a62.19,62.19,0,0,1,17.7,5.66c6.85,3.84,11.09,8.88,13,15.41.83,4.83-.37,16.12-16.76,38.75a254.64,254.64,0,0,1-21.09,25.25,7.48,7.48,0,0,0-1.06,1.4c-.17-.15-.34-.29-.5-.41a34.2,34.2,0,0,0-4.07-3.34l-1.08-.8a34,34,0,0,1-1.61-3.38,24.89,24.89,0,0,0-2.72-8c.19-4.21.82-8.61,1.45-9.84,1.45-2.62,1.46-5.71,1.39-9.58Z"/>
    </g>
    <g>
      <path class="cls-1" d="M24.53,175.26s-2-1-1.87-1.72l-.19,1.3A2.15,2.15,0,0,0,24.53,175.26Z"/>
      <path class="cls-1" d="M22.66,173.54c-.1.7,1.87,1.72,1.87,1.72a3.14,3.14,0,0,1-.65.07,1.85,1.85,0,0,1-1.41-.49l.19-1.3"/>
    </g>
  </g>
  <path class="cls-2" d="M108.47,66.85s4.43-7.5,4.21-12.78-1.17-12.3-1.17-12.3S100.22,28.69,84.6,25.53,55.28,32.7,55.28,32.7l-4.43-.21,1.26,2.74-6.12,8-4-1.9,1.93,3.92-3.8,5.57-4.43-.63,2.53,4.64-.85,1.48L33,55.48l2.26,4.22-1.06,1.48-2.95-.84L33,63.29l-1.75,2.32h-4l1.69,2.53-3,3.38-3.58,1.26,2.74,3-2.74,2.32,1.68,1.48A117.05,117.05,0,0,1,21.31,93c-1.69,5.9,1.48,23.42,1.69,25.1s-.57,8-2.18,12.45.35,13.08,0,13.4-2.62,8.86-1.67,13.13c0,0-2.22,5.22-2.22,7.44a23.73,23.73,0,0,0,1.59,7.28c.47.79,3.95,3,3.95,3l.32-2.21,2.37.79v-2.85l2.06,2.69s-.32-4.11.31-3.32,1.27,1.74,1.27,1.74a7.33,7.33,0,0,0-2.37-7.12s2.85-4.27,3-6.65H31l.63.79S25.48,169.3,25.48,176s4.43,10.76,6,13.29,12.82,12.34,12.82,12.34S36.24,213,31,216.14s-8.55,9-8.87,10.29a38,38,0,0,1-1.42,5.22c-.79,2-4.9,6.8-5.06,8.7s0,7,0,7a14,14,0,0,0-1.43,4.75c0,1.9-.63,7.44-.63,7.44s4.43,1.9,5.06,4.59c0,0,5.07-.95,6.17-3.8s2.38-6.81,2.38-6.81l-.32,4.75s3.8-.79,3.48,3.48c0,0,6.65-1.58,8.39-12.34,0,0,3.95-.79,6-6s-.79-6.17-.79-6.17.48-5.38,1.58-6.49,0,3.32,0,3.32,1.43-2.53,2.53-1.9a1.07,1.07,0,0,1,.48,1.58,17.81,17.81,0,0,0,4.11-10c.64-6.33,7.44-12.19,8.86-12.66s6.18-6.65,4-13.45-7.75-8.23-5.06-17.25c0,0,6.17-3.32,15.19-.16s11.86,7.12,11.86,7.12l4.28,11.4s-3.64,1.58-2.85,7.43,2.53,11.71-1.27,17.41-4,8.23-2,14.56-3.17,11.55-3.17,13.44a49.36,49.36,0,0,1-.63,5.7s2.37.79,2.21,1.58a67.94,67.94,0,0,0-3,7.44c-1.59,4.59-4.28,4.43-4.59,5.54s-1.9,5.63-1,6.93,7,.91,10.44,0A17.68,17.68,0,0,1,91.3,278s4.12,3.16,6,2.69a15.48,15.48,0,0,0,3.33-1.27s2.76.83,4.15-1a3.55,3.55,0,0,0,.28-.43,15,15,0,0,0,6.8,1.74c3.8,0,5.38,0,6.49-4.91s-6.33-7.91-7.75-10a38.19,38.19,0,0,1-3-6.17s.32-2.22-2.85-7.92c0,0,.14-10.85,2.37-14.87.8-1.42.48-5.38.48-9.18,0,0,5.06-3.32,8.7-14.71s-2.21-13.14,1.27-21.84,6.49-13.76,7.28-19.3c0,0,35.49,1.05,42.67,27.21s-39.67,70.47-39.67,70.47,54-11.82,68.36-59.5-21.94-75.53-32.07-81.85l.32-4.22-3.91,2.84.43-3.79-3.06,1.58-3.59-2.53,1.06-4-2.75,1.79.53-2.21-3.27,1,2.74-5.8L147,115l.42-4.22-2.64.74,2.32-3.38-5.17,1.06-.95-1.16,1.27-3.91-3.27,1.69,2.11-5.06-3.9,2.64,1-3.59-4.22,1.58-2.43-2.11.84-3.27L129,97.26l2.64-3.8L126.27,95l.21-3.69-3,2.85V91.14l-2.11,2V90.29l-2.22,1.8.43-4.22-3.28,2.53-.73-5.49-2.75,3.8V85.55l-2.42,2.21V83.23l-2.64,2.85-.21-2.54L105.28,87l-1-3.16-2.11,3.06h-2.11l-.21-2.43-3.17,2.43L97,81.75l-3.49,3.16-.21-2.74-1.79,1.69s-8.07-2.16-6.12-6.17c.46-.94,2.47-5.33,5.65-4C100.6,77.58,108.47,66.85,108.47,66.85Z"/>
  <path class="cls-3" d="M76.74,183.55a.56.56,0,0,0,.59-.2,2.56,2.56,0,0,0,.39-.54,7,7,0,0,0,.54-1.22A21.15,21.15,0,0,0,79,179c.41-1.75.73-3.53,1-5.31a26.46,26.46,0,0,1,.46-2.71,11.9,11.9,0,0,1,1-2.62c.43-.82.91-1.6,1.4-2.36a21.06,21.06,0,0,0,1.38-2.25,10.81,10.81,0,0,0,.7-5.08,30.8,30.8,0,0,0-.86-5.27,49.25,49.25,0,0,0-1.57-5.15c-.57-1.71-1.25-3.39-2-5.05a47.8,47.8,0,0,1,4.27,10,26.61,26.61,0,0,1,1.06,5.4,11.58,11.58,0,0,1-.73,5.56,21.34,21.34,0,0,1-1.47,2.37c-.49.75-1,1.51-1.39,2.28a10.39,10.39,0,0,0-1,2.39c-.23.84-.38,1.73-.56,2.62-.34,1.78-.75,3.56-1.26,5.3a23.21,23.21,0,0,1-.94,2.57,8.37,8.37,0,0,1-.66,1.21,3.23,3.23,0,0,1-.47.51A.59.59,0,0,1,76.74,183.55Z"/>
  <path d="M13.61,259.5S9,268.36,16.46,270.73c0,0-1.23-5.45,2.21-6.64C18.67,264.09,19,262.82,13.61,259.5Z"/>
  <path d="M26.9,258.23a18,18,0,0,0-1.26,8.23,12.91,12.91,0,0,0,4.74-4.75S31.33,258.39,26.9,258.23Z"/>
  <path d="M79,270.73a5.2,5.2,0,0,1,1.27,4.59s-2-.45-2.06,1.9C78.17,277.22,73.58,272,79,270.73Z"/>
  <path d="M98.42,276.43s-1-3.48.64-4.75a2.56,2.56,0,0,1,3.16,0s3.32,5.39,0,9.26C102.22,280.94,101.74,277.06,98.42,276.43Z"/>
  <path d="M113.3,274s-.63-4.21,3.4-4c0,0,3.84,2.14.93,7.21C117.63,277.22,116.94,273.58,113.3,274Z"/>
  <path class="cls-2" d="M68.15,149.47a7.93,7.93,0,0,0,.84,4.64c1.27,2.69,7.75,7.28,7.75,7.28s-6.17,9.5-6.17,11.87c0,0-1.75-.16-2.14,3.64l2-.79-.27,6.36a3.1,3.1,0,0,0,.76,2.16l.3.34h.34c.59,0,1.6-1.58,1.66-2.16l.42-2.9.32,5.85,1.63-4-.1,2.73,1.26-3.86v2.92s1.27.94,2.85-6,.32-6.33,4.59-12.66-3.64-21.67-3.64-21.67S72.1,138.56,68.15,149.47Z"/>
  <path d="M22.66,173.54l-.19,1.3a2.15,2.15,0,0,0,2.06.42S22.56,174.24,22.66,173.54Z"/>
  <path d="M23.5,172.86a1.67,1.67,0,0,1,.66-1.13.83.83,0,0,1,1,0l.74,2.7Z"/>
  <path d="M70.57,184.16c0-.37,1.52-.44,1.84.16a3.9,3.9,0,0,0-.41,2.55A3.74,3.74,0,0,1,70.57,184.16Z"/>
  <path d="M73.85,183.88l.78.21s-.42,2,.22,2.78C74.85,186.87,73.48,186.42,73.85,183.88Z"/>
  <path d="M76.74,182.49s1-.29,1.05.36a2.11,2.11,0,0,0-.25,2S76.74,184.35,76.74,182.49Z"/>
  <path class="cls-3" d="M40.19,74.37s9.08-1.06,12.35-3.48a20.93,20.93,0,0,0,14.24-4.75s7.38,2.74,24.36-3,16.14-5.69,18.25-4.43c.65.39,1.4,3.34,1,4.49-1.75,5.35-7.37,8.63-7.37,8.63s-7.92,5.36-13.18,1.55c-1.44-1-6.94,5.67-7.9,8.65-2.43,7.49-6.33,20.46-6,23.73s-1.26,18,2.64,23.21c0,0-10.65-5.7-15.4-14.88s-3.06-12.81-9.39-20.59S47.79,80.48,40.19,74.37Z"/>
  <path class="cls-4" d="M72.79,66.46l-1.06,2,2.74-1.94-.73,2.89,3.38-2.91h0l-.9,3.75,3.49-4.12h0l-.43,4.49s3-2.53,3.58-4.48l.33-.7s-.33,3.07.25,4.23c0,0,2.56-2.87,2.93-5h0V69.3l1.78-4a3.73,3.73,0,0,1,1.41-1.61h0v5.18a4.36,4.36,0,0,0,1.53-2.74A18.74,18.74,0,0,1,91.76,63h0s.33,3,1.81,4.05l.58-4.86h0l1.69,4,1-3.38a3.62,3.62,0,0,1,1.51-2h0S98,64.61,99,65.45a51.48,51.48,0,0,0,1.79-5.51h0l.95,4.19L103.62,59h0a9.66,9.66,0,0,0,.76,4.07l1.11-4.63.26.51A21.6,21.6,0,0,1,107.1,62c.66,1.84,1.13,2,1.13,2s.3-4.78.23-5.79-9.65,2.36-9.65,2.36l-12.1,3.95s-6.4,1.57-8.66,1.83A36.68,36.68,0,0,1,72.79,66.46Z"/>
  <path class="cls-4" d="M91,73.65s.71.2.35,1.86a20.28,20.28,0,0,1-.55,2.22,7.46,7.46,0,0,0,2-3.56l.2,2.77,1-3s-.24,2.57.44,3.52l1-3.76a1.4,1.4,0,0,1,.87,1.19,18.79,18.79,0,0,1-.32,3.4s1.66-1.22,1.62-2.53,0-2.29,0-2.29a5.73,5.73,0,0,1,.48,2.41,12.81,12.81,0,0,0,0,2l1.38-4.2a3.79,3.79,0,0,1,.24,1.67c-.12.75-.32,1.7-.32,1.7a4.18,4.18,0,0,0,1.39-2.5V72.67l.59,3a4,4,0,0,0,.59-3,1,1,0,0,1,.48,1.06l-.36,1.51a3.19,3.19,0,0,0,1.58-2.57c0-1.75,0-2,0-2s.68-.21.75,1.17a8.7,8.7,0,0,1,0,1.78,3.14,3.14,0,0,0,1.07-2.45c.12-1.82,0-1.62,0-1.62l.64,2.65a2.38,2.38,0,0,0,.91-2.06c0-1.54,0-2.77,0-2.77a2.15,2.15,0,0,1,.59,1.78,10.07,10.07,0,0,0,0,1.86s1.18-1.5,1-2.37a14.72,14.72,0,0,1-.2-1.74l.47,1.42.2-3,.57,1.94V64.52l.46,1.62a31.28,31.28,0,0,0,.24-3.29A8.07,8.07,0,0,1,109,65.49s.74,1.24-2.07,1.91c0,0-.25,2-3.19,3.15a2.63,2.63,0,0,1-3,2.06s-.82,1.58-3.13.74l-3.75.49S93.2,74.66,91,73.65Z"/>
  <path d="M59,29.53s2-1,1.35-7.38,0-13.82.95-14.35,2.95,4.22,9.6,8.76A70.67,70.67,0,0,1,81.2,24.92s-1.34,3.14-11.26,4.4S59,29.53,59,29.53Z"/>
  <path d="M105.49,36.92s7.81-4.75,8.33-7.91-10.33.95-14.45,0a57.42,57.42,0,0,0-7.45-1.22S102.43,32.17,105.49,36.92Z"/>
  <path d="M26.44,172.25a.8.8,0,0,1,.71-.41,7.37,7.37,0,0,0,.75,2.59A2.6,2.6,0,0,1,26.44,172.25Z"/>
  <path d="M28.23,170.86a.76.76,0,0,1,.7,0,1.85,1.85,0,0,1,0,2.14A14.41,14.41,0,0,0,28.23,170.86Z"/>
  <path class="cls-3" d="M68.15,149.47a7.7,7.7,0,0,0,.58,3.77,8.37,8.37,0,0,0,2.18,3.1,55.75,55.75,0,0,0,6,4.87l.18.13-.12.18c-1.2,1.88-2.35,3.8-3.46,5.74-.55,1-1.09,2-1.58,3a10.49,10.49,0,0,0-1.1,3l0,.22h-.21a1.27,1.27,0,0,0-.83.4,3,3,0,0,0-.59.88,7.78,7.78,0,0,0-.54,2.16l-.22-.17,2-.77.21-.08,0,.21-.4,6.36.13-6.37.19.14-2,.81-.25.11,0-.28a7.85,7.85,0,0,1,.51-2.27,3.31,3.31,0,0,1,.65-1,1.65,1.65,0,0,1,1.17-.53l-.23.21A10.26,10.26,0,0,1,71.48,170c.48-1,1-2,1.57-3,1.1-2,2.29-3.86,3.5-5.75l.06.31a45.76,45.76,0,0,1-5.92-5,8,8,0,0,1-2.13-3.25A7.82,7.82,0,0,1,68.15,149.47Z"/>
  <path d="M68.6,175.8s.9,0,.72.74c0,0-.85.2-.72,1.52A1.54,1.54,0,0,1,68.6,175.8Z"/>
  <path class="cls-3" d="M23.5,142.8c1.22,1.6,2.41,3.22,3.49,4.92.54.85,1.06,1.71,1.54,2.61a7.59,7.59,0,0,1,1,2.89,21.31,21.31,0,0,1-.21,6.07,10.81,10.81,0,0,1-1,2.91,11.24,11.24,0,0,1-1.78,2.53v-.34a8.49,8.49,0,0,1,1.36,1.51,6.13,6.13,0,0,1,.9,1.81,7,7,0,0,1,.1,4l-.07.28-.17-.25-.82-1.2c-.14-.19-.29-.4-.43-.57s-.16.17-.18.38a17.53,17.53,0,0,0,0,2.9,17.79,17.79,0,0,1-.11-2.92,1.8,1.8,0,0,1,.07-.38.27.27,0,0,1,.14-.19.24.24,0,0,1,.26.08c.17.19.31.38.47.57.3.38.59.78.87,1.18l-.25,0a6.65,6.65,0,0,0-.21-3.8,6.86,6.86,0,0,0-.88-1.7,7.89,7.89,0,0,0-1.3-1.41l-.17-.16.17-.18a11.23,11.23,0,0,0,1.65-2.4,11.84,11.84,0,0,0,.91-2.79,21,21,0,0,0,.26-5.93,7.63,7.63,0,0,0-.9-2.78c-.44-.89-.94-1.76-1.45-2.62C25.72,146.15,24.64,144.45,23.5,142.8Z"/>
  <path class="cls-3" d="M59.34,180.46l-1-1.13.08,0a7.33,7.33,0,0,1-3.33-.57,8.08,8.08,0,0,1-2.79-2l.31.11-2.05.4-.37.08-.08-.39-.35-1.6.42.35-2.13,0h-.3l-.13-.28-1.53-3.43.44.3-2.45,0h-.4l-.08-.41A10.48,10.48,0,0,0,41.7,168a11.83,11.83,0,0,0-3.29-3,39.09,39.09,0,0,1-3.8-2.69,14.15,14.15,0,0,1-3-3.59,15.54,15.54,0,0,0,3.26,3.22,40.53,40.53,0,0,0,3.9,2.43,15.72,15.72,0,0,1,2,1.33,11,11,0,0,1,1.67,1.74,10.81,10.81,0,0,1,2.12,4.34l-.48-.42,2.45.06h.32l.12.29,1.48,3.45-.42-.28,2.13,0h.37l.06.34.28,1.61-.46-.31,2.07-.29.2,0,.11.14a7.73,7.73,0,0,0,2.48,2,7,7,0,0,0,3.11.83h.06l0,0Z"/>
  <path class="cls-3" d="M132.49,145.78a10.26,10.26,0,0,1-2.53,9.71s-.74,11.39-5.11,15.4c0,0,37.81,2.32,42.67,27.21s-39.67,70.47-39.67,70.47,59.71-29.54,59.92-69S132.49,145.78,132.49,145.78Z"/>
  <path d="M67.41,42.64s1-3.2,2.76-3.32c1.56-.11,2.71,2.08,3.94,3a.17.17,0,0,1-.08.31,3.39,3.39,0,0,0-1.83.5,3.92,3.92,0,0,1-2.45.94A9.28,9.28,0,0,1,67.41,42.64Z"/>
  <ellipse class="cls-3" cx="70.35" cy="41.72" rx="2.4" ry="2.08" transform="translate(25.53 110.13) rotate(-87.43)"/>
  <ellipse cx="70.78" cy="41.9" rx="0.84" ry="0.75" transform="translate(25.76 110.74) rotate(-87.43)"/>
  <path d="M45.57,234a5.69,5.69,0,0,0,0,2.85,5.57,5.57,0,0,1,3-3.17s.47-1.1-.48-1.58S45.86,233.31,45.57,234Z"/>
  <path class="cls-5" d="M80.45,92.59a85.89,85.89,0,0,0-2.9,15.34,36.53,36.53,0,0,0,.37,7.74c.35,2.58.76,5.15,1.23,7.73.22,1.29.44,2.58.62,3.89,0,.32.07.66.1,1,0,.17,0,.35,0,.53a1.6,1.6,0,0,1-.14.59,11.3,11.3,0,0,1-1.13,1.69,17.31,17.31,0,0,1-2.8,2.81,11.48,11.48,0,0,1-3.46,1.95,8.66,8.66,0,0,1-7.6-1.3A28,28,0,0,1,59,129.19c-1.71-2-3.27-4.11-4.8-6.24s-3.14-4.17-4.6-6.38c-2.92-4.36-5.65-8.81-8.76-13a60.68,60.68,0,0,0-5-5.92c-.45-.44-.9-1-1.35-1.49a15.74,15.74,0,0,1-1.17-1.64c-.36-.56-.64-1.17-1-1.76s-.52-1.22-.78-1.83a33.73,33.73,0,0,1-1.79-7.71,45.89,45.89,0,0,1-.26-7.86h.1a50.63,50.63,0,0,0,.66,7.78,34.82,34.82,0,0,0,2,7.49A17.1,17.1,0,0,0,36.47,97a52.41,52.41,0,0,1,5.17,6c3.2,4.19,5.89,8.71,8.73,13.08.71,1.1,1.45,2.15,2.21,3.21s1.51,2.15,2.25,3.23c1.49,2.15,2.94,4.32,4.57,6.35A35.88,35.88,0,0,0,62,131.76c.44.48.94.89,1.42,1.34s1,.82,1.55,1.15a9.66,9.66,0,0,0,3.51,1.54,7.09,7.09,0,0,0,3.79-.27,13.22,13.22,0,0,0,5.93-4.77,11.53,11.53,0,0,0,1-1.61c.08-.15,0-.2.06-.35l0-.45c0-.32-.08-.63-.13-1-.22-1.28-.5-2.56-.74-3.84-.49-2.58-1-5.15-1.29-7.77a37.32,37.32,0,0,1-.27-7.91,68.89,68.89,0,0,1,3.58-15.31Z"/>
  <path class="cls-6" d="M57.69,86.39S63,83.7,69.47,88.61,75,110.44,75,110.44s5-2.61,7-.63c0,0-2.38,3.8-8.15,3.4s-7.6-9.25-9.18-12.5-2.53-5.22-6-5.06C58.63,95.65,57.39,94.62,57.69,86.39Z"/>
</svg>
