<svg id="guenivere" xmlns="http://www.w3.org/2000/svg" viewBox="0 0 216 288">
  <defs>
    <style>
      .cls-1 {
        fill: #e784a7;
      }

      .cls-2, .cls-4 {
        fill: #f3c391;
      }

      .cls-2 {
        stroke: #f3c391;
        stroke-linecap: round;
        stroke-linejoin: round;
        stroke-width: 0.5px;
      }

      .cls-3 {
        fill: #fff;
      }

      .cls-5 {
        fill: #999;
      }

      .cls-6 {
        fill: #694018;
      }

      .cls-7 {
        fill: #34281d;
      }

      .cls-8 {
        fill: #9e6429;
      }
    </style>
  </defs>
  <g>
    <path class="cls-1" d="M113,284.5c-5.33,0-5.74-3.33-5.74-4.36,0-3.4,1.28-7.55,4.88-9.11,1.06-.82,3.07-4.57,3.37-6-.51-2.76-4-20.71-6.28-32.42a39.26,39.26,0,0,1-1.43,4.33c-1,2.56-2.34,5.52-3.6,8.39a109.33,109.33,0,0,0-4.22,10.3,3.46,3.46,0,0,0,.22.31,12.49,12.49,0,0,1,2.38,5.58,12.32,12.32,0,0,1-.39,6.13,4,4,0,0,0-.14,2.59,4,4,0,0,1-.49,3.15c-.28.46-1,1.68-3.88,2.62a11.61,11.61,0,0,1-9.25,7.17,43,43,0,0,1-5.78.5c-2.11,0-5.09-.28-6.7-2.67a5.67,5.67,0,0,1-.28-5.59,9.48,9.48,0,0,1,6-5.71l.14-.05a34,34,0,0,0,1.34-5.93c.36-2,.75-4.31,1.33-6.67.41-4.47,3.16-33.54,5.6-40.26,2.37-6.56,5.46-15.32,5.5-15.4a4.25,4.25,0,0,1,.21-.49c.29-1.41.78-3.79,1.43-6.77a208.79,208.79,0,0,1-14.89-37.9,4,4,0,0,1-1.45-3c0-.59,0-1.31,0-2.2a4.5,4.5,0,0,1-3.07-1.42c-1.43-1.38-1.35-3.18-.94-5.39A3.81,3.81,0,0,1,75.73,143a5.22,5.22,0,0,1-.23-4.34,7.55,7.55,0,0,0,.19-.79,8.67,8.67,0,0,0,.09-1.21,8.57,8.57,0,0,1,.42-2.73c.48-1.3,1-2.49,1.43-3.53a27.79,27.79,0,0,1-2.25-1.93,3.51,3.51,0,0,1-.44-4.42c1.71-2.56,5.47-8.16,7.31-10.54a3.66,3.66,0,0,1,.51-.9c.39-.83,1.26-3.47,2.6-7.87a.88.88,0,0,1,0-.15,33,33,0,0,0,1.16-3.91,4.22,4.22,0,0,1,.2-.6A59,59,0,0,1,89,93.29a28.27,28.27,0,0,0,.54-2.86c.17-1,.35-2.17.59-3.35l-.56-7.87c-.35-.52-.63-1-.88-1.45a8.09,8.09,0,0,0-.44-.73c-4.22-5.66-2.31-11-.39-14.55l0-.43a19,19,0,0,0-.78-1.82,31.9,31.9,0,0,1-1.74-4.45A11.9,11.9,0,0,1,88.09,44a13.05,13.05,0,0,1,6.66-3.4,38.76,38.76,0,0,1-3.66-8.46,18.82,18.82,0,0,1-.22-2.07A25.82,25.82,0,0,0,90,24.31a15.55,15.55,0,0,1,.77-9.44A3.49,3.49,0,0,1,91,13.53c1.37-3.25,6.91-7.71,10.4-8.38l.52-.11a19.7,19.7,0,0,1,4.27-.54c5.36,0,10,2.85,13.67,8.48a26.34,26.34,0,0,1,4.72,15.08c3.11.38,7.38.94,9.12,1.31l.83.16c2.82.51,8.06,1.48,11.64,7.41a8.39,8.39,0,0,1,1.12,7.27,7.25,7.25,0,0,1-1.21,2.18,11.62,11.62,0,0,1,1.36,8c-1.05,4.7-3.43,7-5.45,8.14a40.76,40.76,0,0,1-1.65,8.2c-.2.69-.44,1.54-.52,2,.2,1,1.21,4,2,6.49,2.6,7.86,4.58,14.16,4.58,17.82,0,1.67-.62,3.66-8.07,9.62-4.52,3.62-6.83,5.06-8.14,5.63a26.69,26.69,0,0,0-2,2.93c2.26,6.19,5.3,18.51-.5,30.09v8.38c0,.11,0,.22,0,.33a3.28,3.28,0,0,1,0,1.17c-.07.53-1.89,13.14-6.06,29.84.36,4.11.56,7.28.63,8.54,1,2.54,5.5,13.93,6.84,24.7.62,5,1.1,12.23,1.56,19.19.42,6.34,1,14.91,1.51,17.15,2.08,2.46,5.62,7,3.32,11.45-.88,1.69-.68,2.07-.31,2.78a5,5,0,0,1,.08,5.24c-1,1.53-3.45,2.88-5.37,3.73a1.48,1.48,0,0,1-.29.12c-1.24,2.83-3.51,5.38-7.38,5.74-1.12.1-2.29.24-3.42.38A54.32,54.32,0,0,1,113,284.5Zm13.81-200c-1.59,5.52-3,10.13-3.93,13l1.73-.35,4.45-4.45C128.53,90.47,127.68,87.43,126.85,84.47Z"/>
    <path class="cls-1" d="M106.19,8c3,0,7,1.21,10.75,6.91,6,9,3.75,16.2,3.75,16.2s9.65,1.13,12.3,1.68,7.08.83,10.19,6-2,7.08-2,7.08A8.46,8.46,0,0,1,144,53.6c-1.19,5.33-4.3,6.33-5.49,6.52.18,5.7-2.24,10.82-2.24,12.61,0,2.21,6.61,18.75,6.61,24.27,0,2.2-13.23,12.13-14.33,12.13-.74,0-2.93,3.4-4.32,5.69,2.76,6.69,5.73,18.77-.1,29.6v9.23a.73.73,0,0,1-.15.44l.21.56s-1.86,13.06-6.14,30.06c.47,5.35.69,9.27.71,9.62h0s5.38,12.7,6.82,24.33,2.16,36.17,3.52,37.75c1.83,2.14,4.56,5.46,3.24,8-2.71,5.24.94,6.12-.1,7.78-.39.64-2.38,1.75-3.81,2.39a1,1,0,0,1-.34.07.74.74,0,0,1-.76-.71v-1.75s-.3,7.48-5.47,7.95c-3.18.3-6.66.86-8.86.86-1.37,0-2.24-.22-2.24-.86,0-1.66.51-5,2.84-5.93s5.71-7.83,5.42-9.5-7-36.31-8.26-42.25c-.36-1.63-1.1-4.26-2-7.21,0,0-1.38,13.3-4.22,20.34s-7.94,17.49-8.1,19.87,1.9,2.37,2.67,6.64-1.5,5.07-.47,9c.31,1.15-3.72,2-3.72,2s-1.1,5.76-7,6.59a40.47,40.47,0,0,1-5.29.47c-3.15,0-4.8-.85-3.74-3.44,1.55-3.8,4.25-3.45,5.24-4.39,1.94-1.83,2.15-8.07,3.79-14.72,0,0,3-33,5.43-39.64s5.51-15.43,5.51-15.43l.16,0c.28-1.42.94-4.65,1.87-8.86a200.33,200.33,0,0,1-15.67-40.11.5.5,0,0,1-.34.13.52.52,0,0,1-.52-.52A55.9,55.9,0,0,1,85,144.8a1.28,1.28,0,0,1-.54.51,1.6,1.6,0,0,1-.54.09,1.16,1.16,0,0,1-.89-.39,5.78,5.78,0,0,1-1.16,2,1.23,1.23,0,0,1-.83.48,1.2,1.2,0,0,1-.76-.45c-.4-.39.25-3.08.49-4.29s.2-1.71.44-2.79c.11-.5.18-1.49.41-2.56l.07-1.5a29.47,29.47,0,0,1-.71,3.42c-.35,1.11-1.21,2-1.9,2H79c-.72-.15,0-1.59.19-2.86a33.17,33.17,0,0,1,.34-3.32,55.62,55.62,0,0,1,2.6-5.93,24.5,24.5,0,0,1-4.22-3.22s6.44-9.66,7.67-11a.24.24,0,0,1,0-.33c.52-.53,1.81-4.59,3.13-8.93a38,38,0,0,0,1.28-4.3l0,0c.95-3.13,1.78-5.8,2.18-6.6.55-1.09.82-4.31,1.49-7.47L93,77.92a31.63,31.63,0,0,1-1.93-3c-2.57-3.45-2.35-6.73,0-11a3,3,0,0,0,.33-1l-.1-1.46c-.43-1.73-1.77-3.75-2.62-6.65a8.43,8.43,0,0,1,1.84-8.3,9.68,9.68,0,0,1,6.72-2.64,9.9,9.9,0,0,1,3.47.62c1.44.52,2.71,1.05,3.73,1.5l0-.17.18.06a4.49,4.49,0,0,1,2.51,1.34h0l-.4-2.87a.62.62,0,0,1,.42-.53,20.45,20.45,0,0,0-1.22-5.68,8.42,8.42,0,0,1-5.54,2.6,2.81,2.81,0,0,1-1.08-.19c-1.64-.69-4.49-7.68-4.75-9.06s-.08-4.15-1.2-8.12,1.2-8.46,1.2-8.46l.24-.11-.54.11c.88-2.07,5.37-5.83,7.82-6.3A19.74,19.74,0,0,1,106.19,8m12.92,93.76,7.27-1.46,5.41-5.4a3,3,0,0,0,.77-2.88c-1.52-5.73-5.08-18.18-5.08-18.18s-1.1,3.3-2.2,4.41a5.92,5.92,0,0,0-.75,1.6C121.69,90,119,98.08,118.7,99.09a.16.16,0,0,1,0,.11s.15,1.06.45,2.56m-12.87,47.52a15.9,15.9,0,0,0-3.42-.81,21.61,21.61,0,0,1,3.42.81m.4.15.16.06-.16-.06-.16-.06.16.06m5.67,4.27v0h0v0M106.19,1a23,23,0,0,0-5,.62l-.43.1c-4.61.88-11.15,6.15-13,10.45a7.11,7.11,0,0,0-.51,1.95,18.68,18.68,0,0,0-.68,11.14,23,23,0,0,1,.79,5,20.62,20.62,0,0,0,.28,2.49,40.2,40.2,0,0,0,2.06,5.83,15.94,15.94,0,0,0-4.07,2.87A15.45,15.45,0,0,0,82,56.77a35.77,35.77,0,0,0,1.92,4.92l.22.46c-1.65,3.43-3.81,10,1.31,16.91q.12.19.24.42l.5.86.46,6.53c-.2,1.06-.37,2.08-.51,3-.13.76-.29,1.75-.39,2.22a67.34,67.34,0,0,0-2.26,6.77,6.82,6.82,0,0,0-.31,1,30.31,30.31,0,0,1-1,3.52c0,.1-.07.19-.1.29-1.38,4.54-2,6.43-2.33,7.18a7.74,7.74,0,0,0-.48.83c-1.46,1.95-3.86,5.42-7.17,10.38a7,7,0,0,0,.88,8.84l.5.47-.5,1.31a11.86,11.86,0,0,0-.63,3.8c0,.26,0,.62,0,.75s-.08.31-.12.47a8.6,8.6,0,0,0,.63,7.08q.23.36.48.69a7.76,7.76,0,0,0,2.21,6.6,9.1,9.1,0,0,0,2,1.48A7.51,7.51,0,0,0,79.24,158a213.83,213.83,0,0,0,14.34,36.57c-.47,2.17-.84,4-1.09,5.18-.06.15-.12.29-.17.44S89.2,209,86.83,215.56c-2.52,6.94-5.16,34.2-5.78,40.88-.56,2.39-1,4.64-1.3,6.65-.22,1.25-.5,2.81-.75,3.91a12.7,12.7,0,0,0-6.53,7.06,9.1,9.1,0,0,0,.62,8.86c1.88,2.8,5.11,4.22,9.6,4.22A45.29,45.29,0,0,0,89,286.6a14.9,14.9,0,0,0,11.3-7.86,8.87,8.87,0,0,0,4.25-3.41,16.67,16.67,0,0,0-.7,4.81c0,2.92,1.94,7.86,9.24,7.86a54.56,54.56,0,0,0,6.17-.52c1.12-.13,2.27-.27,3.33-.37a12,12,0,0,0,9.6-6.52c4.51-2.16,5.69-4,6.09-4.7a8.19,8.19,0,0,0,.32-8.16.47.47,0,0,1,0-.1c3.06-5.91-.72-11.58-3.15-14.59-.43-2.87-.92-10.27-1.29-15.85-.47-7-.95-14.27-1.59-19.39-1.3-10.49-5.44-21.5-6.85-25-.09-1.47-.27-4.14-.55-7.49,4.11-16.59,5.91-29.09,6-29.63a7.08,7.08,0,0,0,0-1.84v-7.73c5.42-11.52,3.14-23.46.87-30.41l.42-.6a56.6,56.6,0,0,0,8.08-5.71c7.1-5.68,9.38-8.68,9.38-12.35,0-4.19-2-10.48-4.76-18.92-.62-1.89-1.37-4.16-1.73-5.41.09-.31.19-.67.27-1a47.12,47.12,0,0,0,1.6-7.15c2.25-1.72,4.48-4.6,5.56-9.39a14.73,14.73,0,0,0-.79-8.56,10.91,10.91,0,0,0,.53-1.25c.78-2.28,1.17-5.91-1.43-10.22-4.4-7.28-10.89-8.47-14-9l-.75-.15c-1.33-.28-3.92-.65-6.46-1a30.84,30.84,0,0,0-5.18-13.91c-5.49-8.31-12-10-16.59-10Zm-2.3,254.05c.81-2.13,2.4-5.75,3.55-8.34l.72-1.63c1.63,8.4,3.22,16.67,3.79,19.67a16.59,16.59,0,0,1-1.88,3.41,10.78,10.78,0,0,0-4.5,4.55,7.38,7.38,0,0,0-.1-3.4,1,1,0,0,0,0-.15c0-.14.1-.4.16-.6a16.79,16.79,0,0,0-1.71-13.51Z"/>
  </g>
  <path class="cls-2" d="M94.53,14.89s-2.32,4.49-1.2,8.46.94,6.74,1.2,8.12,3.11,8.37,4.75,9.06,5-.6,6.62-2.41c0,0,1.58,4.14,1.15,7s14,4.45,14,4.45V35.27l-4.92-14.33-11-11.14Z"/>
  <path class="cls-3" d="M107.1,47.2a58.72,58.72,0,0,0-6.37-2.73,9.86,9.86,0,0,0-10.19,2,8.43,8.43,0,0,0-1.84,8.3c1.28,4.36,3.69,6.75,2.39,9.12-2.35,4.3-2.57,7.58,0,11,1.47,2,2.21,6.62,2.21,6.62s0,11-1.11,13.23-5.51,18.75-6.61,19.85,7.72,2.21,7.72,2.21,5.51-11,7.72-17.65h17.64s5.51-19.85,6.62-21,2.2-4.41,2.2-4.41S131,86.29,132.56,92a3,3,0,0,1-.77,2.88l-5.41,5.4-11,2.21,7.72,14.34s4.41-7.72,5.52-7.72S142.92,99.2,142.92,97c0-5.52-6.61-22.06-6.61-24.27s3.68-9.49,1.63-16.66c-1.1-3.84-1.29-5.25-3.5-6.35a8.34,8.34,0,0,0-6.42-.35c-3.43,1-3.82.23-5.17-1.12a19.72,19.72,0,0,1-4-3.86.45.45,0,0,0-.44-.23c-.83.09-3.24.34-5.08.45a16.25,16.25,0,0,1-5.84-.82.62.62,0,0,0-.81.54Z"/>
  <path class="cls-4" d="M85.28,153.51A200.13,200.13,0,0,0,100.61,193c.82,1.61,1.69,3.25,2.59,4.89,12.85,23.46,15.6-3.49,15.6-3.49s-1.73-32.17-6.45-40.62S86.24,147.38,85.28,153.51Z"/>
  <path class="cls-4" d="M124.23,154.65S120,184.22,109.7,212.29l-10.78-9s7.18-36.65,13.66-50.16S124.23,154.65,124.23,154.65Z"/>
  <path d="M90.29,101.43s9.62-5.54,19.55-4.43,8.82,2.2,8.82,2.2,1.1,7.72,3.31,11,9.92,19.85,2.2,34.19v9.23a.73.73,0,0,1-.69.74c-2,.14-7.69.33-10.88-.6-1.07-.31-1.11-1.1-1.11-1.1s-5-6.07-14.89-3.86c-6.83,1.52-10,3.56-11.32,4.68a.52.52,0,0,1-.86-.39,71.51,71.51,0,0,1,1.71-14.77S86.43,110.8,90.29,101.43Z"/>
  <path d="M123.07,48.47s2.21,18.75,0,27.57-8,21.69-8,21.69l3.64,1.47s3.31-9.92,6.62-22.06c.7-2.56.27-18.82.08-25.1a4.15,4.15,0,0,0-2.29-3.57Z"/>
  <path d="M104.41,45.8s4.33,14.8,3.22,24.73-4.8,26.65-4.8,26.65l2.55-.27s4.46-20.87,4.46-26.38A168.6,168.6,0,0,0,108,48.85a4,4,0,0,0-3.39-3Z"/>
  <path class="cls-4" d="M87.3,127.56s2,8.06,1,11.1-2,3-2,3-.82,3.34-1.77,3.68a1.24,1.24,0,0,1-1.43-.3,5.78,5.78,0,0,1-1.16,2c-.78.81-1.19.42-1.59,0s.25-3.08.49-4.29.2-1.71.44-2.79c.11-.5.18-1.49.41-2.56l.07-1.5a29.47,29.47,0,0,1-.71,3.42c-.38,1.19-1.35,2.09-2.06,2s0-1.59.19-2.86a33.17,33.17,0,0,1,.34-3.32,49.75,49.75,0,0,1,3.61-7.78"/>
  <path class="cls-3" d="M93.3,81.83s0,11-1.11,13.24-5.51,18.74-6.61,19.85-7.72,11-7.72,11,6.61,6.62,13.23,5.52l2.21-14.34s5.51-11,7.72-17.64,2.2-21,2.2-23.16"/>
  <path class="cls-5" d="M91.27,60.76c.5,2.2.88,4.42,1.22,6.65s.6,4.46.83,6.7.35,4.5.36,6.75a33,33,0,0,1-.52,6.74,47.26,47.26,0,0,0,.11-6.73c-.09-2.24-.24-4.48-.48-6.71s-.44-4.47-.7-6.7Z"/>
  <path class="cls-5" d="M101.73,97.34a42.68,42.68,0,0,0,1-5.73c.22-1.92.42-3.85.54-5.79s.25-3.87.35-5.81l.3-5.83c.11,1.95.13,3.89.11,5.84s-.12,3.89-.24,5.84-.35,3.88-.66,5.81A28.34,28.34,0,0,1,101.73,97.34Z"/>
  <path class="cls-6" d="M103.2,197.54a5.76,5.76,0,0,1,4-6.41c9.14-3.33,11.63,3.2,11.63,3.2s5.38,12.7,6.82,24.33,2.16,36.17,3.52,37.75c1.83,2.14,4.56,5.46,3.24,8-2.71,5.24.94,6.12-.1,7.78-.39.64-2.38,1.75-3.81,2.39a.77.77,0,0,1-1.1-.64v-1.75s-.3,7.48-5.47,7.95-11.1,1.67-11.1,0,.51-5,2.84-5.93,5.71-7.83,5.42-9.5-7-36.31-8.26-42.25S103.2,197.54,103.2,197.54Z"/>
  <path class="cls-6" d="M108.82,215.25s-1.38,13.3-4.22,20.34-7.94,17.49-8.1,19.87,1.9,2.37,2.67,6.64-1.5,5.07-.47,9c.31,1.15-3.72,2-3.72,2s-1.1,5.76-7,6.59c-6.3.89-10.58.83-9-3s4.25-3.45,5.24-4.39c1.94-1.83,2.15-8.07,3.79-14.72,0,0,3-33,5.43-39.64s5.51-15.43,5.51-15.43a12.31,12.31,0,0,1,6.34,0C108.47,203.47,108.82,215.25,108.82,215.25Z"/>
  <path class="cls-7" d="M94.23,14.89s4.61-1.06,7.26-.6a8.61,8.61,0,0,1,4.11,2.42,33.21,33.21,0,0,1,4.09,6.73s3.2-4.2,4-1.38c.52,1.9.21,4.19-1,5.26a15,15,0,0,0-1.94,2.29s-.13,5.6,3,6.33c0,0-3,3.36,2.82,10.52s9.62,5.72,11,8.63,1.22,8.18,1.22,8.18,4.7,2.66,9.32-3.11c0,0,4.47.09,6-6.56a8.46,8.46,0,0,0-2.85-7.77s5.09-1.94,2-7.08-7.54-5.4-10.19-6-12.3-1.68-12.3-1.68,2.22-7.16-3.75-16.2-12.43-6.79-14.89-6.32S95.11,12.82,94.23,14.89Z"/>
  <path class="cls-8" d="M118.78,194.37c-.48-6.86-1.16-13.72-2-20.54-.49-3.4-1-6.8-1.65-10.17l-.51-2.53c-.16-.84-.41-1.66-.59-2.5a29,29,0,0,0-1.66-4.86l.05,0c.36.78.83,1.52,1.12,2.34s.63,1.61.84,2.45c.51,1.65.88,3.34,1.27,5,.66,3.39,1.15,6.81,1.55,10.23q1.2,10.28,1.68,20.59Z"/>
</svg>
