<svg xmlns="http://www.w3.org/2000/svg" viewBox="0 0 216 288">
  <defs>
    <style>
      .cls-1 {
        fill: #e784a7;
      }

      .cls-2 {
        fill: #999;
      }

      .cls-3 {
        fill: #fff;
      }

      .cls-4 {
        fill: #34281d;
      }

      .cls-5, .cls-6 {
        fill: #f3c391;
      }

      .cls-5 {
        stroke: #f3c391;
        stroke-linecap: round;
        stroke-linejoin: round;
        stroke-width: 0.5px;
      }

      .cls-7 {
        fill: none;
      }

      .cls-8 {
        fill: #694018;
      }

      .cls-9 {
        fill: #9e6429;
      }
    </style>
  </defs>
  <g id="arthur">
    <g>
      <path class="cls-1" d="M99.39,284.5a14.62,14.62,0,0,1-5.89-1.19,9.26,9.26,0,0,1-5.54-8,56.67,56.67,0,0,1,0-6.35c.08-1.34.15-2.26.22-2.93a3.71,3.71,0,0,1-1.2-1.81c0-.12-.1-.27-.16-.46a18.13,18.13,0,0,1-.92-3.41,25.27,25.27,0,0,1,.27-5.39c.13-1.12.26-2.28.26-2.95a20,20,0,0,0-.94-4.44l-.06-.23s-2.07-8.25-5-20.4c-2.45-10-2.37-16.42-2.21-18.82a44.57,44.57,0,0,1-1.93-6.7c-1.87-8.53-.62-19.71-.18-23-3.24-8.73-4.25-21.63-4.46-32.2h-.42a7.48,7.48,0,0,1-2.64-.49l-.75,4c.33,1.52,1.09,5.15,1.38,7.19a10.77,10.77,0,0,1-.23,3.37,16,16,0,0,0-.25,1.81c0,.34,0,.79,0,1.23.07,1.49.16,3.34-1.19,4.76a4,4,0,0,1-2.18,1.17c0,2.38-.33,5.59-2.38,6.87a5.21,5.21,0,0,1-2.82.92A4.79,4.79,0,0,1,56,174.45a9.66,9.66,0,0,1-.69-1.36,5.38,5.38,0,0,1-1.14-.54c-.7-.43-2.47-1.52-2.88-6.82A12.14,12.14,0,0,1,49.39,160c-.3-2.42.44-5.87,2.25-10.56a3.49,3.49,0,0,1,.39-.74c0-.14.13-.34.2-.55l-1.1-17.35a2.61,2.61,0,0,1,0-.28c.16-9.68,1.77-20,2.73-26.22.36-2.32.67-4.33.73-5.17.21-3.22,4.79-37.23,5.58-40.65.55-2.39,2.63-4.23,4.83-5.54a3.5,3.5,0,0,1,2.17-5.34,10.91,10.91,0,0,0,5-2.82A104.14,104.14,0,0,1,80.88,37a12.57,12.57,0,0,1-1.24-2.76c-.08-.24-.17-.49-.27-.76-1.08-3-1-5.21.17-7.47-.07-.23-.13-.47-.18-.7a3.21,3.21,0,0,1-.1-.81c0-2.75.38-11.93,5.27-14.75a4.06,4.06,0,0,0,1.25-1c1.8-2,3.5-2.95,9.31-3.34.85-.06,1.65-.09,2.38-.09a11.91,11.91,0,0,1,6,1.21A6.12,6.12,0,0,1,107.16,8c.71.6,5.59,5.43,5.91,8.58a1,1,0,0,0,0,.1,4.46,4.46,0,0,1,.51,2,50,50,0,0,1-1,5.15c1.28,2.68.53,7.7.13,8.86l-.19.54a9.82,9.82,0,0,1-.55,1.43c5.35,4.28,12.75,11.66,13.12,12a3.49,3.49,0,0,1,1,3.07l2.94,1.85,2.54.55a3.51,3.51,0,0,1,2.75,3.47c-.07,4.66.42,10.7,1.26,12.28,1.9,3.56,5.36,25.19,6.77,34.46.21.92,1.49,6.89,3,16.11,1.32,8.09,1,10.09.18,11.32l-3.15,13.37c.94,4.26,2.58,12.76,1.59,16.09a13,13,0,0,1-3.1,5.87c-1.4,5.68-3.41,6.49-4.2,6.82a6,6,0,0,1-1.46.4,10.14,10.14,0,0,1-1.07,1.47,5.14,5.14,0,0,1-3.77,2c-.32,2.46-.63,4.53-.83,5.83,1.75,3,1.78,7.22,1.6,9.77a10.07,10.07,0,0,1,3.17,6.44,9.43,9.43,0,0,1-2.26,6.61c-.28,2.92-1.05,11.05-1.79,18.94a116.65,116.65,0,0,1-3.91,20,28.62,28.62,0,0,0,0,3.57,19,19,0,0,1,.08,4.17,42,42,0,0,0,1,4.57,37.06,37.06,0,0,0,4.38,9.24l.21.32c.4.74,2.41,4.56,1.64,8.18-1,4.58-3.55,6.53-8.65,6.53h-.35c-3.7,0-4.81,0-7.56-1.28-3.25-1.52-5.19-4.84-5.33-9.12a6.31,6.31,0,0,0-.15-1.13l-.46-1.8a4,4,0,0,1-2-1.68L108,263c0,.3,0,.61,0,.91a13.5,13.5,0,0,0,.37,4.33,43.59,43.59,0,0,1,2,7.47,6.09,6.09,0,0,1-.84,4.6c-1.37,2.14-4,3.49-7.69,4A18,18,0,0,1,99.39,284.5ZM105,251a23.51,23.51,0,0,1,2.31,6.1c.29-2.68.64-6.52.61-7.43a12,12,0,0,1,.33-3.62,12,12,0,0,0,.26-1.64,8.62,8.62,0,0,1,.45-3.9,7.68,7.68,0,0,0,.2-.8c0-1.12-.7-8.68-1.39-10.58-.86-2.36-.7-10.75-.34-18.26a8.26,8.26,0,0,1-3.56-5.33,13.18,13.18,0,0,1-2.39,4.51c.34,2.6,1,7.67,1.81,13,1.17,7.9,1.62,25.34,1.64,26.08Zm-1.74-61.81a14.57,14.57,0,0,1,1,2.72,22.82,22.82,0,0,0,.61-2.58,4.25,4.25,0,0,0-1-2.49A15.32,15.32,0,0,1,103.21,189.15Z"/>
      <path class="cls-1" d="M97.47,8.72c5.51,0,4.78,1.87,4.77,1.89h0a1.15,1.15,0,0,1,1-.68,2.65,2.65,0,0,1,1.64.79c2,1.7,4.68,5.42,4.68,6.22s.54,1.44.54,1.76c0,.13-1.05,5.62-1.39,6.45-.07.18-.12.25-.17.25s-.11-.14-.14-.36c0,.24-.09.5-.13.73.24-.29.58-.62.88-.62a.4.4,0,0,1,.31.16c.53.64.53,4.72,0,6.25s-.59,2.38-1.89,2.38h0c0,.51-.12,1-.23,1.65,4.78,3.05,15.33,13.6,15.33,13.6L121.55,51l6.18,3.89,3.14.69s-.16,10.54,1.67,14S139,103,139,103s1.37,6.18,3,16c1.35,8.31.75,9,.53,9a.14.14,0,0,1-.07,0l-3.57,15.16s2.73,12.05,1.83,15.12c-1.38,4.66-2.83,4.68-2.86,4.68h0s-1,5.18-2.42,5.76a2.36,2.36,0,0,1-.91.19,1.8,1.8,0,0,1-1.3-.53,8.73,8.73,0,0,1-1.62,3.14,1.79,1.79,0,0,1-1.27.79,1.85,1.85,0,0,1-1.15-.63c-.64-.56-.32-4.84.42-6.59.51-1.21,1.32-3.82,1.78-5.33a3.82,3.82,0,0,0,0-2.27l-.89-2.92s-.78,3.5-1.27,5.35a6.47,6.47,0,0,1-1,2.21c-.37,8.77-2.28,20.39-2.28,20.39,2.75,2.75,1.6,10.31,1.6,10.31,4.47,3.46,4.07,7.27,1.21,10.17h0s-1,10.23-1.9,20.09a115.33,115.33,0,0,1-3.9,19.7,32.52,32.52,0,0,0,0,4.81,19.33,19.33,0,0,1,0,3.67,50.06,50.06,0,0,0,1.15,5.5,39.94,39.94,0,0,0,4.86,10.2s1.81,3.23,1.28,5.75-1.33,3.75-5.23,3.75h-.35c-3.57,0-4.07,0-6.08-1-2.81-1.32-3.26-4.54-3.32-6.06a8.43,8.43,0,0,0-.25-1.88l-1.57-6.17L113.1,263a.51.51,0,0,1-.51.42.52.52,0,0,1-.45-.26l-1.5-2.5a1.4,1.4,0,0,1-.19-.94,100.3,100.3,0,0,0,.9-10.44c-.18-1.38.8-4,.57-5.37s.69-2.94.69-4.16-.69-9.32-1.6-11.84,0-19.48,0-19.48c-5-.69-3.9-7.1-4.36-9.62s1.38-6.87,1.61-9.17-.92-4.12-4.13-8.47c-2.28-3.1-2.24-7.24-2-9.36-.82,4.84-2.55,5.23-2.55,5.23,2.52,7.56-.23,12.38-.23,12.38,3.21,4.35,2.75,16.49-1.6,19.24,0,0,.91,7.1,2.06,14.89s1.6,25.67,1.6,25.67l.11,2.83c1.91,2.69,2.74,7.39,2.87,8.51.35,2.81-.32,6.68.78,9.14a44.87,44.87,0,0,1,1.76,6.8s1.06,3.46-5.59,4.37a13.16,13.16,0,0,1-1.92.14,11.14,11.14,0,0,1-4.5-.9,5.81,5.81,0,0,1-3.43-5,52.93,52.93,0,0,1,0-5.95c.23-3.9.42-4,.38-5.38a.4.4,0,0,0-.42-.41H91.3c-.15,0-.36.05-.54.05s-.42-.05-.47-.23a19.28,19.28,0,0,1-1-3.29c-.23-1.83.55-5.84.55-7.9a24.09,24.09,0,0,0-1.11-5.51s-2.06-8.25-5-20.4-2-18.54-2-18.54a35.81,35.81,0,0,1-2.07-6.89c-2.06-9.39,0-22.68,0-22.68-4.64-11.51-4.77-32.44-4.55-42.18q.08-3.15-.13-6.32l-.2,1.76L73,139.69s2,3-1.83,3h0a4.71,4.71,0,0,1-3.63-2c-.32-.42-.06-.52-.06-.52l-1.19-1.48-2.08,11s1.13,5.15,1.48,7.63c.16,1.12-.42,2.76-.5,4.53s.42,3.88-.57,3.88h0c-1,0-1.65-1.35-1.81-3.06s-.34-4.92-.34-4.92l-1.22,2.46a3.45,3.45,0,0,0-.33,2c.19,1.4.53,3.83.8,5,.39,1.66.06,5.49-.6,5.89a1.94,1.94,0,0,1-1,.4c-.35,0-.73-.22-1.14-.89a7.81,7.81,0,0,1-1-3,1.61,1.61,0,0,1-1,.3,2,2,0,0,1-1.06-.32c-1.17-.72-1.29-5.44-1.29-5.44s-1.3-.19-1.84-4.56c-.27-2.17.85-5.78,2-8.87a8.78,8.78,0,0,0,.86-2.12l-1.13-18c.22-13.29,3.22-27.78,3.45-31.22s4.81-37.12,5.5-40.09S71.14,54,71.14,54l-3.21-3a14.51,14.51,0,0,0,6.81-3.9c2.41-2.67,9.56-8.45,11-9.63,0-.34-.12-.68-.15-1s0-.41-.06-.61h-.18c-1.65,0-1.88-1.34-2.7-3.61s-.64-3.51,0-4.68c.11-.2.24-.28.37-.28.68,0,1.6,2,1.6,2l.91,6.61c-.63-6.1-.67-4.54-1.08-7.87h0c-.84,0-1.69-3.52-1.69-3.52s0-9.69,3.52-11.71,1.17-3.41,9-3.94c.81-.05,1.52-.08,2.15-.08M107.74,31l0-.68,0,.68M88.34,46,89,44.81h0c-.22.4-.42.79-.61,1.19M67.56,133.16l.83-1.72s1.15-4.81,1.78-7,0-16.15,0-16.15-3.61,14-3.61,17.41a75.14,75.14,0,0,0,1,7.45m60.32,17.58c1-2.74,3.78-8.61,3.78-8.61l-1.47-12.85-2.84,3.07c.06,5.64.3,12.76.53,18.39M97.47,1.72h0c-.81,0-1.69,0-2.62.1-6.19.41-9,1.51-11.69,4.51l-.22.24h0l-.16.1c-6.11,3.52-7,12.65-7,17.78a6.2,6.2,0,0,0,.1,1.14,12.3,12.3,0,0,0,.22,9c.09.26.18.5.25.73l.24.64a83.87,83.87,0,0,0-7,6.44,7.52,7.52,0,0,1-3.16,1.76,6.88,6.88,0,0,0-5.27,4.93,6.68,6.68,0,0,0-.22,2.43,11.28,11.28,0,0,0-4.13,6.14c-.85,3.67-5.44,37.77-5.66,41.21-.05.69-.38,2.81-.7,4.86-1,6.27-2.6,16.78-2.77,26.7a5.19,5.19,0,0,0,0,.56l1,16.48a5.93,5.93,0,0,0-.31.68c-2,5.32-2.83,9.21-2.45,12.25a17,17,0,0,0,1.95,6.46c.64,5.63,2.8,7.62,4.46,8.64l.37.22c.1.18.2.37.32.55a8.28,8.28,0,0,0,7.09,4.2,8.6,8.6,0,0,0,4.66-1.45c2.68-1.66,3.66-4.72,4-7.5a7.91,7.91,0,0,0,1.3-1.09,2.62,2.62,0,0,0,.22-.25,60.69,60.69,0,0,0,2.21,8.54c-.53,4.28-1.52,15,.33,23.38a51.72,51.72,0,0,0,1.81,6.5c-.13,3.13,0,9.6,2.35,19.1,3,12,5,20.34,5,20.42s.08.3.13.45a18.66,18.66,0,0,1,.77,3.39c0,.45-.14,1.65-.24,2.53a27.21,27.21,0,0,0-.26,6.22,20.81,20.81,0,0,0,1.08,4.13l.13.35a7,7,0,0,0,.93,1.95c0,.45-.07,1-.11,1.55a61.47,61.47,0,0,0,0,6.74,12.75,12.75,0,0,0,7.62,11.06,18.21,18.21,0,0,0,7.3,1.48,21.79,21.79,0,0,0,2.88-.2c4.79-.66,8.21-2.54,10.16-5.59a11,11,0,0,0,.89-1.74,11.6,11.6,0,0,0,2.27,1.39c3.45,1.61,5.2,1.61,9,1.61H125c6.72,0,10.78-3.13,12.08-9.31,1-4.72-1.3-9.31-2-10.61a6.9,6.9,0,0,0-.43-.67,34.17,34.17,0,0,1-3.88-8.25c-.2-.62-.52-2.25-.77-3.67a21.14,21.14,0,0,0-.13-4.47c0-.44,0-1.5,0-2.52a122.09,122.09,0,0,0,3.92-20.24c.66-7.14,1.36-14.48,1.7-18a12.82,12.82,0,0,0,2.35-8.14,13.07,13.07,0,0,0-3.08-7.46,20.88,20.88,0,0,0-1.55-9.12c.11-.7.23-1.52.35-2.42a9.5,9.5,0,0,0,3.26-2.47c.2-.23.39-.47.57-.7.21-.08.43-.15.64-.24,1.86-.76,4.41-2.46,6-8.3a18,18,0,0,0,3.3-6.64c.89-3,.43-8.74-1.36-17.05l2.86-12.12c1.35-2.6,1.12-6.16,0-13.16-1.46-9-2.73-14.94-3-16.19-3.12-20.35-5.5-32.25-7.08-35.37-.53-1.38-1-6.44-.9-10.68a7,7,0,0,0-5.5-6.94l-1.94-.42-.88-.55a7,7,0,0,0-1.91-3.56c-.83-.82-6.44-6.41-11.46-10.67.42-1.49,1.29-6.19.13-10a35.27,35.27,0,0,0,.81-4.91,7.78,7.78,0,0,0-.68-3.12c-1-4.94-7-10.16-7-10.22A9.86,9.86,0,0,0,104.49,3a16.18,16.18,0,0,0-7-1.3Z"/>
    </g>
    <polygon class="cls-2" points="88.46 40.5 89.89 53.04 106.5 51.92 105.86 35.84 88.46 40.5"/>
    <path class="cls-3" d="M105.44,40.5s-1.17,9.51-8.36,10S89,44.72,89,44.72L71.86,78.1l1,50.14,59.55-.64L122.62,66,109.85,41.7Z"/>
    <path class="cls-4" d="M91.46,275.08a5.81,5.81,0,0,0,3.43,5,11.74,11.74,0,0,0,6.42.76c6.65-.91,5.59-4.37,5.59-4.37a44.87,44.87,0,0,0-1.76-6.8c-1.1-2.46-.43-6.33-.78-9.14-.13-1.12-1-5.82-2.87-8.51l-.11-2.83s-.45-17.88-1.6-25.67-2.06-14.89-2.06-14.89l-16-1.13s-.93,6.4,2,18.54,5,20.4,5,20.4A24.09,24.09,0,0,1,89.89,252c0,2.06-.78,6.07-.55,7.9a19.28,19.28,0,0,0,1,3.29c.09.33.68.21,1,.18a.41.41,0,0,1,.49.41c0,1.39-.15,1.48-.38,5.38A52.93,52.93,0,0,0,91.46,275.08Z"/>
    <path class="cls-4" d="M115,267.58a8.43,8.43,0,0,1,.25,1.88c.06,1.52.51,4.74,3.32,6.06,2.08,1,2.54,1,6.43,1s4.7-1.23,5.23-3.75-1.28-5.75-1.28-5.75a39.94,39.94,0,0,1-4.86-10.2,50.06,50.06,0,0,1-1.15-5.5,19.33,19.33,0,0,0,0-3.67,32.52,32.52,0,0,1,0-4.81,115.33,115.33,0,0,0,3.9-19.7c.91-9.86,1.9-20.09,1.9-20.09L111,208.42s-.92,17,0,19.48,1.6,10.62,1.6,11.84-.92,2.75-.69,4.16-.75,4-.57,5.37a100.3,100.3,0,0,1-.9,10.44,1.4,1.4,0,0,0,.19.94l1.5,2.5a.52.52,0,0,0,1-.16l.31-1.58Z"/>
    <path d="M75.07,135.77c-.22,9.74-.09,30.67,4.55,42.18,0,0-2.06,13.29,0,22.68s3.89,9.17,3.89,9.17,9.85,1.6,14.21-1.15,4.81-14.89,1.6-19.24c0,0,2.75-4.82.23-12.38,0,0,2.06-.45,2.75-6.64,0,0-1.37,6.41,1.83,10.77s4.36,6.18,4.13,8.47-2.06,6.65-1.61,9.17-.68,8.93,4.36,9.62,12.6-1.37,16.49-4.35,5-7.33,0-11.23c0,0,1.15-7.56-1.6-10.31,0,0,2.11-16.71,2.29-25.2.31-14.16,1.14-33.08-.46-34.37-.64-.52-.78-1.29-2.22-1.72a11.48,11.48,0,0,0-6.52.06,81.11,81.11,0,0,1-18.29,3.15c-12.83.8-20.85-2.86-24.06-2-1.87.54-2,3.18-1.83,5.29A68.57,68.57,0,0,1,75.07,135.77Z"/>
    <path class="cls-4" d="M137.33,140.72s3.72,12.17,2.33,16.88-2.86,4.69-2.86,4.69-1,5.17-2.42,5.75a1.91,1.91,0,0,1-2.21-.34,8.74,8.74,0,0,1-1.62,3.15c-1.13,1.29-1.77.72-2.42.16s-.32-4.85.42-6.6c.51-1.2,1.32-3.81,1.78-5.32a3.82,3.82,0,0,0,0-2.27l-.89-2.93s-.78,3.5-1.27,5.36-1.45,3.21-2.56,3-.16-2.42.08-4.38-.1-3.88.27-5.09a75.57,75.57,0,0,1,4.92-12.16"/>
    <path class="cls-4" d="M57.39,145s-5.07,10.2-4.53,14.57,1.84,4.56,1.84,4.56.12,4.72,1.29,5.44a1.72,1.72,0,0,0,2,0,7.81,7.81,0,0,0,1,3c.81,1.3,1.46.9,2.11.49s1-4.23.6-5.89c-.27-1.13-.61-3.56-.8-5a3.45,3.45,0,0,1,.33-2l1.22-2.46s.18,3.21.34,4.92.81,3,1.81,3.06.5-2.11.58-3.88.66-3.41.5-4.53a67.67,67.67,0,0,0-2.57-11.47"/>
    <path class="cls-5" d="M84.63,29.23s-1.33-2.85-2-1.68-.85,2.34,0,4.68,1.07,3.71,2.88,3.61Z"/>
    <path class="cls-5" d="M108,26.17s1-1.49,1.49-.86.53,4.72,0,6.25-.59,2.38-1.89,2.38Z"/>
    <path class="cls-2" d="M100.4,123.29l-.13-8.19,0-4.1c0-.68,0-1.37,0-2s-.2-1.33-.3-2c-.9-5.38-1.81-10.78-2.8-16.14-.43-2.74-.62-5.44-.91-8.16s-.53-5.44-.76-8.16l-.33-4.09A20.89,20.89,0,0,1,95,66.3c.32-2.72.74-5.42,1.16-8.12-.33,2.71-.67,5.43-.9,8.14a20.49,20.49,0,0,0,.17,4.06l.4,4.08.83,8.15c.3,2.7.51,5.45.95,8.11,1,5.39,1.86,10.77,2.68,16.18.09.68.2,1.34.27,2s0,1.37,0,2l0,4.1Z"/>
    <path class="cls-2" d="M97.74,65.7a1.15,1.15,0,0,1-1.16-1.1,1.17,1.17,0,0,1,1.16-1.22,1.16,1.16,0,1,1,0,2.32Zm0,0a1,1,0,0,0,1-1.1,1,1,0,0,0-2.07,0A1.06,1.06,0,0,0,97.74,65.7Z"/>
    <path class="cls-2" d="M97.74,76.56a1.15,1.15,0,0,1-1.16-1.1,1.17,1.17,0,0,1,1.16-1.22,1.16,1.16,0,1,1,0,2.32Zm0,0a1,1,0,0,0,1-1.1,1,1,0,0,0-2.07,0A1.06,1.06,0,0,0,97.74,76.56Z"/>
    <path class="cls-2" d="M98.83,85.46a1.15,1.15,0,0,1-1.16-1.09,1.18,1.18,0,0,1,1.16-1.22A1.17,1.17,0,0,1,100,84.37,1.15,1.15,0,0,1,98.83,85.46Zm0,0a1,1,0,0,0,1-1.09,1,1,0,1,0-1,1.09Z"/>
    <path class="cls-2" d="M100.4,95.6a1.16,1.16,0,1,1,1.16-1.1A1.17,1.17,0,0,1,100.4,95.6Zm0,0a1.05,1.05,0,0,0,1-1.1,1,1,0,1,0-1,1.1Z"/>
    <path class="cls-2" d="M102.11,105a1.16,1.16,0,1,1,1.16-1.1A1.17,1.17,0,0,1,102.11,105Zm0,0a1,1,0,0,0,0-2.07,1,1,0,0,0-1,1A1,1,0,0,0,102.11,105Z"/>
    <path class="cls-2" d="M102.81,115.56a1.15,1.15,0,0,1-1.16-1.1,1.16,1.16,0,1,1,2.31,0A1.15,1.15,0,0,1,102.81,115.56Zm0,0a1,1,0,0,0,1-1.1,1,1,0,0,0-2.07,0A1.06,1.06,0,0,0,102.81,115.56Z"/>
    <path class="cls-2" d="M98.33,50.3c.63,2.14,1.21,4.28,1.79,6.43l-.14,0c.94-.71,1.86-1.44,2.75-2.2s1.81-1.51,2.66-2.31a24.36,24.36,0,0,0,2.42-2.56,5.4,5.4,0,0,0,1.5-3.1,3.19,3.19,0,0,1-.43,1.7,9,9,0,0,1-1,1.49,26.89,26.89,0,0,1-2.39,2.61,48.84,48.84,0,0,1-5.44,4.52l-.11.08,0-.13C99.39,54.62,98.83,52.47,98.33,50.3Z"/>
    <path class="cls-2" d="M97.08,50.48c-.76,2.28-1.61,4.52-2.42,6.78l0,.11-.11,0a18.77,18.77,0,0,1-4.44-2.63,9.86,9.86,0,0,1-1.81-1.84,5,5,0,0,1-1-2.37,5.13,5.13,0,0,0,1.09,2.29,9.31,9.31,0,0,0,1.83,1.77A16.78,16.78,0,0,0,92.32,56c.74.41,1.5.82,2.28,1.16l-.15.06C95.32,55,96.16,52.7,97.08,50.48Z"/>
    <path class="cls-6" d="M54.54,130.33l1.87,16.76s2.38-1.18,7.34,1l3.7-15.69S60.51,129.09,54.54,130.33Z"/>
    <path class="cls-6" d="M128.63,124.76l1.87,16.75s2.38-1.17,7.33,1l3.7-15.69S134.6,123.51,128.63,124.76Z"/>
    <g>
      <path class="cls-7" d="M67.54,133.15l-.24-.09Z"/>
      <path class="cls-7" d="M66.68,124.23h0a2.73,2.73,0,0,1,.42,2.27,4.1,4.1,0,0,1-.38,1.22v0a1.86,1.86,0,0,1,.31,2c0,.17,0,.35.08.52.71,1.55.71,1.88.6,2.2l.67-1.08s1.15-4.81,1.78-7,0-16.15,0-16.15S67.41,120.07,66.68,124.23Z"/>
      <path class="cls-8" d="M142.56,125.11a3.44,3.44,0,0,0-.23-3.11c1.34-2.44-.44-3.23-.44-3.23h0C140.31,109.09,139,103,139,103s-4.58-30-6.42-33.45-1.67-14-1.67-14l-3.14-.69-5.17-3.25a1.21,1.21,0,0,1-.38-1.66h0l.51-.82S107.9,34.75,105.51,34.75c-1.81,0-9.64,1.09-14.8,1.83L86,37.27s-8.6,6.87-11.29,9.85A14.51,14.51,0,0,1,67.93,51l3.21,3s-6.87,2.29-7.56,5.27-5.27,36.65-5.5,40.09C57.89,102.15,55.91,111,55,122l-.06.41s-1.33,2.31-.66,3.67a1.32,1.32,0,0,1,.1,1,2.4,2.4,0,0,0,.12,2v.05c-.08.12-.78,1.25-.43,1.61a.61.61,0,0,0,.37.08c1,0,3.89-.54,6.57.17a58.24,58.24,0,0,1,6.29,2.13l-1.65,4.12a11.41,11.41,0,0,0,1.87,3.52,4.68,4.68,0,0,0,3.63,2,3.26,3.26,0,0,0,3.6-3.5l.93-7.75,3.72-42.37s.23-16.5.92-23.14,7.1-12.6,7.1-16.5,5.27-9.85,5.27-9.85L102.81,37c-.57-1,9,10.23,11.63,22.45,2.34,10.68,6.32,27.5,6.32,27.5l4.86,34.29,1.44,5.44.09.76a4.65,4.65,0,0,0,.31,1.22l.09.22a1,1,0,0,0,1.13.64,3.41,3.41,0,0,0,1.35-.48,7.26,7.26,0,0,1,5-2.91c3.19-.4,5.36,1.31,6.76,1.62.38.09,1.05.28,1.17,0C143.54,126.72,142.56,125.11,142.56,125.11Zm-75.26,8,.24.09Zm2.87-8.61c-.63,2.18-1.78,7-1.78,7l-.67,1.08c.11-.32.11-.65-.6-2.2,0-.17-.05-.35-.08-.52a1.86,1.86,0,0,0-.31-2v0a4.1,4.1,0,0,0,.38-1.22,2.73,2.73,0,0,0-.42-2.27h0c.73-4.16,3.49-15.91,3.49-15.93h0S70.81,122.28,70.17,124.45Z"/>
    </g>
    <path class="cls-9" d="M67.93,51a39.19,39.19,0,0,1,6,4.71,18.11,18.11,0,0,1,2.47,2.91,6.75,6.75,0,0,1,1.34,3.61v.18l-.19,0a37,37,0,0,0-6.91,1.31A18.2,18.2,0,0,0,67.36,65a7,7,0,0,0-2.6,2.13v-.31Q67.5,72.07,70,77.4a61.11,61.11,0,0,1,4.24,11,53.77,53.77,0,0,1,1.53,11.7c.15,3.92,0,7.86.71,11.66v0h0a53.59,53.59,0,0,1,.12,7.6,37.17,37.17,0,0,1-.4,3.79c-.2,1.26-.47,2.49-.73,3.72-.52,2.47-1.08,4.93-1.54,7.4-.23,1.24-.45,2.48-.57,3.74a6.51,6.51,0,0,0,0,1.87l.39,1.85-.44-1.84a6.65,6.65,0,0,1-.07-1.89c.09-1.26.27-2.51.47-3.76.4-2.49.87-5,1.35-7.45.24-1.24.49-2.47.67-3.71a36.07,36.07,0,0,0,.33-3.74,52.23,52.23,0,0,0-.23-7.51v0c-.78-3.92-.61-7.87-.79-11.77a53.34,53.34,0,0,0-1.55-11.54,61.32,61.32,0,0,0-4.14-10.91c-1.64-3.55-3.38-7.05-5.15-10.54L64.14,67l.1-.15a7.61,7.61,0,0,1,2.86-2.29,18.7,18.7,0,0,1,3.36-1.27,38,38,0,0,1,7-1.22l-.19.2a6.55,6.55,0,0,0-1.2-3.44,17.9,17.9,0,0,0-2.36-2.94A39.75,39.75,0,0,0,67.93,51Z"/>
    <path class="cls-9" d="M122.69,49.18c-1.22,1.84-2.38,3.72-3.44,5.64-.54,1-1,1.94-1.5,2.93a17.39,17.39,0,0,0-1.14,3.06l-.31-.24a52.73,52.73,0,0,1,7-3.53,27.79,27.79,0,0,1,3.7-1.26,14.37,14.37,0,0,1,3.93-.51h.3l0,.29a82.21,82.21,0,0,1-.44,13.68,93.8,93.8,0,0,1-2.59,13.42,122.07,122.07,0,0,0-3,13.25c-.66,4.49-.85,9-1.09,13.58a134.94,134.94,0,0,1,.7-13.63,123.21,123.21,0,0,1,2.83-13.35A93.33,93.33,0,0,0,130,69.17a87.62,87.62,0,0,0,.51-13.54l.31.3a13.65,13.65,0,0,0-3.74.47,32.31,32.31,0,0,0-3.65,1.18,49.86,49.86,0,0,0-6.94,3.36l-.45.25.13-.48a15.89,15.89,0,0,1,1.24-3.11c.49-1,1-2,1.61-2.9C120.18,52.81,121.41,51,122.69,49.18Z"/>
    <path class="cls-5" d="M102.71,11.31A13.57,13.57,0,0,0,87.59,12.5c-2.31,1.9-4.07,6.08-3.68,10.23,1,10.67.79,4.74,1.69,13.72S93.91,48.9,96.16,48.9c4.49,0,9.1-5.28,10.67-11s.11-5.84,2-15.16C109.85,17.83,106.31,13.26,102.71,11.31Z"/>
    <path class="cls-9" d="M102.24,16.89s.21,2-4.15,2.87-6.6-1.17-9.37,0-1.59,3.09-3.19,4.69C85,25,84.86,28,84.46,28c-.85,0-1.7-3.52-1.7-3.52s0-9.69,3.52-11.71,1.17-3.41,9-3.94,6.92,1.81,6.92,1.81.64-1.6,2.66.11,4.68,5.42,4.68,6.22.54,1.44.54,1.76c0,.13-1.05,5.62-1.39,6.45-.46,1.18-.31-2.19-.74-1.88C107.24,23.81,109.27,21.47,102.24,16.89Z"/>
  </g>
</svg>
