<svg xmlns="http://www.w3.org/2000/svg" viewBox="0 0 216 288">
  <defs>
    <style>
      .cls-1 {
        fill: #e784a7;
      }

      .cls-2 {
        fill: #fff;
      }

      .cls-3 {
        fill: #6d6e71;
      }

      .cls-4 {
        fill: #231f20;
      }

      .cls-5 {
        fill: #414042;
      }

      .cls-6 {
        fill: #f3c391;
      }

      .cls-7 {
        fill: #34281d;
      }

      .cls-8 {
        fill: #0d0c0d;
      }

      .cls-9 {
        fill: #896d54;
      }

      .cls-10 {
        fill: #9e6429;
      }
    </style>
  </defs>
  <g id="base_layer" data-name="base layer">
    <g>
      <g>
        <path class="cls-1" d="M179.23,232.11a36.3,36.3,0,0,1-28.33-13.59l-1.11.46a3.49,3.49,0,0,1-4.28-1.33,38.79,38.79,0,0,1-3.23-6.15c-1.55,1.6-3.91,2.14-6.31,2.34a4.19,4.19,0,0,1-3.92,2.72h-1.38l-3.2,1.44a4.14,4.14,0,0,1-1.71.37H91.93a4.21,4.21,0,0,1-2.73-1L88,216.29c-.07.13-.14.26-.21.37a4.08,4.08,0,0,1-3,2.1,5.23,5.23,0,0,1-.62,0H84c-2.16,0-5.9-1-9.94-3.77a35.52,35.52,0,0,1-63.7-21.63,35.19,35.19,0,0,1,2.28-12.56l-1.81-1.43A3.5,3.5,0,0,1,9.86,175a38.3,38.3,0,0,1,45-18.7c-1.9-4.35-1-9.62.24-13.4,0-.06-.22-.36-.22-.36-2.5-4.05.77-6.82,2-7.86l.48-.41a6.55,6.55,0,0,0-.11-1,8,8,0,0,1-.12-1.8,4.07,4.07,0,0,1,1.39-2.87A5.63,5.63,0,0,1,61,124.57a9.24,9.24,0,0,0,1.89-2.47A5.88,5.88,0,0,1,64.46,118a18.22,18.22,0,0,1,1.66-5.08,15.13,15.13,0,0,1,2.83-7c2.79-6.71,8.81-12,13.43-15.29A12.52,12.52,0,0,1,93.74,89l.36,0a3.52,3.52,0,0,0,.06-.66,15.59,15.59,0,0,1-1.51-6.48,19.15,19.15,0,0,1,1.66-8.37,7.46,7.46,0,0,1,.78-2.9,6.23,6.23,0,0,1,4.66-3.24.23.23,0,0,1,.07-.07,4.45,4.45,0,0,1,3-1.12,5,5,0,0,1,1.66.29,3.7,3.7,0,0,1,1.21-.29h.23a5.27,5.27,0,0,1,2.45.57,4.17,4.17,0,0,1,2.16-.63,3.75,3.75,0,0,1,2.43.89,4,4,0,0,1,1.15,1.66,7.3,7.3,0,0,1,.68.36,3.43,3.43,0,0,1,1.33-.26A3.48,3.48,0,0,1,119,70.25a7.08,7.08,0,0,1,1,2,4.87,4.87,0,0,1,1.38,3.41,3.57,3.57,0,0,1,.55.11A3.51,3.51,0,0,1,124.38,80a5.35,5.35,0,0,1-2.66,3.78,5.16,5.16,0,0,1-3.07,1.78,2.91,2.91,0,0,1-.27.24A4.09,4.09,0,0,1,118,87c.71,2,1,4.8-.56,6.41a4.23,4.23,0,0,1-.58.48.49.49,0,0,1,0,.11,3.12,3.12,0,0,1-.2.51,3.38,3.38,0,0,1,0,.54,4,4,0,0,1-.39,1.22,6.56,6.56,0,0,1-.79,3.65,19.08,19.08,0,0,1,2.44,4.36,12.35,12.35,0,0,0,2.7,2.49l.23.18a24.48,24.48,0,0,1,1.77,1.72c1,1,3.35,3.42,4,3.88a13.23,13.23,0,0,1,2.82,2.61l.21.24a5.23,5.23,0,0,1,1.41,1.46l.2.27a4.2,4.2,0,0,1,1.11.53,4.48,4.48,0,0,1,2,4.08,87.23,87.23,0,0,0,7.13,6.07c.19.12.45.29.85.5a6.3,6.3,0,0,1,1.15-.61,6.09,6.09,0,0,1,2.28-.44,5.16,5.16,0,0,1,.79.05,5.89,5.89,0,0,1,2.19-1.51,6,6,0,0,1,2.29-.45,6.07,6.07,0,0,1,5.66,3.82l2.85,7a5.54,5.54,0,0,1,3.44,3.5l1.09,3.39a5.49,5.49,0,0,1-.69,4.81l4.73,11.77a37.63,37.63,0,0,1,7.82-1.19c.6,0,1.2,0,1.79,0a38.29,38.29,0,0,1,21.13,6.33,3.42,3.42,0,0,1,1.21,1.38,36.3,36.3,0,0,1-20.9,66ZM74.51,169.94l.29-.15.15-.1-.89-.33C74.22,169.55,74.37,169.75,74.51,169.94Z"/>
        <path class="cls-1" d="M110.52,69.53a.25.25,0,0,1,.17.06c.21.17.37,1.1.37,1.1s-.31-1-.67-1c-.11,0-.23.1-.34.35a1.27,1.27,0,0,0,.45,1.61,1.41,1.41,0,0,1,.9-.2h.34a2.76,2.76,0,0,1,2,1.19c.18.39.63,1.1.63,1.1a2.67,2.67,0,0,0,1.14.37.64.64,0,0,0,.6-.31,1.71,1.71,0,0,0,0-1.67c.32.48.75,1.28.5,1.85,0,0,1.45.82,1.25,1.74a3.27,3.27,0,0,0,.37,2s.09.63-.37.84c0,0,.83.82.8,1.08,0,0,0,.06-.13.06a7.64,7.64,0,0,1-1.57-.45,2.73,2.73,0,0,0,2,1.12,1.92,1.92,0,0,0,.68-.12c1-.37,1.27-.81,1.36-1.06-.11.45-.44,1.54-1.3,1.56h-.16s-.55,1.34-1.63,1.34h-.16a1.86,1.86,0,0,1-1.5-1.33l-1.07.26s1.41.24,1.33,1.4c0,.59-.39.74-.72.74a1.69,1.69,0,0,1-.61-.13h.18c.34,0,1-.09.94-.81-.13-1-2.06-1.39-2.06-1.39a13.93,13.93,0,0,1,.69,4.52c0,.32-1,1.37-.53,1.9s1.06,3.21.63,3.63a.72.72,0,0,1-.53.16c-.44,0-1-.16-1.17-.16h0a9.91,9.91,0,0,1,.26,2c-.18.58-1.07.44-1.12.6s.8.65.75,1-.58.16-.58.42.84,3.58-1.21,3.85a4.82,4.82,0,0,1-.77,0,22.09,22.09,0,0,1-3.9-.54,4.43,4.43,0,0,0-.75-.11s-.09,0-.11,0a2.83,2.83,0,0,0-.43.4l.6.25a1.58,1.58,0,0,1,.42-.06.65.65,0,0,1,.2,0,13.1,13.1,0,0,1,4.42,1.65c1.58.92,3,3.48,3.59,5.06s3.47,3.68,4,4.1,4.84,5.06,6.11,5.83,2.63,2.81,3,2.81,1.16,2,2.31,2.11a1,1,0,0,1,.45.15,1.17,1.17,0,0,1-.28,2,121.12,121.12,0,0,0,9.42,8.11,29.19,29.19,0,0,0,3.73,2,2.59,2.59,0,0,1,2.5-1.93,2.6,2.6,0,0,1,2.42,1.63l1.53,3.78.58.41-1.68-4.15a2.61,2.61,0,0,1,4.84-1.95L157,139l1.47.49a2,2,0,0,1,1.28,1.28l1.09,3.39a2,2,0,0,1-1.2,2.49l-.37.14,6.89,17.16a34.43,34.43,0,0,1,10-2c.55,0,1.09,0,1.63,0a34.71,34.71,0,0,1,19.2,5.75l-.22.42a32.81,32.81,0,1,1-44.68,46.17l-3.64,1.51A34.86,34.86,0,0,1,158.18,168l-3.44-8.14s-7,15-7.35,15.51c-.06.08-5.76,8.56-6.43,13.83-.72,5.6-.62,18.37-.62,18.5v.53l-.27.45c-.66,1.11-2.44,1.65-5.78,1.75h-.06a1.86,1.86,0,0,1-.75-.15l-.78,2.33a.68.68,0,0,1-.65.46h-2a.71.71,0,0,0-.28.06L126,214.8a.67.67,0,0,1-.28.06H91.93a.65.65,0,0,1-.45-.16l-5.62-4.84a.72.72,0,0,0-.44-.16l-.74,0c1.18,3,.26,5.53-.39,5.61H84c-1.17,0-4.29-.58-8.15-3.28l.11,0-.06,0a11.21,11.21,0,0,1-2.45-2.34,32,32,0,0,1-56.55-29.93L13,176.66a35,35,0,0,1,60.49-2.09l.11.19,2.76-1.82v0c1.67-1.11,4.09-2.64,7.17-4.37-8.77-2-19.25-7-23.79-11.36-4.08-4-2-11.45-.7-14.81-.46-.65-.82-1.24-1.11-1.72-1.1-1.77.39-2.51,2-4s.63-4,.71-4.9.55-.24,1.19-1.15-.56-1.93,1.26-3.28a14.36,14.36,0,0,0,3.31-4.4s.06.79.07.79,0-.28-.06-1.2c-.16-2.44,1.42-2.61,1.42-2.61-.16-2.77,1.74-6.09,1.74-6.09,0-3.23,2.45-6.24,2.45-6.24,2.38-6.13,8-11.09,12.38-14.18a9,9,0,0,1,8.7-1h.34a6.53,6.53,0,0,0,2.91-.66,2.38,2.38,0,0,0,.71-.57,8.17,8.17,0,0,0,.53-3.93,12.74,12.74,0,0,1-1.45-5.48,14.93,14.93,0,0,1,1.63-7.5,4.93,4.93,0,0,1,.41-2.2A2.76,2.76,0,0,1,100,70.77a.22.22,0,0,1,.15,0,2.29,2.29,0,0,1,.52.61s.19-.34,1.35-.6a2.92,2.92,0,0,1,.6-.08,1.08,1.08,0,0,1,.92.34,1.4,1.4,0,0,0-1.34-1.29,1,1,0,0,1,.63-.2,1.74,1.74,0,0,1,1,.36l1,.71s1,.08,1,.32.23.15.46.15.65-.08.7-.23.18-1.23-1.16-1.31h0A1.43,1.43,0,0,1,107.46,71h.15c.43,0,1.62,0,1.71.63.05.35.14.44.22.44a.2.2,0,0,0,.14-.09,4.4,4.4,0,0,1,0-1.71,1.07,1.07,0,0,1,.84-.74m0-7h0a7.3,7.3,0,0,0-2.28.36,8.91,8.91,0,0,0-2.33-.3h-.43a7.59,7.59,0,0,0-1.08.14,8.4,8.4,0,0,0-1.59-.15A8.12,8.12,0,0,0,98.3,64,10,10,0,0,0,92,68.88a10.67,10.67,0,0,0-1.11,3.59,23.23,23.23,0,0,0-1.74,9.25,15.94,15.94,0,0,0,.25,3.06,16,16,0,0,0-9.05,3c-4.91,3.5-11.3,9.14-14.47,16.43a18.81,18.81,0,0,0-3.16,7.76,20.84,20.84,0,0,0-1.55,4.6A9.3,9.3,0,0,0,59.48,121a5.15,5.15,0,0,1-.62.81A9.12,9.12,0,0,0,55.3,127a7.72,7.72,0,0,0-1.62,4.23,8.78,8.78,0,0,0,0,1.63,10.54,10.54,0,0,0-2.17,2.76,8.48,8.48,0,0,0-.16,7.71,27,27,0,0,0-1,8.36,40.75,40.75,0,0,0-6.64-.54A41.78,41.78,0,0,0,6.77,173.39a7,7,0,0,0,1.72,8.66,39,39,0,0,0,66.27,37.53A20.08,20.08,0,0,0,84,222.3h.24a9.22,9.22,0,0,0,.94-.07A7.29,7.29,0,0,0,88.39,221a7.74,7.74,0,0,0,3.54.86h33.83a7.54,7.54,0,0,0,3.14-.67l2.52-1.13h.63a7.69,7.69,0,0,0,6-2.94,15.14,15.14,0,0,0,2.65-.67c.56,1.06,1.17,2.09,1.82,3.1a7,7,0,0,0,5.88,3.2,6.88,6.88,0,0,0,1.35-.14,39.81,39.81,0,1,0,53-58.93,7,7,0,0,0-1.92-1.87,41.7,41.7,0,0,0-23.05-6.91c-.65,0-1.3,0-1.95,0a42.59,42.59,0,0,0-5.52.63l-3-7.53a9,9,0,0,0,.18-6.07l-1.1-3.39a9.05,9.05,0,0,0-4-5L160,127.81a9.57,9.57,0,0,0-8.91-6,9.7,9.7,0,0,0-3.61.7,10,10,0,0,0-2.16,1.22,9.66,9.66,0,0,0-2.65.52c-1-.77-2.58-2.14-4.87-4.2a8,8,0,0,0-3.53-5.37q-.37-.24-.78-.45a8.67,8.67,0,0,0-1.49-1.49,16.88,16.88,0,0,0-3.38-3.1c-.73-.6-2.7-2.6-3.55-3.47a24.49,24.49,0,0,0-2.07-2l-.27-.21a17.15,17.15,0,0,1-1.83-1.58,23.26,23.26,0,0,0-1.52-2.95,10.63,10.63,0,0,0,.36-2.52,7.57,7.57,0,0,0,.31-1.18A8.75,8.75,0,0,0,122,88a9.31,9.31,0,0,0,1.92-1.47,9.05,9.05,0,0,0,3.9-5.8,7,7,0,0,0-3.3-7.6,8.55,8.55,0,0,0-1.39-2.61A11.24,11.24,0,0,0,122,68.31a7,7,0,0,0-5.82-3.13,7.31,7.31,0,0,0-5.61-2.65Z"/>
      </g>
      <g>
        <path class="cls-1" d="M116.12,75.68a3.52,3.52,0,0,1-2.93-1.57.93.93,0,0,0-.1-.15,3.51,3.51,0,0,1,2.74-5.69,3.47,3.47,0,0,1,2.46,1,5.25,5.25,0,0,1,.92,1.25,3.5,3.5,0,0,1-3.09,5.14Z"/>
        <path class="cls-1" d="M115.82,71.77a1.58,1.58,0,0,1,.29.41,4.92,4.92,0,0,0-.29-.41m-.26-7.1a6.91,6.91,0,0,0-5.23,11.46,7,7,0,0,0,12-7.21,9,9,0,0,0-1.52-2.08,7.37,7.37,0,0,0-5.23-2.17Z"/>
      </g>
      <g>
        <path class="cls-1" d="M121,82.69a3.61,3.61,0,0,1-1-.14,3.5,3.5,0,0,1-2.45-4.14v0A3.52,3.52,0,0,1,121,75.5h.3a3.49,3.49,0,0,1,3.2,3.43,4.32,4.32,0,0,1-.24,1.4A3.5,3.5,0,0,1,121,82.69Z"/>
        <path class="cls-1" d="M121,79a.79.79,0,0,1,0,.21c0-.12,0-.21,0-.21m0-7.08a6.91,6.91,0,0,0-6.88,5.83A7,7,0,0,0,119,85.92a7.26,7.26,0,0,0,1.94.27,7,7,0,0,0,6.61-4.7,7.79,7.79,0,0,0,.43-2.6,7.08,7.08,0,0,0-6.52-7Z"/>
      </g>
    </g>
  </g>
  <g id="motorcycle">
    <path class="cls-2" d="M45.41,171.8a21.6,21.6,0,1,1-21.6,21.6,21.62,21.62,0,0,1,21.6-21.6"/>
    <path class="cls-2" d="M178.8,173.41a22.39,22.39,0,1,1-22.39,22.39,22.42,22.42,0,0,1,22.39-22.39"/>
    <path class="cls-3" d="M157.29,202.5c6.49-3.59,13.05-7.05,19.57-10.57s13.1-7,19.7-10.35c-6.5,3.58-13.06,7-19.58,10.57S163.88,199.1,157.29,202.5Z"/>
    <path class="cls-3" d="M200.89,188.11c-6.9,3.81-13.86,7.51-20.79,11.27s-13.92,7.42-20.92,11.05c6.9-3.82,13.87-7.51,20.8-11.27S193.89,191.73,200.89,188.11Z"/>
    <path class="cls-3" d="M187.62,218.34c-1.89-7.53-3.64-15.09-5.47-22.63S178.6,180.6,176.92,173c1.89,7.53,3.65,15.09,5.47,22.63S185.94,210.76,187.62,218.34Z"/>
    <path class="cls-3" d="M169.35,175.49c2,7.27,3.89,14.59,5.84,21.88s3.8,14.61,5.6,21.94c-2-7.28-3.89-14.59-5.84-21.88S171.16,182.82,169.35,175.49Z"/>
    <path class="cls-3" d="M159.2,185.22c7.12,2.06,14.21,4.25,21.31,6.37s14.18,4.35,21.24,6.61c-7.12-2.06-14.2-4.25-21.31-6.37S166.26,187.49,159.2,185.22Z"/>
    <path class="cls-3" d="M200.2,205.89c-7.57-2.19-15.11-4.5-22.67-6.74s-15.09-4.59-22.6-7c7.58,2.18,15.11,4.5,22.67,6.74S192.69,203.5,200.2,205.89Z"/>
    <path class="cls-3" d="M169.44,217.88c4-6.66,8.09-13.25,12.14-19.87s8.17-13.2,12.34-19.74c-4,6.65-8.09,13.24-12.13,19.87S173.61,211.33,169.44,217.88Z"/>
    <path class="cls-3" d="M186.83,174.66c-3.73,6.57-7.57,13.06-11.35,19.6s-7.65,13-11.56,19.47c3.73-6.56,7.57-13.06,11.35-19.6S182.92,181.12,186.83,174.66Z"/>
    <path class="cls-3" d="M23,199.84c6.5-3.58,13.05-7,19.58-10.57s13.1-7,19.69-10.35c-6.49,3.58-13.05,7.05-19.58,10.57S29.64,196.45,23,199.84Z"/>
    <path class="cls-3" d="M66.65,185.45c-6.9,3.82-13.87,7.51-20.8,11.27s-13.91,7.42-20.91,11.05c6.9-3.82,13.86-7.51,20.79-11.27S59.65,189.08,66.65,185.45Z"/>
    <path class="cls-3" d="M53.38,215.68c-1.89-7.52-3.65-15.08-5.47-22.63s-3.56-15.11-5.23-22.69c1.88,7.53,3.64,15.09,5.47,22.63S51.7,208.11,53.38,215.68Z"/>
    <path class="cls-3" d="M35.11,172.83c2,7.28,3.89,14.59,5.84,21.88s3.79,14.61,5.59,21.94c-2-7.27-3.89-14.58-5.83-21.88S36.91,180.16,35.11,172.83Z"/>
    <path class="cls-3" d="M25,182.57c7.13,2.06,14.21,4.25,21.32,6.37s14.18,4.34,21.24,6.61c-7.12-2.06-14.21-4.25-21.32-6.38S32,184.83,25,182.57Z"/>
    <path class="cls-3" d="M66,203.23c-7.58-2.18-15.12-4.49-22.67-6.74s-15.09-4.59-22.61-7c7.58,2.19,15.12,4.5,22.68,6.74S58.44,200.84,66,203.23Z"/>
    <path class="cls-3" d="M35.2,215.22c4-6.66,8.09-13.24,12.13-19.87s8.18-13.2,12.35-19.74c-4,6.66-8.09,13.25-12.14,19.87S39.37,208.68,35.2,215.22Z"/>
    <path class="cls-3" d="M52.58,172c-3.72,6.57-7.56,13.07-11.34,19.6s-7.65,13-11.56,19.48C33.4,204.51,37.24,198,41,191.48S48.67,178.46,52.58,172Z"/>
    <path class="cls-4" d="M45.41,171.8a21.6,21.6,0,1,1-21.6,21.6,21.62,21.62,0,0,1,21.6-21.6m0-10.43a32,32,0,1,0,32,32,32,32,0,0,0-32-32Z"/>
    <path class="cls-4" d="M178.8,173.41a22.39,22.39,0,1,1-22.39,22.39,22.42,22.42,0,0,1,22.39-22.39m0-10.43a32.82,32.82,0,1,0,32.81,32.82A32.82,32.82,0,0,0,178.8,163Z"/>
    <path class="cls-5" d="M148,215.75a34.92,34.92,0,0,1,48.54-48.1l-1.75,3.4a6.26,6.26,0,0,1-7.52,3.1c-6.67-2.23-18.82-4.1-27.48,7.11-7.29,9.46-5.56,18.55-3.18,24.1a6.25,6.25,0,0,1-3.39,8.22Z"/>
    <path class="cls-5" d="M12.53,176.66a34.72,34.72,0,0,1,14.15-14.3A34.91,34.91,0,0,1,78.2,195.54l-3.82.13a6.25,6.25,0,0,1-6.38-5c-1.31-6.91-5.61-18.42-19.62-20.5-11.82-1.75-18.9,4.2-22.58,9a6.26,6.26,0,0,1-8.84,1Z"/>
    <path class="cls-4" d="M178.22,195.09,156.09,140a1.89,1.89,0,1,0-3.51,1.42l4.52,11.27-1.75-.13-3.64-8.6a1.9,1.9,0,1,0-3.49,1.48l2.93,6.93c-8.86-.26-25.93.06-41.87,5A131.24,131.24,0,0,0,75.89,173v0l-14.77,9.72-12.25-4.95a1.9,1.9,0,1,0-1.42,3.52l9.82,4-1.14.76-8.76-3.6a1.9,1.9,0,0,0-1.44,3.51l6.36,2.61-3,1.95a1.9,1.9,0,0,0,2.08,3.17l5.13-3.38L70.76,196l-.43,7.37L50,196.82a1.89,1.89,0,1,0-1.17,3.6l30.54,9.91a1.78,1.78,0,0,0,.59.1,1.9,1.9,0,0,0,.58-3.7l-6.49-2.11.41-7.05,3.3,1.35a1.86,1.86,0,0,0,.72.15,1.9,1.9,0,0,0,.72-3.66l-4.51-1.85.07-1.31,3.75,1.52a1.94,1.94,0,0,0,.71.13,1.89,1.89,0,0,0,.71-3.65l-4.94-2,.53-9.17,8.76-5.41,58.84.59c-1.64,2.59-5.73,9.43-6.37,14.44-.61,4.83-.66,14.25-.65,17.71a15.34,15.34,0,0,1-2.37.21,1.9,1.9,0,0,0,0,3.79h.07c3.34-.1,5.12-.64,5.78-1.75l.27-.45v-.53c0-.13-.09-12.9.62-18.5.67-5.27,6.38-13.75,6.43-13.83.33-.48,7.36-15.51,7.36-15.51l15.16,35.86H156.86a1.9,1.9,0,0,0,0,3.8h18.33l-18.73-44.3,1-1.65L174.7,196.5a1.89,1.89,0,0,0,1.76,1.19,1.93,1.93,0,0,0,.7-.13A1.9,1.9,0,0,0,178.22,195.09ZM71,192l-10.61-4.35,1.17-.77,9.51,3.84Zm-5.59-7.66,6.27-4.12-.38,6.5Z"/>
    <path class="cls-6" d="M122.37,129.49s17.84,10.77,21,11.72l7,1.65,4.52-1.57-.6-.69a27.78,27.78,0,0,0-9.82-7.25,38,38,0,0,1-5.31-2.69c-2.85-1.91-10.8-9.39-10.8-9.39Z"/>
    <path class="cls-7" d="M85.42,209.86l5.63,4.84a.65.65,0,0,0,.44.16h33.84a.71.71,0,0,0,.28-.06l3.75-1.68a.67.67,0,0,1,.28-.06h2a.69.69,0,0,0,.65-.46l2-6a.69.69,0,0,1,.65-.47h.56a.69.69,0,0,0,.69-.69v-1.2a.69.69,0,0,0-.69-.69h0a.68.68,0,0,1-.68-.73l.52-7.47a.68.68,0,0,0-.68-.73h-1.51a.69.69,0,0,1-.69-.7l.17-6.92a1.26,1.26,0,0,0-1.25-1.28h0a1.25,1.25,0,0,0-1.25,1.25v7a.69.69,0,0,1-.69.69H129a.69.69,0,0,1-.68-.69V179.79a.69.69,0,0,0-.24-.52l-1.26-1.07a.69.69,0,0,1-.24-.52v-2.92c0-.36-.29-1.61-.66-1.63l-25.58-.08a.68.68,0,0,0-.71.74l.08.93a.69.69,0,0,1-.69.75H97.21a.69.69,0,0,0-.69.69v.75l-2.33-1.65-1,.1.07-2.92a1.24,1.24,0,0,0-1.24-1.28h0a1.25,1.25,0,0,0-1.25,1.25v4.69a.68.68,0,0,1-.31.57l-1.31.88a.64.64,0,0,1-.38.12h-2.9a.68.68,0,0,0-.68.69v6.17a.68.68,0,0,1-.69.68h-1a.69.69,0,0,0-.68.69v3.92a.71.71,0,0,1-.44.64l-3.55,1.38a.71.71,0,0,0-.44.64v14.35a.73.73,0,0,0,.13.4l.77,1.08a.68.68,0,0,0,.55.29l5,.1A.67.67,0,0,1,85.42,209.86Z"/>
    <circle class="cls-7" cx="44.1" cy="194.17" r="9.22"/>
    <circle class="cls-7" cx="178.58" cy="195.76" r="3.72"/>
    <path class="cls-7" d="M160.38,144.13l-1.1-3.39a2,2,0,0,0-1.27-1.28l-1.47-.49-3.46-8.54a2.6,2.6,0,1,0-4.83,1.95l1.81,4.48a2,2,0,0,0-.42,0l-1.82-4.51a2.61,2.61,0,0,0-4.84,1.95l1.79,4.42-.61.25a2,2,0,0,0-1.25,1.78l-.13,3.51a2,2,0,0,1-.7,1.45L131.19,155a2.32,2.32,0,0,0-.39.44l-3.38,5.29a1.89,1.89,0,0,0-.3.84,1.6,1.6,0,1,0,2.14,2.23,1.84,1.84,0,0,0,.85-.26l6.53-3.82a1.93,1.93,0,0,0,.45-.36l10-10.68a2,2,0,0,1,1.58-.64l5.38.33a1.9,1.9,0,0,0,.82-.12l4.34-1.63A2,2,0,0,0,160.38,144.13Z"/>
  </g>
  <g id="character">
    <path class="cls-6" d="M107.41,140.72s14.06,10.94,15.59,11.42,8.9.73,9.95,1.21,3.37,2,3.74,3.58a10.24,10.24,0,0,1,.42,3.27.66.66,0,0,1-1.18.15s0,1.22-.87,1.32-1.22-.88-1.27-.88a.72.72,0,0,1-.36.89c-1,.52-1.58-.69-1.58-.69s.83,1.42-.51,1.88a2.21,2.21,0,0,1-1.81-.46,2.57,2.57,0,0,0-2.53-1,7.15,7.15,0,0,1-3-.24c-.74-.36-4.48-3.31-4.48-3.31s-20.43-11-18.54-10.22Z"/>
    <path class="cls-8" d="M72.6,189.69s-4.53,3.37-5.59,4.95a6.13,6.13,0,0,0-.84,4.85c.42,1,3.19,3.88,3.81,4.36s1.25,5.22,5.46,8.17,7.56,3.37,8.42,3.27,2.18-4.43-1.43-8.54S81.85,195,81.85,195Z"/>
    <path class="cls-5" d="M84.6,211a6.25,6.25,0,0,1,0,3.43,2,2,0,0,1-.45.8.67.67,0,0,1-.48.2h-.45a10,10,0,0,1-1.73-.26,18.89,18.89,0,0,1-6.23-3,.22.22,0,0,1-.06-.32.24.24,0,0,1,.27-.09,23.81,23.81,0,0,0,2.36.72,13.16,13.16,0,0,0,2.41.39A6,6,0,0,0,84.6,211Zm0,0a7.18,7.18,0,0,1-1.92,1.58,4.77,4.77,0,0,1-2.45.64,16.22,16.22,0,0,1-4.92-1l.22-.41a20.61,20.61,0,0,0,6.07,3,9.32,9.32,0,0,0,1.64.32c.28,0,.58.08.71-.07a1.93,1.93,0,0,0,.4-.67A6.51,6.51,0,0,0,84.6,211Z"/>
    <path class="cls-5" d="M79.33,200.7l0,4.9v.15l-.16,0a13.47,13.47,0,0,1-3.08-1,16.28,16.28,0,0,1-2.83-1.62,22.24,22.24,0,0,1-4.65-4.54,27.62,27.62,0,0,1-1.81-2.7l-.21-.36-.09-.18,0,0v0h0c0-.15,0,.32,0-.34h0l0-.08c.16-.23.31-.45.48-.67a15.62,15.62,0,0,1,1-1.24,32,32,0,0,1,5-4.08,52.33,52.33,0,0,0-4.61,4.43c-.34.41-.65.83-1,1.26l-.45.66,0,.08h0c0-.66,0-.18,0-.33h0l0,0,0,0,.1.17.2.34a25.67,25.67,0,0,0,1.82,2.59,24.2,24.2,0,0,0,4.46,4.47,18.51,18.51,0,0,0,5.58,2.93l-.16.12Z"/>
    <path class="cls-5" d="M81.27,196.78a18.62,18.62,0,0,0-.49,2.31,10.92,10.92,0,0,0-.14,2.35,13.38,13.38,0,0,0,.46,2.3c.2.77.39,1.54.56,2.31l0,.17-.17,0-1.84-.39h-.08v-.07c-.07-1.74-.14-3.48-.17-5.22.15,1.73.26,3.47.36,5.21l-.08-.09,1.85.35-.13.13c-.2-.77-.38-1.53-.56-2.3a12.19,12.19,0,0,1-.41-2.34A12.79,12.79,0,0,1,81.27,196.78Z"/>
    <path class="cls-3" d="M59.27,140.72s-5.37,11.31,0,16.53,19.12,11.22,28.44,12.16l-7.11,8.38s-2.21.94-2.21,1.58-1.64,3-1.64,3S73.49,186,73,186.32a27,27,0,0,0-2.22,2.21s2.42,4.79,6,6.11,5.1,2,5.1,2l7-7.27L88,188.21h1.89s3.8-3.63,4.59-4.58a43.39,43.39,0,0,1,5.21-5c.63-.25,7-3.41,8.06-7.68s-2.85-8.36-5-10.18-14.93-8.51-17-11.25-4-5.9-4-5.9Z"/>
    <path class="cls-9" d="M97.16,87.33a12.64,12.64,0,0,1-1.44-5.48c0-2.74.31-5.26,1.63-7.5a5,5,0,0,1,.4-2.2c.48-.89,1.66-1.55,2-1.34a2.29,2.29,0,0,1,.52.61s.18-.34,1.34-.6,1.53.26,1.53.26a1.4,1.4,0,0,0-1.34-1.29s.6-.55,1.63.16l1,.71s1,.08,1,.32,1.08.18,1.16-.08.19-1.23-1.16-1.31A1.45,1.45,0,0,1,107,71s1.76-.08,1.86.63.37.35.37.35a4.4,4.4,0,0,1,0-1.71c.21-.58.79-.86,1-.68s.38,1.1.38,1.1-.55-1.67-1-.61a1.25,1.25,0,0,0,.45,1.61s.29-.27,1.24-.19a2.81,2.81,0,0,1,2,1.19c.18.39.63,1.1.63,1.1s1.32.79,1.74.06a1.77,1.77,0,0,0-.3-2.08s1.17,1.39.8,2.26c0,0,1.45.82,1.25,1.74a3.27,3.27,0,0,0,.37,2s.09.63-.37.84c0,0,.83.82.8,1.08s-1.7-.39-1.7-.39a2.46,2.46,0,0,0,2.65,1c1.45-.54,1.4-1.27,1.4-1.27s-.26,1.75-1.35,1.77h-.16s-.6,1.47-1.79,1.33a1.88,1.88,0,0,1-1.5-1.33l-1.06.26s1.41.24,1.33,1.4-1.33.61-1.33.61,1.25.15,1.12-.8-2.06-1.39-2.06-1.39L96.63,91.27A8.11,8.11,0,0,0,97.16,87.33Z"/>
    <g>
      <path class="cls-6" d="M100.93,89.94s1.79-.64,1.71-1.58A22.18,22.18,0,0,0,102.2,86h0s-1.15-2.37-2.68-2.69-1.79,2.32-1.63,3.32A6.3,6.3,0,0,0,98.19,88s-.74,3-2.26,3.79a6.75,6.75,0,0,1-3.25.65l4,9.94,4.64,4.32,1.25-5.33s2.54-3,2.86-3.2a2.22,2.22,0,0,1,.86.09,4.24,4.24,0,0,1-1.1-.81C103.46,95.65,100.93,91.12,100.93,89.94Z"/>
      <path class="cls-6" d="M113.94,87.25c-.47-.53.53-1.58.53-1.9a14.21,14.21,0,0,0-.69-4.52,3.6,3.6,0,0,0-3.15-1.69A37.7,37.7,0,0,0,104.51,83a10.59,10.59,0,0,0-.34,4c.32,1.76,3.29,4.53,4,4.77s2.26-1.14,3-1.14a10.75,10.75,0,0,1,1.66.21c.26,0,1.37.37,1.74,0S114.41,87.78,113.94,87.25Z"/>
      <path class="cls-9" d="M108.17,91.81c-.71-.24-3.68-3-4-4.77a10.59,10.59,0,0,1,.34-4,6.76,6.76,0,0,0-2,2.07l-.35.94a4.17,4.17,0,0,1,.07,2.43,2.82,2.82,0,0,1-1.34,1.48c0,1.18,2.53,5.71,4.24,7.55a4.24,4.24,0,0,0,1.1.81,16.31,16.31,0,0,0,4.67.49c2-.27,1.21-3.59,1.21-3.85s.51,0,.58-.42-.8-.87-.75-1,.93,0,1.12-.6a10.63,10.63,0,0,0-.27-2,9.08,9.08,0,0,0-1.66-.26C110.44,90.62,108.88,92,108.17,91.81Z"/>
    </g>
    <path class="cls-10" d="M84,93.45c-4.35,3.09-10,8-12.39,14.18,0,0-2.44,3-2.44,6.24,0,0-1.9,3.32-1.74,6.09,0,0-1.58.17-1.42,2.61s0,.41,0,.41a14.44,14.44,0,0,1-3.3,4.4c-1.82,1.35-.63,2.38-1.27,3.28s-1.1.2-1.18,1.15,1,3.39-.71,4.9-3.15,2.24-2.06,4a14.18,14.18,0,0,0,8.38,6.89c5.45,1.82,16.35,2,19.43,1.82s7.35-6.17,7.35-6.17,7.9-7.35,14.3-29c0,0,4-11,3.71-12.25S105,98.61,105,98.61a8.11,8.11,0,0,0-2.81,3.57c-.63,2.06-.87,2.69-.87,2.69s-1.9-7.51-6.4-11.06l-.13-.11A9,9,0,0,0,84,93.45Z"/>
    <path class="cls-2" d="M106.2,98.82c-.57-.16-1.74.43-1.39.91,1.66,2.25,4.69,6.65,4.23,8.11s-1.76,5.32-2.29,6.88A1.23,1.23,0,0,0,107,116l2.93,2.93a1.37,1.37,0,0,1,.19.23c.22.36.92,1.42,1.62,1.15s.32,2.18,1,2.3a5.58,5.58,0,0,1,2.74,1.07,19.47,19.47,0,0,0,1.77,1.3,1.2,1.2,0,0,1,.44,1.52c-.21.42-.21.87.64,1,1.68.21,1.26-.26,2.31.82s1.27,2.7,1.58,2.36,2.81-7.06,7.17-8a1.2,1.2,0,0,0,.54-2.12.92.92,0,0,0-.44-.15c-1.16-.11-2-2.11-2.32-2.11s-1.68-2-2.94-2.81-5.59-5.4-6.11-5.83-3.38-2.52-4-4.1-2-4.14-3.58-5.06A13.17,13.17,0,0,0,106.2,98.82Z"/>
    <path class="cls-2" d="M82.71,96.05s-8,8.53-6,16.74,10,23.92,10,23.92a2.81,2.81,0,0,0,0,2.17,1.17,1.17,0,0,0,1.48.46v2.11h1.89a4.11,4.11,0,0,0,1.37,2.42,1.71,1.71,0,0,0,2.42,0A19.33,19.33,0,0,0,96.52,147c.72.42,5.36,3.58,5.36,3.58a12.28,12.28,0,0,1,7.58-9.06s-5.9-4.42-7.48-6.53-2.52-9.37-3-10a8.91,8.91,0,0,0-2.41-1.68c-.33-.11-.09-4.53,0-6.64a49.24,49.24,0,0,0-.75-7,9.31,9.31,0,0,0,1.58-2c.21-.63-3.79-10.11-9.59-11.69S82.71,96.05,82.71,96.05Z"/>
  </g>
</svg>
