<svg xmlns="http://www.w3.org/2000/svg" viewBox="0 0 1920 1080">
  <defs>
    <style>
      .cls-1 {
        fill: #1f1930;
      }

      .cls-2 {
        fill: #f4c5d7;
      }

      .cls-3, .cls-5 {
        fill: #e784a7;
      }

      .cls-4 {
        fill: #e26595;
      }

      .cls-5, .cls-6 {
        stroke: #e784a7;
      }

      .cls-10, .cls-5, .cls-6 {
        stroke-miterlimit: 10;
      }

      .cls-10, .cls-11, .cls-6 {
        fill: none;
      }

      .cls-7 {
        fill: #808285;
      }

      .cls-8 {
        fill: #9e6429;
      }

      .cls-9 {
        fill: #694018;
      }

      .cls-10 {
        stroke: #694018;
        stroke-width: 3px;
      }

      .cls-12 {
        fill: #666;
      }

      .cls-13 {
        fill: #35281d;
      }
    </style>
  </defs>
  <g id="extras">
    <rect class="cls-1" x="-1.22" width="1923.31" height="1083.57"/>
  </g>
  <g id="skyscrapers">
    <polygon class="cls-2" points="424.16 797.3 434.93 502.94 454.32 494.32 454.32 471.46 464.01 471.46 464.01 340.06 473.7 333.59 473.7 295.9 495.25 278.67 495.25 267.89 528.23 238.28 528.23 216.47 532.47 213.44 535.5 201.93 535.5 167.19 543.58 159.31 543.58 151.33 548.42 149.22 548.42 144.78 559.73 133.67 559.73 120.34 560.74 120.34 560.74 133.06 574.48 144.98 574.48 155.48 579.32 155.68 579.32 159.72 585.99 159.72 585.99 199.91 591.44 214.85 591.44 227.98 597.5 238.68 597.5 245.75 601.74 247.16 605.17 242.92 606.18 249.18 612.44 249.18 618.5 243.73 620.92 250.8 629 255.04 629 261.1 634.45 261.3 634.45 312.39 638.49 304.51 641.52 311.18 641.52 335.81 652.22 335.81 652.22 438.2 656.06 440.02 665.35 440.02 665.35 448.3 667.57 448.3 668.58 480.52 674.44 467.93 674.44 463.08 685.54 463.08 685.54 797.3 424.16 797.3"/>
    <polyline class="cls-3" points="541.15 228.42 541.15 297.67 506.24 316.25 506.24 471.67 454.32 494.32 454.32 471.46 464.01 471.46 464.01 340.06 473.7 333.59 473.7 295.9 495.25 278.67 495.25 267.89 528.23 238.28 541.15 228.42"/>
    <polygon class="cls-3" points="535.7 765.93 535.7 458.82 454.32 494.32 434.93 502.94 424.16 797.3 535.7 765.93"/>
    <path class="cls-2" d="M1920.87,919.47V535.2h-35V442.88H1872.6V377.57h-20.53V356.32h-6.92v-9.47h-6.63v-5.68H1827.8V323.82l-3-4.1V306.31l-3.47-2.84V287.22l-3.79-11.2h5.21V242.58h-5.21s3.16-1.42,3.47-6.62-4.41-9.78-4.41-9.78,3.62-2.21,3.62-6.16-2.68-7.57-8.83-8.51V159.45l-3.15-3.15V68.11a3.48,3.48,0,0,0-3.47-3.47h0a3.47,3.47,0,0,0-3.47,3.47v88.34l-2.84,2.68V212s-8.68,1.26-9.15,6.15a6.45,6.45,0,0,0,3.47,6.63s-6,3.31-6,8.36,4.42,8,4.42,8h-3.63v18.93l-2.36,2v41.07h3l-3.94,3.63v16.09l-2.68,2.68v15h-8.68v5.21h-4.57v9.31h-5.52v13.4l-23,8v16s-6.46.63-6.94,8.52v34.39h-11.67V534.1H1715V919.47Z"/>
    <path class="cls-3" d="M1715,919.47V534.1h6.15V435.35h11.67V401c.48-7.89,6.94-8.52,6.94-8.52l20.85-6.67L1761,922.7Z"/>
    <path class="cls-2" d="M55.67,462l7.32-.62V118L86.46,99.16l31.65,2.7V85.07l14-10.62,36.34,4.76A7.58,7.58,0,0,1,175,86.72v22.91l38.08,4.76v356h70.43v596.19H-.15V639.81H21.74V596.5l16.18-10v-107Z"/>
    <polygon class="cls-3" points="86.46 461.5 86.46 99.16 63 118 62.99 461.38 86.46 461.5"/>
    <polygon class="cls-3" points="-2 1066.57 -0.15 639.81 21.74 639.81 21.74 596.5 86.46 556.5 86.46 1063.08 -2 1066.57"/>
    <path class="cls-2" d="M1575.43,782.39V417.91l9.41-46.1h7.53v-16l-111-4.7-48.92-16.94-207.9,25.4V345.47l-19.76-.94V316.31h-41.39v16.93H1040.15V257h-32.92V234.47L932,226l-36.69,8.47v43.27L853,285.27v53.62l-21.64,3.76h0a8,8,0,0,0-10-7.68L811,337.72a8,8,0,0,0-5.57,10l11.76,39.19V782.39Z"/>
    <path class="cls-3" d="M831.31,342.65,853,338.89V285.27l42.33-7.53V234.47L932,226V782.39H817.2V386.87l-11.76-39.19a8,8,0,0,1,5.57-10l10.3-2.75a8,8,0,0,1,10,7.68h0"/>
    <ellipse class="cls-4" cx="709.48" cy="340.8" rx="1.53" ry="1.71" transform="matrix(0.96, -0.27, 0.27, 0.96, -65.61, 203.88)"/>
    <ellipse class="cls-4" cx="700.96" cy="344.55" rx="1.53" ry="1.71" transform="translate(-66.93 201.72) rotate(-15.64)"/>
    <ellipse class="cls-4" cx="343.48" cy="38.91" rx="1.53" ry="1.71" transform="translate(2.23 94.04) rotate(-15.64)"/>
    <ellipse class="cls-4" cx="1029.87" cy="63.36" rx="1.53" ry="1.71" transform="translate(21.05 279.98) rotate(-15.64)"/>
    <ellipse class="cls-4" cx="895.21" cy="165.02" rx="1.53" ry="1.71" transform="translate(-11.34 247.44) rotate(-15.64)"/>
    <ellipse class="cls-4" cx="900.15" cy="177" rx="1.53" ry="1.71" transform="translate(-14.39 249.22) rotate(-15.64)"/>
    <ellipse class="cls-4" cx="1755" cy="95.21" rx="1.71" ry="1.53" transform="translate(690.54 1493.78) rotate(-55.83)"/>
    <ellipse class="cls-4" cx="1763.36" cy="99.3" rx="1.71" ry="1.53" transform="translate(690.82 1502.5) rotate(-55.83)"/>
    <ellipse class="cls-4" cx="1760.96" cy="83.71" rx="1.71" ry="1.53" transform="translate(702.67 1493.67) rotate(-55.83)"/>
    <circle class="cls-4" cx="526.21" cy="79.94" r="2.17"/>
    <circle class="cls-4" cx="543.44" cy="78.81" r="1.38"/>
    <circle class="cls-4" cx="1316.5" cy="86.06" r="2.17"/>
    <circle class="cls-4" cx="1326.63" cy="72.07" r="1.38"/>
    <circle class="cls-4" cx="330.01" cy="42.68" r="1.38"/>
    <circle class="cls-4" cx="1021.68" cy="46.04" r="1.38"/>
    <circle class="cls-4" cx="533.53" cy="96.25" r="2.17"/>
    <circle class="cls-4" cx="197.53" cy="78.64" r="1.08"/>
    <circle class="cls-4" cx="321.89" cy="38.91" r="1.08"/>
    <ellipse class="cls-4" cx="46.47" cy="316.25" rx="1.53" ry="1.71" transform="matrix(0.96, -0.27, 0.27, 0.96, -83.54, 24.24)"/>
    <circle class="cls-4" cx="37.95" cy="332" r="1.38"/>
    <circle class="cls-4" cx="29.83" cy="328.23" r="1.08"/>
    <circle class="cls-4" cx="27" cy="23.02" r="1.08"/>
    <circle class="cls-4" cx="359.67" cy="168.42" r="1.08"/>
    <circle class="cls-4" cx="1198.74" cy="159.75" r="1.08"/>
    <circle class="cls-4" cx="1447.92" cy="54" r="1.08"/>
    <circle class="cls-4" cx="1510.67" cy="296.58" r="1.08"/>
    <circle class="cls-4" cx="796.58" cy="66.67" r="1.08"/>
    <circle class="cls-4" cx="200.28" cy="64.5" r="2.17"/>
    <circle class="cls-4" cx="214.94" cy="79.72" r="2.17"/>
    <polygon class="cls-3" points="1224.54 359.58 1224.54 791.51 1436.99 791.51 1432.44 334.19 1224.54 359.58"/>
    <polygon class="cls-3" points="118.11 101.86 118.11 85.07 132.11 74.45 132.11 103.22 118.11 101.86"/>
    <polygon class="cls-3" points="548.42 149.22 559.59 144.49 559.73 133.67 548.42 144.78 548.42 149.22"/>
    <line class="cls-3" x1="528.23" y1="238.28" x2="554.08" y2="218.56"/>
    <polygon class="cls-3" points="528.23 238.28 528.23 216.47 532.47 213.44 535.5 201.93 535.5 167.19 543.58 159.31 543.58 151.33 548.42 149.22 554.08 146.82 554.08 218.56 528.23 238.28"/>
    <polyline class="cls-5" points="535.7 458.82 668.58 480.52 673.91 481.38 673.84 470.1 669.14 480.32"/>
    <polygon class="cls-3" points="55.67 462 55.67 575.54 37.92 586.5 37.92 479.48 55.67 462"/>
    <line class="cls-6" x1="86.46" y1="556.5" x2="223" y2="556.5"/>
    <g>
      <polygon class="cls-3" points="1787.57 303.16 1787.57 303.74 1788.2 303.16 1787.57 303.16"/>
      <polyline class="cls-3" points="1787.57 303.74 1784.26 306.79 1784.26 322.83 1781.58 325.56 1781.58 340.54 1772.9 340.54 1772.9 345.75 1768.33 345.75 1768.33 355.06 1762.81 355.06 1762.81 368.46 1739.77 376.46 1739.77 392.44 1774.5 381.24 1774.5 358.83 1780.03 358.83 1780.03 349.53 1784.6 349.53 1784.6 344.32 1789.28 344.32 1789.28 328.33 1790.96 326.61 1790.96 310.56 1792.9 308.93 1792.89 245 1792.89 243 1791.76 240.34 1787.57 240.29 1787.57 260.09 1785.2 262.09 1785.2 303.16 1787.57 303.16"/>
    </g>
    <path class="cls-3" d="M1804.77,64.64a3.5,3.5,0,0,0-2.59,1.18,3.6,3.6,0,0,0-.85,2.71l0,5.86.06,11.72.12,23.45.25,46.89v.21l-.16.15-2.82,2.7.16-.38.28,52.85v.66l-.68.12a19.13,19.13,0,0,0-4.5,1.35,7.5,7.5,0,0,0-3.44,2.68,3.76,3.76,0,0,0-.49,1.94,5.77,5.77,0,0,0,.3,2.12,5.4,5.4,0,0,0,1.07,1.82,5.51,5.51,0,0,0,1.63,1.27l1.5.73-1.43.87a14.55,14.55,0,0,0-3.6,3,8.66,8.66,0,0,0-1.25,1.92,5.85,5.85,0,0,0-.59,2.1,7.72,7.72,0,0,0,1,4.32,10.9,10.9,0,0,0,3,3.42l-1.12,1.65a12.44,12.44,0,0,1-3.6-4.15,9.64,9.64,0,0,1-1.16-5.42,7.7,7.7,0,0,1,.8-2.73,10.35,10.35,0,0,1,1.53-2.3,16.21,16.21,0,0,1,4.13-3.42l.08,1.6a7.1,7.1,0,0,1-2.24-1.74,7,7,0,0,1-1.38-2.42,7.54,7.54,0,0,1-.37-2.73c0-.23,0-.45,0-.68l.15-.73a2.69,2.69,0,0,1,.24-.69,3.7,3.7,0,0,1,.33-.66,9.08,9.08,0,0,1,4.22-3.3,20.49,20.49,0,0,1,4.93-1.42l-.67.78.27-52.85v-.22l.16-.15,2.86-2.67-.16.36.25-46.89.12-23.45.06-11.72,0-5.86a3.71,3.71,0,0,1,.9-2.73A3.51,3.51,0,0,1,1804.77,64.64Z"/>
  </g>
  <g id="mid_buildings" data-name="mid buildings">
    <path class="cls-7" d="M203.3,848.47V574.58H224v-49.1H244V471h18.41V422.68h20.71V367.44h9.21V343.65h19.95v-33H336V281.89h11.51V266.17A19.18,19.18,0,0,1,366.72,247h0a19.18,19.18,0,0,1,19.18,19.18v15.72l13.81,29.54H425v28.39H439.6V848.47Z"/>
    <path class="cls-7" d="M1235.67,811.83v-215h-31.61v12.64H1044.74L964.66,487.61a15.65,15.65,0,0,0-13.09-7.06H817.48a15.67,15.67,0,0,0-13.67,8L747.6,589.29V557.68A17.7,17.7,0,0,0,729.89,540h0a17.7,17.7,0,0,0-17.7,17.7v24l-23.53-64.45-23.25,63.19h-21.5V550.09H560.46v34.14H531.38v227.6Z"/>
    <polygon class="cls-7" points="1373.55 787.82 1373.55 558.44 1483.63 545.2 1483.63 461.39 1542.69 452.56 1542.69 375.37 1564.17 375.37 1564.17 450.36 1629.5 441.54 1629.5 362.13 1633.97 362.13 1633.97 331.25 1643.82 331.25 1643.82 362.13 1649.19 361.4 1649.19 439.33 1688.56 435.65 1732.41 455.51 1732.41 564.32 1772.68 564.32 1772.68 620.19 1813.85 620.19 1813.85 787.82 1373.55 787.82"/>
  </g>
  <g id="library_station" data-name="library/station">
    <path class="cls-8" d="M591,707.82V624.66l11-10.25v-7.49H591V589.23l11-10.88L591,559.3l5.47-11.85c4.67-10.11-9.28-19.32-19-12.42l-.59.45c-7.93,6.3-7.52,23.68-7.19,29L408.31,519.27l14.6-16.45v-5.44C422.12,478.33,399.7,462,371.08,462S320,479,319.24,497.38v7.48L333,519.28,171.72,564.51c.33-5.35.74-22.73-7.19-29l-.6-.45c-9.72-6.9-23.67,2.31-19,12.42l5.47,11.85-11,19.05,11,10.88v17.69h-11v7.49l11,10.25v83.16l-22,87.23h216l6.72.3h42.57l6.46-.3H613Z"/>
    <g>
      <path class="cls-9" d="M591,707.82V624.66l11-10.25v-7.49H591V589.23l11-10.88L591,559.3l5.47-11.85c4.67-10.11-9.28-19.32-19-12.42l-.59.45c-9.43,7.49-7.07,30.62-7.07,30.62l-3-.84h0a5.71,5.71,0,0,1-5.71,5.7h0a5.7,5.7,0,0,1-5.7-5.7v-3.21l-.49-.14v.37a5.7,5.7,0,0,1-11.4,0v-3.57l-.5-.13v.73a5.7,5.7,0,1,1-11.4,0v-3.93l-.5-.14v1.09a5.7,5.7,0,1,1-11.4,0v-4.29l-.5-.14v1.46a5.7,5.7,0,0,1-11.4,0v-4.66l-.49-.13v1.81a5.71,5.71,0,1,1-11.41,0v-5l-.49-.14v2.18a5.7,5.7,0,0,1-11.4,0V542l-.5-.14v2.55a5.7,5.7,0,1,1-11.4,0v-5.74l-.5-.14v2.9a5.7,5.7,0,1,1-11.4,0v-6.1l-.5-.14v3.27a5.7,5.7,0,0,1-11.4,0V532l-.49-.14v3.63a5.71,5.71,0,0,1-11.41,0V528.7l-.49-.14v4a5.7,5.7,0,0,1-11.4,0v-7.19l-.5-.14v4.35a5.7,5.7,0,1,1-11.4,0V522l-5.39-1.51,15.71-17.69v-5.44C422.12,478.33,399.7,462,371.08,462S320,479,319.24,497.38v7.48l14.93,15.65-5,1.41v9a5.75,5.75,0,0,1-11.5,0v-5.78l-.5.14v8.64a5.75,5.75,0,0,1-11.5,0v-5.41l-.5.14v8.27a5.75,5.75,0,0,1-11.5,0v-5l-.5.14v7.91a5.75,5.75,0,0,1-11.5,0v-4.68l-.5.14v7.54a5.75,5.75,0,0,1-11.5,0V538.6l-.5.14v7.18a5.75,5.75,0,0,1-11.5,0V542l-.5.14v6.81a5.75,5.75,0,0,1-11.5,0v-3.59l-.5.14v6.45a5.75,5.75,0,0,1-11.5,0V548.7l-.5.14v6.08a5.75,5.75,0,0,1-11.5,0v-2.86l-.5.14v5.72a5.75,5.75,0,0,1-11.5,0v-2.49l-.5.14v5.35a5.75,5.75,0,0,1-11.5,0v-2.13l-.5.14v5a5.75,5.75,0,0,1-11.5,0v-1.76l-.5.14v4.62a5.75,5.75,0,0,1-11.5,0v-1.4l-2.07.58S174,543,164.53,535.48l-.6-.45c-9.72-6.9-23.67,2.31-19,12.42l5.47,11.85-11,19.05,11,10.88v17.69h-11v7.49l11,10.25v83.16l-22,87.23h216l6.72.3-.26-89.7c0-9.08,9.59-17.38,21.41-17.38s21.42,8.3,21.42,17.38v89.7l6.46-.3H613ZM255.74,781.64H230.15V729h25.59Zm0-57.22H230.15V678.48h25.59Zm0-50.51H230.15V648.82c0-12.67,11.27-23.05,25.59-24.06Zm30.17,107.73h-25.6V729h25.6Zm0-57.22h-25.6V678.48h25.6Zm0-50.51h-25.6V624.76c14.33,1,25.6,11.39,25.6,24.06Zm58.47-26.61c0-11.23,11.26-21.53,25.59-22.54v30.36H344.38Zm0,54.82V659.69H370v19.8h2.27C356.85,679.49,344.38,690.3,344.38,702.12Zm55.75,0c0-11.82-12.47-22.63-27.86-22.63h2.27v-19.8h25.59Zm0-47H374.54V624.76c14.33,1,25.59,11.31,25.59,22.54Zm83.69,126.52H458.23V729h25.59Zm0-57.22H458.23V678.48h25.59Zm0-50.51H458.23V648.82c0-12.67,11.27-23.05,25.59-24.06ZM514,781.64h-25.6V729H514Zm0-57.22h-25.6V678.48H514Zm0-50.51h-25.6V624.76c14.33,1,25.6,11.39,25.6,24.06Z"/>
      <line class="cls-10" x1="169.95" y1="566.56" x2="334.17" y2="520.51"/>
      <line class="cls-10" x1="407.2" y1="520.51" x2="569.77" y2="566.1"/>
    </g>
    <polygon class="cls-8" points="1917.12 684.94 1923.08 676.1 1915.57 666.82 1915.57 662.85 1894.8 659.31 1894.8 654.45 1860.77 649.14 1833.81 654.01 1827.18 654.01 1827.18 658.43 1810.83 658.87 1810.83 666.82 1687.96 666.38 1687.96 589.48 1695.03 589.48 1695.03 582.85 1702.55 582.85 1702.55 575.34 1687.96 575.34 1687.96 548.38 1678.24 540.87 1678.24 534.68 1672.49 534.68 1672.49 527.16 1649.95 527.16 1649.95 517 1638.46 517 1638.46 526.72 1622.11 533.35 1612.83 527.61 1612.83 517 1571.29 513.46 1563.33 517 1563.33 529.96 1434.28 522.89 1419.84 517.59 1404.52 522.01 1287.25 520.24 1273.7 517 1258.08 520.24 1175.32 520.58 1118.14 520.31 1118.15 520.31 1105.29 512.65 1105.29 504.59 1105.29 503.77 1103.62 503.77 1101.31 503.77 1098.98 502.9 1084.87 497.58 1084.87 496.08 1084.87 495.09 1084.87 494.59 1084.87 487.48 1072.93 487.48 1072.93 494.59 1072.93 495.09 1072.93 496.08 1072.93 498.04 1057.72 498.04 1057.72 501.42 1056.26 501.42 1053.91 501.42 1053.91 501.97 1053.91 509.71 1040.44 509.71 1030.04 523.17 1021.43 534.32 1021.43 535.6 1021.43 536.95 1021.43 548.1 1014.46 548.1 1013.62 548.1 1012.82 548.1 1006.27 548.1 1006.27 555.91 1008.74 555.91 1008.94 555.91 1009.58 555.91 1014.08 555.91 1014.08 562.8 1021.43 562.8 1021.94 585.79 1023.2 642.2 1023.55 660.19 1018.54 660.49 1017.95 636.62 1020.31 630.43 1004.99 630.43 1007.05 636.03 1007.05 660.78 828.5 662.26 828.5 656.07 810.23 652.83 810.23 647.82 783.13 642.81 783.13 635.15 777.23 635.15 777.23 641.63 766.33 641.63 766.33 628.67 763.09 628.67 763.09 641.63 742.47 645.46 742.47 651.06 723.61 651.06 719.78 653.12 719.78 671.68 713.3 671.98 713.3 676.1 718.31 676.4 718.9 765.38 715.36 765.09 715.36 772.45 710.94 772.45 710.94 788.36 1141.41 788.36 1228.33 788.36 1503.38 788.36 1600.71 788.36 1918.66 788.36 1918.66 759.19 1915.57 754.77 1917.12 684.94"/>
    <g>
      <rect class="cls-11" x="977.96" y="706.16" width="21.66" height="20.99"/>
      <polygon class="cls-11" points="939.95 763.39 950.11 757.64 960.28 764.05 960.28 739.3 939.95 739.3 939.95 763.39"/>
      <rect class="cls-11" x="939.95" y="706.16" width="20.33" height="20.99"/>
      <polygon class="cls-11" points="978.84 764.05 988.78 758.31 997.85 764.05 997.85 739.3 978.84 739.3 978.84 764.05"/>
      <path class="cls-11" d="M1373,637.43h0a42.76,42.76,0,0,0-42.76,42.76v88.28h13.92l7.07-5.08v-5.08h-2.87v-4.42h3.75l6.63-8.4h29.61l6.41,8.84v3.76h-3.53v3.31l11.93,7.07h12.6V680.19A42.77,42.77,0,0,0,1373,637.43Z"/>
      <circle class="cls-11" cx="1060.55" cy="750.96" r="7.18"/>
      <rect class="cls-11" x="1050" y="706.16" width="21.21" height="22.1"/>
      <rect class="cls-11" x="752.78" y="706.16" width="18.56" height="20.99"/>
      <rect class="cls-11" x="828.35" y="706.16" width="19.67" height="20.99"/>
      <path class="cls-11" d="M1660.28,741.41a6,6,0,1,0,6,6A6,6,0,0,0,1660.28,741.41Z"/>
      <rect class="cls-11" x="902.38" y="706.16" width="19.89" height="20.99"/>
      <rect class="cls-11" x="752.78" y="738.2" width="18.56" height="21.43"/>
      <polygon class="cls-11" points="902.38 763.39 912.33 758.31 922.27 763.39 922.27 739.3 902.38 739.3 902.38 763.39"/>
      <polygon class="cls-11" points="864.15 762.51 874.54 756.54 884.04 762.51 884.04 738.2 864.15 738.2 864.15 762.51"/>
      <rect class="cls-11" x="864.15" y="706.16" width="20.77" height="20.99"/>
      <polygon class="cls-11" points="828.35 762.51 838.19 756.76 848.02 762.51 848.02 738.2 828.35 738.2 828.35 762.51"/>
      <rect class="cls-11" x="1818.56" y="706.16" width="13.92" height="17.9"/>
      <polygon class="cls-11" points="1818.56 757.42 1826.52 750.13 1832.48 757.42 1832.48 735.11 1818.56 735.11 1818.56 757.42"/>
      <rect class="cls-11" x="1789.83" y="706.16" width="14.81" height="18.78"/>
      <polygon class="cls-11" points="1790.94 757.42 1798.89 751.79 1804.64 757.42 1804.64 735.11 1790.94 735.11 1790.94 757.42"/>
      <rect class="cls-11" x="1875.13" y="706.16" width="12.6" height="18.78"/>
      <rect class="cls-11" x="1875.13" y="734" width="12.6" height="17.79"/>
      <rect class="cls-11" x="1732.38" y="706.16" width="15.03" height="18.78"/>
      <rect class="cls-11" x="1700.78" y="706.16" width="16.35" height="20.11"/>
      <polygon class="cls-11" points="1732.38 758.75 1740.56 753 1747.4 757.64 1747.4 736.65 1732.38 736.65 1732.38 758.75"/>
      <rect class="cls-11" x="1761.33" y="706.16" width="15.47" height="18.78"/>
      <polygon class="cls-11" points="1700.78 759.63 1710.5 754.11 1717.13 758.75 1717.13 736.65 1700.78 736.65 1700.78 759.63"/>
      <rect class="cls-11" x="1650.62" y="706.16" width="17.46" height="20.11"/>
      <polygon class="cls-11" points="1762.21 758.75 1770.61 753 1776.8 758.75 1776.8 736.65 1762.21 736.65 1762.21 758.75"/>
      <polygon class="cls-12" points="1021.94 585.79 1023.2 642.2 1022.08 585.94 1021.94 585.79"/>
      <path class="cls-9" d="M1917.12,684.94l6-8.84-7.51-9.28v-4l-20.77-3.54v-4.86l-34-5.31-27,4.87h-6.63v4.42l-16.35.44v8L1688,666.38v-76.9H1695v-6.63h7.52v-7.51H1688v-27l-9.72-7.52v-6.18h-5.75v-7.52H1650V517h-11.49v9.72l-16.35,6.63-9.28-5.74V517l-41.55-3.54-8,3.54v13l-129-7.07-14.44-5.3L1404.52,522l-117.27-1.77L1273.7,517l-15.62,3.24-82.76.34-57.18-.27h0l-12.86-7.66v-8.88h-4l-2.33-.87-14.11-5.32v-10.1h-11.94V498h-15.21v3.38h-3.81v8.29h-13.47L1030,523.17l-8.61,11.15V548.1h-15.16v7.81h7.81v6.89h7.35l.51,23,.14.15,1.11,56.26.36,18-5,.3-.59-23.87,2.36-6.19H1005l2.06,5.6v24.75L828.5,662.26v-6.19l-18.27-3.24v-5l-27.1-5v-7.66h-5.9v6.48h-10.9v-13h-3.24v13l-20.62,3.83v5.6H723.61l-3.83,2.06v18.56l-6.48.3v4.12l5,.3.59,89-3.54-.3v7.37h-4.42v15.91h43.9l.3-20.16h8.25v20.16h70.12V769.8l8.54.29v18.27h28V770.09h8.25v18.27h28.58v-18l9.42.29v17.68h28.88l-.3-18h9.43l.59,18H985V771.57h8.55v16.79h61.87v-15H1066v15h75.43V772.75h-4.72V758.31l4.13-2.65-.38-76.06A43.35,43.35,0,0,1,1183.79,636h0a43.36,43.36,0,0,1,43.36,43.36v76.86l6.48,2.94v12.08h-5.3v17.09H1334.1V773.63l7.07.29v14.44h65.41v-15l6.48-.29-.29,15.32h90.61l.3-7.36h6.91a20,20,0,0,0-6.48-16.8V678.53a39.33,39.33,0,0,1,39.33-39.33h0a39.33,39.33,0,0,1,39.34,39.33v73.81l34.47,4.2v8.84h-30.5s6.19,3.76,6.63,15.25h7l.31,7.73h55.87v-21l8,.22v20.77h42V774H1714l-.22,14.36H1737l-.22-15h7.73v15h22.1V772.89h7.73v15.47h20.78v-15.8h7.07v15.8h21.43V766.69h5.75v21.67h55.68V764.92h6.63v23.44h27V759.19l-3.09-4.42ZM771.34,759.63H752.78V738.2h18.56Zm0-32.48H752.78v-21h18.56ZM848,762.51l-9.83-5.75-9.84,5.75V738.2H848Zm0-35.36H828.35v-21H848Zm36,35.36-9.5-6-10.39,6V738.2H884Zm.88-35.36H864.15v-21h20.77Zm37.35,36.24-9.94-5.08-10,5.08V739.3h19.89Zm0-36.24H902.38v-21h19.89Zm38,36.9-10.17-6.4L940,763.39V739.3h20.33Zm0-36.9H940v-21h20.33Zm37.56,36.9-9.06-5.74-9.94,5.74V739.3h19Zm1.77-36.9H978v-21h21.65Zm60.94,31a7.18,7.18,0,1,1,7.18-7.18A7.18,7.18,0,0,1,1060.55,758.14Zm10.66-29.89H1050V706.16h21.21Zm344.51,40.22h-12.6l-11.93-7.07v-3.31h3.53v-3.76l-6.41-8.84H1358.7l-6.63,8.4h-3.75v4.42h2.87v5.08l-7.07,5.08H1330.2V680.19A42.76,42.76,0,0,1,1373,637.43h0a42.77,42.77,0,0,1,42.76,42.76Zm244.56-15a6,6,0,1,1,6-6A6,6,0,0,1,1660.28,753.44Zm7.79-27.17h-17.45V706.16h17.45Zm49.06,32.48-6.63-4.64-9.72,5.52v-23h16.35Zm0-32.48h-16.35V706.16h16.35Zm30.28,31.38-6.86-4.65-8.17,5.75v-22.1h15Zm0-32.71h-15V706.16h15Zm29.39,33.81-6.19-5.75-8.4,5.75v-22.1h14.59Zm0-33.81h-15.47V706.16h15.47Zm27.84,32.48-5.75-5.63-8,5.63V735.11h13.7Zm0-32.48h-14.81V706.16h14.81Zm27.84,32.48-6-7.29-8,7.29V735.11h13.92Zm0-33.36h-13.92v-17.9h13.92Zm55.25,27.73h-12.6V734h12.6Zm0-26.85h-12.6V706.16h12.6Z"/>
    </g>
    <polygon class="cls-9" points="-1.22 1082.36 1920 1082.36 1920 788.36 597.72 788.36 134.23 788.36 -1.22 1082.36"/>
  </g>
  <g id="train_dinosaur" data-name="train/dinosaur">
    <g>
      <path class="cls-13" d="M1814.43,762.45l.34,0-.23-.61C1814.5,762,1814.46,762.24,1814.43,762.45Z"/>
      <path class="cls-11" d="M1385.07,647l-.25,0Z"/>
      <path class="cls-11" d="M444.08,743.08c0-3.63-3.45-6.56-7.7-6.56s-7.71,2.93-7.71,6.56v1h15.41Z"/>
      <rect class="cls-11" x="414.07" y="721.32" width="15.41" height="5.53"/>
      <path class="cls-11" d="M439.94,793.86h-.52l.45.08Z"/>
      <rect class="cls-11" x="428.67" y="747.57" width="15.41" height="22.11"/>
      <rect class="cls-11" x="414.88" y="793.86" width="4.87" height="6.91"/>
      <path class="cls-11" d="M381.63,808.36c3.24,1.39,5.68-2.07,5.68-2.07l-5.68-2.76S378,806.82,381.63,808.36Z"/>
      <polygon class="cls-11" points="401.1 798.69 401.1 795.24 397.04 795.24 397.04 794.55 394.61 794.55 394.61 799.38 400.29 799.38 401.1 798.69"/>
      <polygon class="cls-11" points="406.77 804.91 411.64 804.91 411.64 796.62 406.77 800.07 406.77 804.91"/>
      <rect class="cls-11" x="430.29" y="721.32" width="15.41" height="5.53"/>
      <polygon class="cls-11" points="410.02 795.24 404.34 795.24 404.34 798.69 405.96 798.69 410.02 795.24"/>
      <rect class="cls-11" x="560.06" y="721.32" width="15.41" height="5.53"/>
      <path class="cls-11" d="M372.71,800.42h2v-7.6h-1.63a.81.81,0,0,1-.68-.35h-2.15l2.43,4.84Z"/>
      <rect class="cls-11" x="543.84" y="721.32" width="15.41" height="5.53"/>
      <rect class="cls-11" x="527.62" y="721.32" width="15.41" height="5.53"/>
      <rect class="cls-11" x="576.28" y="721.32" width="15.41" height="5.53"/>
      <rect class="cls-11" x="446.51" y="721.32" width="15.41" height="5.53"/>
      <rect class="cls-11" x="462.74" y="721.32" width="15.41" height="5.53"/>
      <rect class="cls-11" x="478.96" y="721.32" width="15.41" height="5.53"/>
      <rect class="cls-11" x="511.4" y="721.32" width="15.41" height="5.53"/>
      <rect class="cls-11" x="495.18" y="721.32" width="15.41" height="5.53"/>
      <path class="cls-11" d="M367,806.29c0,.32-.14,1.38-1.62,1.38a32.33,32.33,0,0,1-5.48-.67.82.82,0,0,0-1,.51.68.68,0,0,0,.59.83,33.45,33.45,0,0,0,5.87.72,2.92,2.92,0,0,0,3.24-2.77.82.82,0,0,0-1.62,0Z"/>
      <path class="cls-11" d="M270.52,744.46v1h15.41v-1c0-3.62-3.45-6.56-7.71-6.56S270.52,740.84,270.52,744.46Z"/>
      <rect class="cls-11" x="284.3" y="722.7" width="15.41" height="5.53"/>
      <path class="cls-11" d="M315.94,744.46c0-3.62-3.45-6.56-7.71-6.56s-7.7,2.94-7.7,6.56v1h15.41Z"/>
      <rect class="cls-11" x="300.53" y="722.7" width="15.41" height="5.53"/>
      <rect class="cls-11" x="150.48" y="748.95" width="15.41" height="22.11"/>
      <polygon class="cls-11" points="419.75 932.5 419.75 906.1 417.81 904.73 417.81 931.12 419.75 932.5"/>
      <rect class="cls-11" x="180.49" y="748.95" width="15.41" height="22.11"/>
      <path class="cls-11" d="M195.9,744.46c0-3.62-3.45-6.56-7.71-6.56s-7.7,2.94-7.7,6.56v1H195.9Z"/>
      <path class="cls-11" d="M151,878.08V857.75a70.07,70.07,0,0,0-6.65,6A68.16,68.16,0,0,1,151,878.08Z"/>
      <path class="cls-11" d="M315.12,795.5l-1.46.36c-.11,0-2.51.61-6.7,1.51a14.77,14.77,0,0,1,2,8.61,16,16,0,0,1-6.44,11.38H444.84c-4.57-2.75-7.76-7.08-8.36-12.05a14.72,14.72,0,0,1,1.38-8.21c-3.78-.73-5.95-1.2-6.05-1.23l-1.52-.33v-1.68H423v6.9h4.87a.7.7,0,1,1,0,1.39H415.69v2.76h2a1.75,1.75,0,1,1,0,3.45H391.36v4.49a1.23,1.23,0,0,1-2.43,0v-4.49h-1.62a4.29,4.29,0,0,1-3,2c-1.61.27-3.72.24-5.08-1.3-2.44-2.77.81-6.22.81-6.22v-1.38h-3.25v4.83c0,2.1-2,3.8-4.46,3.8v-1h-2.84a7.81,7.81,0,0,1-4.86,1.38,27.45,27.45,0,0,1-7.3-1.38l-2.17,5.53a1.17,1.17,0,0,1-1.11.68,1,1,0,0,1-1.13-1.29l2-5.62H327.29a1.4,1.4,0,1,1,0-2.76h2.43v-2.07h-4.86l-1.49.32a8.65,8.65,0,0,1-3.51,0l-1.49-.32v-4.15h4.86v-4.83H320.8S320,798,318.37,798s-1.62-2.76-1.62-2.76h-1.63Z"/>
      <rect class="cls-11" x="345.13" y="795.93" width="5.68" height="3.45"/>
      <path class="cls-11" d="M358.11,797.31h4.06v-3.45h-3.25a2.27,2.27,0,0,0-2.43,2.07h-3.25v3.45h3.25Z"/>
      <path class="cls-11" d="M369.46,797.31s.82-3.45-2.43-3.45c-4,0-3.24,3.45-3.24,3.45Z"/>
      <rect class="cls-11" x="578.72" y="747.57" width="15.41" height="22.11"/>
      <polygon class="cls-11" points="341.89 799.38 341.89 795.93 336.21 795.93 336.21 797.31 339.46 799.38 341.89 799.38"/>
      <rect class="cls-11" x="326.48" y="794.55" width="3.24" height="4.84"/>
      <rect class="cls-11" x="316.75" y="722.7" width="15.41" height="5.53"/>
      <path class="cls-11" d="M341.89,804.91a1.52,1.52,0,0,0-1.62-1.38H333v2.76h7.3A1.52,1.52,0,0,0,341.89,804.91Z"/>
      <polygon class="cls-11" points="332.97 797.31 332.97 799.38 336.21 799.38 332.97 797.31"/>
      <rect class="cls-11" x="488.69" y="747.57" width="15.41" height="22.11"/>
      <path class="cls-11" d="M677.66,795.93s.81-3.46-2.43-3.46c-4.05,0-3.24,3.46-3.24,3.46Z"/>
      <path class="cls-11" d="M675.23,804.91c0,.32-.14,1.38-1.62,1.38a32.33,32.33,0,0,1-5.48-.67.84.84,0,0,0-1,.5.7.7,0,0,0,.59.84,34,34,0,0,0,5.88.71,2.91,2.91,0,0,0,3.24-2.76.82.82,0,0,0-1.62,0Z"/>
      <path class="cls-11" d="M698.84,796.39l1.32-1.84h-5.9v4.14A5.6,5.6,0,0,0,698.84,796.39Z"/>
      <path class="cls-11" d="M666.31,795.93h4.05v-3.46h-3.24a2.28,2.28,0,0,0-2.43,2.08h-3.25V798h3.25Z"/>
      <rect class="cls-11" x="738.13" y="725.81" width="15.86" height="19.69"/>
      <polygon class="cls-11" points="650.09 798 650.09 794.55 644.41 794.55 644.41 795.93 647.65 798 650.09 798"/>
      <path class="cls-11" d="M650.09,803.53a1.52,1.52,0,0,0-1.62-1.38h-7.3v2.76h7.3A1.52,1.52,0,0,0,650.09,803.53Z"/>
      <polygon class="cls-11" points="641.17 795.93 641.17 798 644.41 798 641.17 795.93"/>
      <path class="cls-11" d="M577.5,803.53c0-.34,0-.68,0-1a389.4,389.4,0,0,1-51.14,3.77A432.83,432.83,0,0,1,476.1,803c0,.17,0,.33,0,.5,0,5.71-3.33,10.76-8.42,13.83H585.92C580.83,814.29,577.5,809.24,577.5,803.53Z"/>
      <rect class="cls-11" x="624.95" y="721.32" width="15.41" height="5.53"/>
      <rect class="cls-11" x="653.33" y="794.55" width="5.68" height="3.45"/>
      <path class="cls-11" d="M73.43,809.75c3.25,1.38,5.68-2.08,5.68-2.08l-5.68-2.76S69.8,808.2,73.43,809.75Z"/>
      <path class="cls-11" d="M920.65,807.67h8.85v-6.21h-8.11a.69.69,0,1,0,0,1.38h.74v3.45h-1.48a.69.69,0,1,0,0,1.38Z"/>
      <polygon class="cls-11" points="88.84 795.93 86.41 795.93 86.41 800.76 92.09 800.76 92.9 800.07 92.9 796.62 88.84 796.62 88.84 795.93"/>
      <rect class="cls-11" x="776.11" y="728.22" width="13.27" height="17.27"/>
      <path class="cls-11" d="M937.25,796.62h4v-3.45h-1.47v1.38h-2.58a1,1,0,1,0,0,2.07Z"/>
      <path class="cls-11" d="M837,811.47a12.89,12.89,0,0,1-4.19,5.89h10.47Z"/>
      <path class="cls-11" d="M785.36,817.36h13.76a10.59,10.59,0,0,1-2.31-1.91L792,810.09A15.69,15.69,0,0,1,785.36,817.36Z"/>
      <polygon class="cls-11" points="98.57 806.29 103.44 806.29 103.44 798 98.57 801.46 98.57 806.29"/>
      <polygon class="cls-11" points="96.14 796.62 96.14 800.07 97.76 800.07 101.82 796.62 96.14 796.62"/>
      <rect class="cls-11" x="759.89" y="728.22" width="13.27" height="17.27"/>
      <rect class="cls-11" x="518.7" y="747.57" width="15.41" height="22.11"/>
      <path class="cls-11" d="M534.11,743.08c0-3.63-3.45-6.56-7.71-6.56s-7.7,2.93-7.7,6.56v1h15.41Z"/>
      <rect class="cls-11" x="634.68" y="793.17" width="3.24" height="4.84"/>
      <path class="cls-11" d="M167.34,800.86a428.7,428.7,0,0,0,50.86,3.36,387.12,387.12,0,0,0,51.85-3.91,15.83,15.83,0,0,1,2.82-5.07H164.35A15.74,15.74,0,0,1,167.34,800.86Z"/>
      <path class="cls-11" d="M504.1,743.08c0-3.63-3.45-6.56-7.71-6.56s-7.7,2.93-7.7,6.56v1H504.1Z"/>
      <path class="cls-11" d="M578.72,743.08v1h15.41v-1c0-3.63-3.45-6.56-7.71-6.56S578.72,739.45,578.72,743.08Z"/>
      <rect class="cls-11" x="458.68" y="747.57" width="15.41" height="22.11"/>
      <rect class="cls-11" x="548.71" y="747.57" width="15.41" height="22.11"/>
      <path class="cls-11" d="M466.39,736.52c-4.26,0-7.71,2.93-7.71,6.56v1h15.41v-1C474.09,739.45,470.64,736.52,466.39,736.52Z"/>
      <path class="cls-11" d="M564.12,743.08c0-3.63-3.45-6.56-7.71-6.56s-7.7,2.93-7.7,6.56v1h15.41Z"/>
      <path class="cls-11" d="M475.54,799.48a430.83,430.83,0,0,0,50.86,3.36,385.42,385.42,0,0,0,51.85-3.92,15.89,15.89,0,0,1,2.82-5.06H472.55A15.74,15.74,0,0,1,475.54,799.48Z"/>
      <path class="cls-11" d="M633.82,857.75a71.33,71.33,0,0,0-6.66,6,68.65,68.65,0,0,1,6.66,14.3Z"/>
      <path class="cls-11" d="M626.92,856.25h-5.23c.74.87,1.5,1.81,2.26,2.82Q625.47,857.55,626.92,856.25Z"/>
      <path class="cls-11" d="M651.7,859.36c.84-1.12,1.67-2.16,2.49-3.11H641.71v22.89A66.61,66.61,0,0,1,651.7,859.36Z"/>
      <path class="cls-11" d="M623.32,794.12l-1.46.36c-.11,0-2.52.61-6.7,1.51a14.75,14.75,0,0,1,2,8.61c-.38,5.24-3.64,9.87-8.43,12.76H762.05A20,20,0,0,1,754.36,806H733l-4.42-2.77-.74.69s.74,4.15-3.69,6.91-9.58-2.07-9.58-2.07a25.27,25.27,0,0,1-6.64-1.38c-4.43-1.38-5.16-4.84-5.16-4.84H689.46v-6.22l-3-4.14h-5.9v-1h-2.14l2.44,4.84v11.74h-3.25a7.77,7.77,0,0,1-4.86,1.39,27.28,27.28,0,0,1-7.3-1.39l-2.17,5.53a1.18,1.18,0,0,1-1.11.69,1,1,0,0,1-1.13-1.29l2-5.62H635.49a1.4,1.4,0,1,1,0-2.76h2.43v-2.07h-4.86l-1.5.31a8.26,8.26,0,0,1-3.5,0l-1.49-.31V798h4.86v-4.83H629s-.81,3.45-2.43,3.45-1.62-2.76-1.62-2.76h-1.63Z"/>
      <path class="cls-11" d="M624.13,743.08c0-3.63-3.45-6.56-7.7-6.56s-7.71,2.93-7.71,6.56v1h15.41Z"/>
      <path class="cls-11" d="M606.27,886.56A78.09,78.09,0,0,1,621,862.22l.13-.15a52.53,52.53,0,0,0-5.12-5.82h-9.71Z"/>
      <rect class="cls-11" x="592.5" y="721.32" width="15.41" height="5.53"/>
      <rect class="cls-11" x="608.72" y="747.57" width="15.41" height="22.11"/>
      <rect class="cls-11" x="608.72" y="721.32" width="15.41" height="5.53"/>
      <rect class="cls-11" x="300.53" y="748.95" width="15.41" height="22.11"/>
      <path class="cls-11" d="M417.52,1001.3c27.6-.17,55.52-.46,83.25-.91l-83.25-58.76Z"/>
      <polygon class="cls-11" points="421.28 907.18 421.28 933.59 427.4 937.96 427.4 911.51 421.28 907.18"/>
      <polygon class="cls-11" points="428.93 912.6 428.93 939.05 435.06 943.41 435.06 916.93 428.93 912.6"/>
      <polygon class="cls-11" points="405.97 922.68 409.63 925.28 409.63 898.94 405.97 896.35 405.97 922.68"/>
      <path class="cls-11" d="M383.36,880.37v0h0Z"/>
      <path class="cls-11" d="M389.14,910.67V884.44l-1.1-.78a89.14,89.14,0,0,0-5.12,22.58Z"/>
      <path class="cls-11" d="M389.27,880.55,409.63,895v-4.45a74.42,74.42,0,0,0-9.12-28.71A77.28,77.28,0,0,0,389.27,880.55Z"/>
      <polygon class="cls-11" points="436.59 918.01 436.59 944.5 442.71 948.87 442.71 922.34 436.59 918.01"/>
      <polygon class="cls-11" points="451.89 928.84 451.89 955.42 458.01 959.78 458.01 933.17 451.89 928.84"/>
      <polygon class="cls-11" points="459.55 934.26 459.55 960.88 465.67 965.24 465.67 938.59 459.55 934.26"/>
      <polygon class="cls-11" points="444.24 923.43 444.24 949.96 450.36 954.33 450.36 927.76 444.24 923.43"/>
      <path class="cls-11" d="M370.9,881.33v-1.42l-.43.3C370.62,880.59,370.76,881,370.9,881.33Z"/>
      <path class="cls-11" d="M365.81,883.51l-.78.55V910.3l5.87-4.19v-.62A88.33,88.33,0,0,0,365.81,883.51Z"/>
      <polygon class="cls-11" points="357.38 889.48 357.38 915.75 363.5 911.39 363.5 885.15 357.38 889.48"/>
      <polygon class="cls-11" points="467.2 939.67 467.2 966.33 473.32 970.7 473.32 944 467.2 939.67"/>
      <polygon class="cls-11" points="349.72 894.89 349.72 921.21 355.85 916.85 355.85 890.56 349.72 894.89"/>
      <polygon class="cls-11" points="342.07 900.31 342.07 926.67 348.19 922.3 348.19 895.98 342.07 900.31"/>
      <path class="cls-11" d="M382.63,1001.45q13.42,0,27-.11V936.06l-27-19Z"/>
      <polygon class="cls-11" points="398.32 890.94 398.32 917.22 404.44 921.59 404.44 895.27 398.32 890.94"/>
      <polygon class="cls-11" points="390.67 885.52 390.67 911.76 396.79 916.13 396.79 889.85 390.67 885.52"/>
      <rect class="cls-11" x="210.5" y="748.95" width="15.41" height="22.11"/>
      <path class="cls-11" d="M835.74,862.22a78,78,0,0,1,14.18,23v-29H829.78A76.26,76.26,0,0,1,835.74,862.22Z"/>
      <path class="cls-11" d="M876.37,862.07a53.58,53.58,0,0,0-5.12-5.82h-9.72v30.31a78.09,78.09,0,0,1,14.7-24.34Z"/>
      <path class="cls-11" d="M882.18,856.25H877c.75.87,1.51,1.81,2.27,2.82C880.22,858.06,881.22,857.12,882.18,856.25Z"/>
      <path class="cls-11" d="M861.53,914.93V998c8.15-2.45,11-2.55,15.44-5.41,2.9-1.85,9.34-9.37,12.11-11.33V896.59a68.14,68.14,0,0,0-9.46-29.75C868.33,879.89,862.23,896.06,861.53,914.93Z"/>
      <polygon class="cls-11" points="334.42 905.72 334.42 932.12 340.54 927.76 340.54 901.39 334.42 905.72"/>
      <path class="cls-11" d="M909.45,856.25H897v22.89a66.6,66.6,0,0,1,10-19.78C907.8,858.24,908.63,857.2,909.45,856.25Z"/>
      <path class="cls-11" d="M889.08,878.08V857.75a70.07,70.07,0,0,0-6.65,6A68.16,68.16,0,0,1,889.08,878.08Z"/>
      <path class="cls-11" d="M1644.62,719.2a36.39,36.39,0,0,1-27.8,3.47c.23,13.82-7,22.37-8.61,24.7s-7.79,8-3.31,14.38c2.6,3.68,5.27,7.07,7.06,9.27l34.42-1.38A10.07,10.07,0,0,1,1647,766c1.56-4.63,3.15-7.73-2-19.17S1644.62,719.2,1644.62,719.2Z"/>
      <path class="cls-11" d="M909.65,862.59c-7.93,10.69-12.19,24-12.68,39.61v74.73c61-46.8,179.56-82.45,224.33-126l-206.14,5.33A51.67,51.67,0,0,0,909.65,862.59Z"/>
      <polygon class="cls-11" points="497.81 988.16 503.93 992.52 503.93 965.66 497.81 961.33 497.81 988.16"/>
      <polygon class="cls-11" points="490.16 955.92 490.16 982.7 496.28 987.07 496.28 960.25 490.16 955.92"/>
      <polygon class="cls-11" points="474.85 945.09 474.85 971.79 480.98 976.15 480.98 949.42 474.85 945.09"/>
      <polygon class="cls-11" points="505.46 993.62 511.59 997.98 511.59 971.08 505.46 966.75 505.46 993.62"/>
      <path class="cls-11" d="M820.93,856.25h-161a52.54,52.54,0,0,0-5.51,6.34c-7.92,10.69-12.19,24-12.67,39.61l-.54,100.2c88.72-3.79,165.5,8,208.75-2.25V908c-1.81-16.24-7.9-30.28-18.13-41.83A70.18,70.18,0,0,0,820.93,856.25Z"/>
      <polygon class="cls-11" points="482.5 950.5 482.5 977.25 488.63 981.61 488.63 954.83 482.5 950.5"/>
      <path class="cls-11" d="M624.36,866.84c-11.3,13-17.39,29.22-18.09,48.09v87.47c9.29-.31,19.34.37,28.41,0l-.86-105.81A68.41,68.41,0,0,0,624.36,866.84Z"/>
      <path class="cls-11" d="M513.12,999.07l1.51,1.08,5-.09V976.77l-6.5-4.61Z"/>
      <path class="cls-11" d="M580.47,862.22a78.16,78.16,0,0,1,14.19,23v-29H574.52A76.23,76.23,0,0,1,580.47,862.22Z"/>
      <path class="cls-11" d="M565.66,856.25H431.21c-.26.34-.51.68-.76,1-7.91,11.35-12.16,25.49-12.64,42v1.45l104.11,73.75V1000c24.6-.47,46.81,1.64,70.58.88L594.66,908c-1.82-16.24-7.9-30.28-18.14-41.83A70.18,70.18,0,0,0,565.66,856.25Z"/>
      <path class="cls-11" d="M348.39,856.25H177.1a52.54,52.54,0,0,0-5.5,6.34c-7.93,10.69-12.19,24-12.68,39.61v100.2c22,.35,46.71-1.84,73.33-1.56V974.15l132.32-93.74a77,77,0,0,0-11.74-19.3C351.33,859.32,349.84,857.7,348.39,856.25Z"/>
      <rect class="cls-11" x="186.98" y="722.7" width="15.41" height="5.53"/>
      <rect class="cls-11" x="235.64" y="722.7" width="15.41" height="5.53"/>
      <rect class="cls-11" x="219.42" y="722.7" width="15.41" height="5.53"/>
      <polygon class="cls-11" points="326.76 911.14 326.76 937.58 332.89 933.22 332.89 906.81 326.76 911.14"/>
      <rect class="cls-11" x="203.2" y="722.7" width="15.41" height="5.53"/>
      <rect class="cls-11" x="106.68" y="795.24" width="4.87" height="6.91"/>
      <rect class="cls-11" x="138.32" y="722.7" width="15.41" height="5.53"/>
      <path class="cls-11" d="M120.47,744.46v1h15.41v-1c0-3.62-3.45-6.56-7.7-6.56S120.47,740.84,120.47,744.46Z"/>
      <rect class="cls-11" x="122.09" y="722.7" width="15.41" height="5.53"/>
      <path class="cls-11" d="M144.13,856.25H138.9c.75.87,1.5,1.81,2.26,2.82Q142.67,857.55,144.13,856.25Z"/>
      <rect class="cls-11" x="170.76" y="722.7" width="15.41" height="5.53"/>
      <rect class="cls-11" x="251.86" y="722.7" width="15.41" height="5.53"/>
      <rect class="cls-11" x="240.51" y="748.95" width="15.41" height="22.11"/>
      <path class="cls-11" d="M255.92,744.46c0-3.62-3.45-6.56-7.71-6.56s-7.7,2.94-7.7,6.56v1h15.41Z"/>
      <path class="cls-11" d="M225.91,744.46c0-3.62-3.45-6.56-7.71-6.56s-7.7,2.94-7.7,6.56v1h15.41Z"/>
      <path class="cls-11" d="M158.19,737.9c-4.26,0-7.71,2.94-7.71,6.56v1h15.41v-1C165.89,740.84,162.44,737.9,158.19,737.9Z"/>
      <rect class="cls-11" x="268.08" y="722.7" width="15.41" height="5.53"/>
      <rect class="cls-11" x="270.52" y="748.95" width="15.41" height="22.11"/>
      <path class="cls-11" d="M269.3,804.91c0-.34,0-.68,0-1a389.4,389.4,0,0,1-51.14,3.77,430.63,430.63,0,0,1-50.3-3.26c0,.17,0,.33,0,.5a15.87,15.87,0,0,1-6.41,12.45h114.2A15.87,15.87,0,0,1,269.3,804.91Z"/>
      <path class="cls-11" d="M171.4,856.25H158.92v22.89a66.85,66.85,0,0,1,10-19.78C169.75,858.24,170.58,857.2,171.4,856.25Z"/>
      <rect class="cls-11" x="154.54" y="722.7" width="15.41" height="5.53"/>
      <polygon class="cls-11" points="280.85 943.63 280.85 970.32 286.97 965.96 286.97 939.3 280.85 943.63"/>
      <polygon class="cls-11" points="288.5 938.22 288.5 964.87 294.62 960.5 294.62 933.88 288.5 938.22"/>
      <polygon class="cls-11" points="273.19 949.04 273.19 975.78 279.31 971.41 279.31 944.71 273.19 949.04"/>
      <polygon class="cls-11" points="265.54 954.46 265.54 981.24 271.66 976.87 271.66 950.13 265.54 954.46"/>
      <polygon class="cls-11" points="319.11 916.55 319.11 943.04 325.23 938.67 325.23 912.22 319.11 916.55"/>
      <polygon class="cls-11" points="311.46 921.97 311.46 948.5 317.58 944.13 317.58 917.64 311.46 921.97"/>
      <polygon class="cls-11" points="296.15 932.8 296.15 959.41 302.27 955.04 302.27 928.47 296.15 932.8"/>
      <rect class="cls-11" x="105.87" y="722.7" width="15.41" height="5.53"/>
      <polygon class="cls-11" points="303.8 927.38 303.8 953.95 309.93 949.59 309.93 923.05 303.8 927.38"/>
      <polygon class="cls-11" points="257.88 959.88 257.88 986.69 264.01 982.33 264.01 955.54 257.88 959.88"/>
      <path class="cls-11" d="M131.67,795.32a.27.27,0,0,0,.07-.08h-.52Z"/>
      <path class="cls-11" d="M97.68,862.22a77.75,77.75,0,0,1,14.19,23v-29H91.73A74.54,74.54,0,0,1,97.68,862.22Z"/>
      <path class="cls-11" d="M138.31,862.07a52.53,52.53,0,0,0-5.11-5.82h-9.72v30.31a78.09,78.09,0,0,1,14.7-24.34Z"/>
      <polygon class="cls-11" points="256.36 960.96 250.23 965.29 250.23 992.15 256.36 987.78 256.36 960.96"/>
      <rect class="cls-11" x="120.47" y="748.95" width="15.41" height="22.11"/>
      <polygon class="cls-11" points="242.58 997.61 248.7 993.24 248.7 966.37 242.58 970.71 242.58 997.61"/>
      <path class="cls-11" d="M141.57,866.84c-11.29,13-17.39,29.22-18.09,48.09l-1.39,87.51c8.56.16,21.85-.16,31.64,0L151,896.59A68.28,68.28,0,0,0,141.57,866.84Z"/>
      <path class="cls-11" d="M371,1001.47V917l-119,84C289.06,1001.34,329.34,1001.53,371,1001.47Z"/>
      <path class="cls-11" d="M234.54,1000.86l3.43,0,3.08-2.19V971.79l-6.51,4.6Z"/>
      <path class="cls-13" d="M1380.72,647.41v1.47l4.35-1.86-.25,0h0l.25,0c-.64.08-1.35.16-2.19.22Z"/>
      <path class="cls-13" d="M1385.07,647a7.83,7.83,0,0,0,3.48-.95l-.58-.29Z"/>
      <polygon class="cls-13" points="1854.93 618.75 1854.93 618.76 1854.93 618.76 1854.93 618.75"/>
      <path class="cls-13" d="M1921.7,758v-1.14s-27.86,1.24-72.58,3.16c-4.71-16.37-12.24-45.2-12.3-62.57,0-.07,0-.15,0-.23,0-13.91,1-28.92,1.85-39.58a30.39,30.39,0,0,1,8.41-8.48c6.83-4.26,32.82,2.33,48.9-7l.06,0a18,18,0,0,0,10-9.61,21.56,21.56,0,0,0,.91-2.24,17.12,17.12,0,0,0,.79-3.21s-.08,0-.15.11c-.3.61-2.57,1.27-5.31,1.87-4.65,1-10.66,1.82-10.66,1.82s.27-.4.65-1l-.65.09s.85-1.3,1.79-2.83c.82-1.34,1.71-2.85,2.17-3.82l-.27.2c-1.22,1-6.88,2.13-12.28,3s-10.65,1.5-10.65,1.5l.43-1-.43.05,1.52-3.44,1.56-3.56c-8.82-3.79-20.83-1.54-20.92-1.52h0l1.72-1.18c-1.07.13-1.7.25-1.72.26h0s2.87-2,4.68-3.32c-3.81.77-13.49-.25-13.52-.25-1.72-1.34-2.33-2.54-2.09-3.65-1.5-7.31,33.39-10.41,44-17.51a5.62,5.62,0,0,0,2.74-4,6.85,6.85,0,0,0-1.75-3.74l-.29-.33h-14.56l-2.48-6.33-.27-.7s-.55.2-1.43.49a69.36,69.36,0,0,1-10.56,2.86c-2.87.32-5.5-4.51-6.53-6.67-.3-.61-4.24-2-5.4-3.08l1.11-.18a6.42,6.42,0,0,1-1.11-.74c5.77-.78,20.93-6,24.13-5.7,2.09.17,3.14-.1,3.46-.63-.56-1.41-3.19-3.5-5.94-5.24-4.11-.19-11.09.12-11.09.12l.68-1-.68,0,2-2.9c-2.08-.41-4.77-.9-7.63-1.44-8-1.51-17.22-3.44-17.13-5.48a.71.71,0,0,1,.17-.41.87.87,0,0,1-.17-.51c.1-2.2,11.28-1.91,20.43-2.16,4.23-.11,8-.35,10.07-1-1.66-1.49-7.23-4.39-10-4.5-2.11-.08-18.11-4.58-18.9-8.42a1.85,1.85,0,0,1,.25-.32,2.13,2.13,0,0,1-.25-.6,2.55,2.55,0,0,1,.63-.69c1.38-1,2.93-2.25,4.37-3.55,3.25-1.1,7.15-1.68,9.14-3.06a1.86,1.86,0,0,0,.7-.82c-.45-1.25-2.57-2.61-5.16-3.81-4.18-1.92-9.55-3.41-11-3.25-1.25.13-.91-.26.43-.92a2.05,2.05,0,0,0-.43,0c-2.37.25,1-1.38,6.08-3.23.84-.3,1.71-.61,2.63-.91a1.19,1.19,0,0,0,.5-.31c-1-2-6.88-5.57-10.66-7.74l-4.22,3.3a4.09,4.09,0,0,0,.33-1.17l-.33.25a7,7,0,0,0,.45-2.66c0-.65,0-1.31-.11-1.93a14,14,0,0,1-3.11-3h0c-.75.57-14.68,7.89-16,11.3a1.3,1.3,0,0,0,.6.47,89.66,89.66,0,0,1,8.1,3.86c2.21,1.23,3,2,1.39,1.72h-.06c1.13.74,1.31,1.13.06.92a8,8,0,0,0-2.32.2c-5,.93-15.22,4.61-16.09,8a2.4,2.4,0,0,0,.76,1.07c3.57,3,13.26,3.55,15.3,8.63a1.88,1.88,0,0,1,.07,1.17,2.07,2.07,0,0,1-.1,1.25c-1.18,2.93-8.56,5.83-14.38,7.56l4.15,2.45a15.36,15.36,0,0,0-2.63-.63l2.63,1.55c-1.85-.8-11.15-1.77-11.15-1.77-3.15,0-9.86,3.56-11.51,5.26a49,49,0,0,0,15.56,3.94c6.48.41,13.75,4.7,17,5.73a26.23,26.23,0,0,1-3.06-.33,32.82,32.82,0,0,0,3.06,1.25c-4.11-.08-13.88-3-19.44-1.3l4.57,1.63.09.18,1.67,3.37-.47,0,.47,1s-5.21-.39-10.71-1c-1.23-.14-2.46-.29-3.67-.45-4.11-.56-7.75-1.24-8.73-2a1.23,1.23,0,0,0-.22-.15c.5.93,1.42,2.34,2.28,3.6l0,.08c1,1.48,1.91,2.74,1.91,2.74l-.7-.07.7,1s-2.53-.23-5.58-.6c-1.66-.2-3.49-.45-5.15-.73-2.76-.47-5.06-1-5.39-1.62,0-.08-.08-.13-.11-.13a16.44,16.44,0,0,0,.94,3.19,22.82,22.82,0,0,0,1,2.2c.33.63,1.38,1.17,2.85,1.63,4.85,1.51,11.13,3.13,16,3.37,1.84.1,8.8,1,8.8,1,6.1,2.8,6.68,4.22,9.09,4.7l-1.61.36a6,6,0,0,0,1.61.56c-4.07.89-9.75,2.35-15.43,4.13v7.55l-10.25-3.85c-5.81,2.45-10.22,5.17-10.7,7.8.26,1.44,1.8,2.85,5.06,4.16,19.53,7.84,34.94,10.88,33,13.45.51.72-.1,1.38-2.08,2-5.64,1.9-39.89,3.32-41.79,8.5.34,1,1.72,2,4.47,3.26,0,0-.32.22-.86.53l.86.39a19.12,19.12,0,0,1-4.74,2.21c3.72.77,13.64,2.13,21.62,4.28,13.06,5.62,24.85,10.56,24.85,10.56l7.62,5.51c1.13,10.61,2.64,27.71,2.64,43.16v.92c0,17.32-5.07,47.72-8.08,64.26l.23.61.08.21c-42.3,1.8-94,4-149.15,6.22a64,64,0,0,1-4.81-7.93c-3.39-6.6,1.18-27.66,1.18-27.66a24.63,24.63,0,0,1,11.41,12.89c3.43,9.16-.92,10-.57,14.6a7.16,7.16,0,0,0,5.81,4.77c3.58.54,9.69-1.37,12.33-2.29a.67.67,0,0,0,.18-1.21,9.94,9.94,0,0,1-4.65-10.62c.1-.45.22-.9.35-1.35,1.3-4.37-.73-11.25-3-15.31s-1.37-16.87-1.37-16.87,55.1-21,44.41-73.08-7.53-58.67-1.06-63.88A162.32,162.32,0,0,0,1738,570s4.62-1.6,7.92-.11,13.74,4.66,14.19-1l-4.13-1.73,4.1-.06s6.5-3.68-.12-7.42-4.34,1.86-9.65-5.23-9.34-2.94-9.56.14-10.8,7.83-13,8.63-22,14.23-24,43.69,4.25,29.66-7.53,44.17-22.42,3-45.47,13.37-49.49-2.86-81.84,23.71c-13.13,10.8-31.35,32-52,44.4-30.25,18.14-63.19,31.39-71.6,32.58-14.17,2-26.13,7.48-34.27,10.93,0,0,27-6.77,37.37-5.34,14,1.92,76.65-15.77,92.29-28.29s51.61-13.79,51.61-13.79-2.63,6.43-1.16,12.56,1.66,17.37.89,20.71a47.65,47.65,0,0,0-1,9.92c-78.75,3.1-159.2,6.09-226,8.2-.84-6.37-4.61-35.73-4.61-51.43,0-9.75.68-20.27,1.3-27.74v0a15.49,15.49,0,0,1,5.21-8.31s8.34-4,17.58-8.49c1.39-.43,2.85-.82,4.32-1.17,6.62-1.58,13.2-2.43,11.85-2.76l0,0a12.41,12.41,0,0,1-4.18-2c13.32-6.73-18.54-8.21-25.6-10a4.55,4.55,0,0,1-.8-.24c-5.58-2.13,4.15-4.13,18.09-10.07q1.83-.78,3.75-1.65c6.78-3.09,3.09-6.84-3.41-10.07a7.83,7.83,0,0,1-3.48.95l-4.35,1.86v-1.47l2.16-.17c.84-.06,1.55-.14,2.19-.22l2.9-1.24.58.29c2.14-1.82-10-4.92-18.07-6.8,1.23-.52,2.07-1.64,5.75-3.56,0,0,4.93-.75,6.23-.83a45.09,45.09,0,0,0,11.31-2.71,3.49,3.49,0,0,0,2-1.31c.28-.62.52-1.21.71-1.77.75-2.19.84-3.74.58-3.2s-1.86.92-3.81,1.3c-1.18.23-2.46.42-3.64.59-2.16.3-4,.48-4,.48s.64-1,1.35-2.2l0-.06c1.2-2,2.58-4.49,1.45-3.52-.69.59-3.26,1.14-6.17,1.59-.85.13-1.73.25-2.6.36-3.89.51-7.57.82-7.57.82l1.18-2.71.07-.15,4.1-1.66c-3.68-2.13-11.49.58-14.62.65,2.29-.82,7.43-4.27,12-4.61a31.18,31.18,0,0,0,11.15-3.24c1-.54-5.54-4.9-8.29-4.9,0,0-6.58.79-7.88,1.43l3.67-2.47c-4.2-1.35-10-3.82-10.91-6.32a1.8,1.8,0,0,1,0-1.21c1.44-4.08,8.29-4.49,10.81-6.94,3.07-3-6.57-7.1-10.83-8A4.91,4.91,0,0,0,1361,585c-1.17.22-.59-.39,1-1.38a61.85,61.85,0,0,1,5.73-3.11c3.26-1.58-10.31-9.66-10.93-10.2h0a10.46,10.46,0,0,1-2.21,2.39,12.23,12.23,0,0,0,.24,4.44l-3-2.65c-3.44,2.24-9.34,6.38-7.19,7.2l1.86.74c3.62,1.49,6,2.8,4.31,2.59-1-.12-4.81,1.07-7.77,2.62-2.74,1.44-4.76,3.18-3.15,4.46,1.4,1.12,4.16,1.58,6.46,2.47,1,1,2.11,2,3.09,2.85a2.13,2.13,0,0,1,.45.55c-.57,3.09-11.88,6.71-13.37,6.78-2.46.11-8.22,3.88-7.28,4.28,1.4.58,4.21.78,7.35.87,3.39.11,7.17.09,10,.31,2.58.2,4.4.58,4.43,1.43.07,1.63-6.44,3.19-12.11,4.41l-.33.07c-2.09.44-4,.84-5.47,1.18l1.85,3s-4.94-.25-7.84-.1c-3.48,2.51-6.69,5.92-1.75,5.47,1.39-.13,6,1.39,10.23,2.73a57.35,57.35,0,0,0,6.83,1.85c-.82.84-3.61,2-3.82,2.48-.63,1.51-2.13,4.65-3.84,5.26a1.62,1.62,0,0,1-.78.1,42.93,42.93,0,0,1-7.46-2.3l-1-.39-.19.57-1.75,5.08h-10.3l-.21.27c-1.8,2.4-1.74,5.11.71,7,2.9,2.2,8.35,3.93,13.9,5.55,10.49,3.08,21.31,5.8,15.74,10.73l-.34,0c-1.54.16-8.06.82-9.85,0-2-1,3.9,3.58,3.93,3.6h0c-.06,0-8.78-1.87-15,1.34l1.2,3.11.14.38,1.08,2.77s-3.67-.5-7.54-1.21l-1.39-.26c-3.35-.65-6.53-1.43-7.29-2.15-1.09-1,.22,1.57,1.34,3.65l.82,1.48.45.79-1.28-.2c-1.51-.26-4.09-.72-6.26-1.26-1.93-.48-3.54-1-3.75-1.5s-.22,1,.45,3.23a18.79,18.79,0,0,0,.64,1.8c1.18,2.88,3.34,6.18,7.09,7.73l0,0c11.38,7.52,29.76,2.22,34.58,5.64a23.26,23.26,0,0,1,6,6.82c.62,8.58,1.31,20.65,1.31,31.84,0,13.31-4.88,35.18-8.24,48.64-21.82.65-41.8,1.19-59.27,1.57a16.57,16.57,0,0,1-16.73-14c-1.4-8.85-2.73-19-2.73-25.75,0-1.86,0-3.77.11-5.67A20.33,20.33,0,0,1,1268,732c4.83-3,23.21,1.65,34.58-5h0a12.74,12.74,0,0,0,7.1-6.8c.25-.55.47-1.09.64-1.59.66-2,.69-3.32.45-2.84s-1.82.9-3.76,1.32c-3.29.72-7.53,1.29-7.53,1.29s.6-.92,1.26-2c1.13-1.83,2.44-4.12,1.34-3.21-.86.72-4.86,1.51-8.68,2.12s-7.53,1.06-7.53,1.06L1287,714l1.35-3.07a19,19,0,0,0-5.37-1.42,51.87,51.87,0,0,0,12.8-7.55c6.62-5.7-7-4-16.52-3.91,6.64-1.7,13.92-3.44,17.44-5.79,2.44-1.63,2.5-4,.7-6.14l-.2-.23h-10.3l-.83-2.11c.74-.32,1.5-.63,2.29-.94,10.46-4.21-.5-7.5-8.85-9.35a24.82,24.82,0,0,1,5.59-1.13c4.93.4,1.73-2.6-1.76-4.8-2.9-.14-7.83.08-7.83.08l1.85-2.61c-1.52-.31-3.6-.68-5.8-1.1l-1.1-.21c-5.38-1-11.08-2.32-11-3.67.07-1.55,8-1.35,14.45-1.53l1.53-.05a22.83,22.83,0,0,0,5.82-.72c.78-.28-2.94-2.55-5.66-3.42-.61-.19-1.28,0-1.61-.34-4.15-3.84-12.81-2.32-13.37-5,.12-.17,3-.63,3.54-1.15,2.3-.77,9.66-2.11,11.06-3.09,1.61-1.12-5-4.5-7.76-5.76-.66-.31-1.37-.6-2.08-.86a19,19,0,0,0-5.68-1.44c-1.58.17.43-.85,3.71-2.07l.59-.21c.59-.22,1.22-.44,1.86-.65,2.15-.73-3.74-4.37-7.18-6.34l-3,2.33a9.28,9.28,0,0,0,.25-3.9,9.62,9.62,0,0,1-2.21-2.1h0c-.63.48-14.19,7.59-10.93,9,2.08.89,3.94,1.77,5.27,2.48l.46.25c1.56.87,2.14,1.41,1,1.22a5.34,5.34,0,0,0-1.64.14c-.5.09-1.07.22-1.68.38-4.66,1.24-11.87,4.34-9.16,6.66,1.1.93,3,1.53,5,2.2,2.51.87,5,1.87,5.87,3.9a1.39,1.39,0,0,1,0,1.06,4.4,4.4,0,0,1-1.66,1.74c-2.24,1.55-6.18,3-9.25,3.82l3.67,2.17c-1.31-.56-7.88-1.26-7.88-1.26-2.75,0-9.33,3.84-8.3,4.31a34.43,34.43,0,0,0,11.16,2.85l.88.09c4.34.58,9,3.28,11.13,4-3.13-.06-10.93,1.23-14.62,3.1l4.11,1.47.06.13.88,1.77.31.61s-3.69-.27-7.58-.72c-.87-.09-1.74-.2-2.59-.32-2.91-.39-5.49-.87-6.18-1.4-1.12-.85.26,1.33,1.46,3.1l0,0c.71,1.05,1.35,1.94,1.35,1.94s-1.78-.16-3.94-.42c-1.18-.15-2.47-.32-3.64-.52-2-.33-3.58-.73-3.82-1.15s-.17.89.59,2.82a15.87,15.87,0,0,0,.71,1.55,3.48,3.48,0,0,0,2,1.16,60.31,60.31,0,0,0,9.09,2.16h-.07c-4.57,1.18-18.75,9.4-8.69,9a73.73,73.73,0,0,1,12.72,1.26c6.68,1.09,14.19-1,19.74.2a33.45,33.45,0,0,1-7.55,3.32,94.45,94.45,0,0,1-16.34,4.11c-11.51,1.8-14.75.09-8.53,6.67a15,15,0,0,0,5,3.44c-8.73,1.28-15.69,3.15-8.14,6.5a13.41,13.41,0,0,1-4.18,1.77h-.06c-1.65.35,8.53,1.39,16.18,3.46,9.24,4,17.57,7.47,17.57,7.47l5.39,3.89c.73,6.81,1.67,17.39,1.84,27.46a56.48,56.48,0,0,1-37.9,33.58c-79.54,21.26-334.49,21.26-334.49,21.26A10.73,10.73,0,0,0,882.67,806h8.85s.74,4.83,4.43,4.83,4.42-1.38,4.42-1.38h8.11v1.38h7.38v2.07h4.42v-2.07h20.28a1.78,1.78,0,0,0,1.84-1.9,1.89,1.89,0,0,0-1.94-1.55h-4v-6.22h5.16v3.8a1.81,1.81,0,0,0,2,1.72,1.85,1.85,0,0,0,1.66-1.82v-12h2.81a3.19,3.19,0,0,0,2.72,2.07c1.83,0,3.32-2.16,3.32-4.83s-1.49-4.84-3.32-4.84a3.05,3.05,0,0,0-2.54,1.72h-7.42v-1.72h-17.7V779c0-5-4.29-9-9.58-9l5.16-7.6-2.21-2.76s4.42-2.07,3.68-16.58-8.11-17.27-8.11-17.27H897.42V713.37l2.22-2.76H883.41l2.21,3.45v11.75H851v-9s-1.47-3.46-9.58-3.46-8.85,3.46-8.85,3.46v3.45h-1.48V718.9h-.73v-1.38h.73v-.69h-.73v-2.08h-1.48v2.08h-.74v.69h.74v1.38s-1.47,0-1.47,2.07a3,3,0,0,0,1.47,2.76h3.69v3.46h-8.85V723h.74v-4.83s-2.95-2.08-8.85-2.08a21,21,0,0,0-9.59,2.08V723h.74v4.15H798.6v-4.84h-2.21v-2.07s3.1-1.45.31-4.36a1.49,1.49,0,0,0-1-.48,2.72,2.72,0,0,0-2.26,1.39h-2.21s-.74-2.77-3-2.77h-9.59V711.3h1.85a1,1,0,1,0,0-2.07H726.33v.69h-2.58a1,1,0,1,0,0,2.07h1.85v.69h-3.72a7.83,7.83,0,0,0-8.08,7.43v.17h1.47v6.91h-5.9s-3,0-3,3.45H702l-8.11,7.6h2.21V750s-5.9,0-5.9,2.76v2.07h-3.69a.69.69,0,1,0,0,1.38h.74l2.21,2.77v26.94h-8.85v3.8h-2.14V786.6a1.23,1.23,0,0,0-2.43,0v1.73h-1.62L672.19,786a3.63,3.63,0,0,0-2.64-1.07V787h-4.86V757.24l-8.24,1.4a4.4,4.4,0,0,0-3.93,4.09v22.15h-13l.41-.35v-49h19.46c2.69,0,4.87-1.86,4.87-4.15,0-7.63-7.26-13.81-16.22-13.81H405.56c-9.41,0-17,6.49-17,14.5,0,1.91,1.82,3.46,4.06,3.46h21.09v47.67h-13V758.28l-6,1.27a4.39,4.39,0,0,0-3.73,4.08v23h-6.49v-.69a.82.82,0,0,0-1.62,0V788h-2.44v1.39h-3.24v-2.08a.82.82,0,0,0-1.62,0v4.15H373.4a.86.86,0,0,0-.69-.35h-2.43V788a1.24,1.24,0,0,0-2.44,0v1.73h-1.62L364,787.34a3.59,3.59,0,0,0-2.64-1.08v2.07h-4.86V758.62L348.25,760a4.39,4.39,0,0,0-3.93,4.08v22.15h-13l.4-.35v-49h19.47c2.68,0,4.86-1.86,4.86-4.14h0c0-7.64-7.26-13.82-16.22-13.82H97.36c-9.41,0-17,6.49-17,14.51,0,1.9,1.81,3.45,4,3.45h21.09v47.67h-13V759.66l-6,1.28A4.38,4.38,0,0,0,82.76,765v23H76.27v-.69a.82.82,0,0,0-1.62,0v2.08H72.21v1.38H69v-2.08a.82.82,0,0,0-1.62,0v4.15H64.92a.7.7,0,1,0,0,1.38h1.62v7.6H64.1v9.67c2.47,0,4.47-1.7,4.47-3.8v-4.83h3.24v1.38s-3.24,3.45-.81,6.22c1.36,1.54,3.48,1.58,5.08,1.3a4.31,4.31,0,0,0,3-2h1.62v4.49a1.23,1.23,0,0,0,2.43,0v-4.49h26.36a1.75,1.75,0,1,0,0-3.46h-2v-2.76h12.16a.7.7,0,1,0,0-1.38h-4.87v-6.91h7.3v1.68l1.52.34c.1,0,2.27.49,6.06,1.22a14.57,14.57,0,0,0-1.38,8.21,16.11,16.11,0,0,0,6.34,10.67H.53v38.89H82.88a70.64,70.64,0,0,1,10.86,9.94C104,877.74,110.06,891.78,111.87,908v94.38c-37.19-.71-113.47-2.25-113.47-2.25l1,85.42,1922.69-4.08V758Zm-66.77-139.25h0ZM937.25,794.55h2.58v-1.38h1.47v3.45h-4a1,1,0,1,1,0-2.07Zm-16.6,11.74h1.48v-3.45h-.74a.69.69,0,1,1,0-1.38h8.11v6.21h-8.85a.69.69,0,1,1,0-1.38ZM73.43,809.75c-3.63-1.55,0-4.84,0-4.84l5.68,2.76S76.68,811.13,73.43,809.75Zm19.47-9.68-.81.69H86.41v-4.83h2.43v.69H92.9Zm3.24,0v-3.45h5.68l-4.06,3.45Zm7.3,6.22H98.57v-4.83l4.87-3.46ZM837,811.47l6.28,5.89H832.76A12.89,12.89,0,0,0,837,811.47Zm-45-1.38,4.84,5.36a10.59,10.59,0,0,0,2.31,1.91H785.36A15.69,15.69,0,0,0,792,810.09Zm-15.86-81.87h13.28V745.5H776.11Zm-16.22,0h13.27V745.5H759.89Zm-21.76-2.41H754V745.5H738.13Zm-43.87,68.74h5.9l-1.32,1.84a5.6,5.6,0,0,1-4.58,2.3Zm-19-2.08c3.24,0,2.43,3.46,2.43,3.46H672S671.18,792.47,675.23,792.47Zm1.62,12.44a2.91,2.91,0,0,1-3.24,2.76,34,34,0,0,1-5.88-.71.7.7,0,0,1-.59-.84.84.84,0,0,1,1-.5,32.33,32.33,0,0,0,5.48.67c1.48,0,1.61-1.06,1.62-1.38a.82.82,0,0,1,1.62,0Zm-15.41-10.36h3.25a2.28,2.28,0,0,1,2.43-2.08h3.24v3.46h-4.05L664.69,798h-3.25Zm-8.11,0H659V798h-5.68Zm-8.92,0h5.68V798h-2.44l-3.24-2.07Zm-3.24,1.38,3.24,2.07h-3.24Zm0,6.22h7.3a1.4,1.4,0,1,1,0,2.76h-7.3ZM625,721.32h15.41v5.52H625Zm13,71.85V798h-3.24v-4.83Zm-11.35,3.45c1.62,0,2.43-3.45,2.43-3.45h2.43V798h-4.86v4.15l1.49.31a8.31,8.31,0,0,0,3.51,0l1.49-.31h4.86v2.07h-2.43a1.4,1.4,0,1,0,0,2.76h27.57l-2,5.62a1,1,0,0,0,1.13,1.29,1.18,1.18,0,0,0,1.11-.69l2.17-5.53a27.28,27.28,0,0,0,7.3,1.39,7.77,7.77,0,0,0,4.86-1.39h3.25V795.93l-2.44-4.84h2.14v1h5.9l3,4.14v6.22h13.28s.73,3.46,5.16,4.84a25.27,25.27,0,0,0,6.64,1.38s5.16,4.84,9.58,2.07,3.69-6.91,3.69-6.91l.74-.69L733,806h21.39a20,20,0,0,0,7.69,11.41H608.77c4.79-2.89,8.05-7.52,8.43-12.76a14.75,14.75,0,0,0-2-8.61c4.18-.9,6.59-1.48,6.7-1.51l1.46-.36v-.26H625S625,796.62,626.57,796.62Zm27.62,59.63c-.82,1-1.65,2-2.49,3.11a66.61,66.61,0,0,0-10,19.78V856.25Zm-20.37,1.5v20.33a68.65,68.65,0,0,0-6.66-14.3A71.33,71.33,0,0,1,633.82,857.75Zm-6.9-1.5q-1.45,1.31-3,2.82c-.76-1-1.52-2-2.26-2.82Zm-5.82,5.82-.13.15a78.09,78.09,0,0,0-14.7,24.34V856.25H616A52.53,52.53,0,0,1,621.1,862.07ZM608.72,721.32h15.41v5.52H608.72Zm0,21.76c0-3.63,3.45-6.56,7.71-6.56s7.7,2.93,7.7,6.56v1H608.72Zm0,4.49h15.41v22.11H608.72ZM592.5,721.32h15.41v5.52H592.5Zm1.63,21.76v1H578.72v-1c0-3.63,3.45-6.56,7.7-6.56S594.13,739.45,594.13,743.08Zm-90,4.49v22.11H488.69V747.57Zm-15.41-3.46v-1c0-3.63,3.45-6.56,7.7-6.56s7.71,2.93,7.71,6.56v1Zm92.38,49.75a15.89,15.89,0,0,0-2.82,5.06,385.42,385.42,0,0,1-51.85,3.92,430.83,430.83,0,0,1-50.86-3.36,15.74,15.74,0,0,0-3-5.62Zm-47-46.29v22.11H518.7V747.57Zm-15.41-3.46v-1c0-3.63,3.45-6.56,7.7-6.56s7.71,2.93,7.71,6.56v1Zm45.42,3.46v22.11H548.71V747.57Zm-15.41-3.46v-1c0-3.63,3.45-6.56,7.7-6.56s7.71,2.93,7.71,6.56v1Zm-74.62,0H458.68v-1c0-3.63,3.45-6.56,7.71-6.56s7.7,2.93,7.7,6.56Zm0,3.46v22.11H458.68V747.57Zm2,56c0-.17,0-.33,0-.5a432.83,432.83,0,0,0,50.3,3.26,389.4,389.4,0,0,0,51.14-3.77c0,.33,0,.67,0,1,0,5.71,3.33,10.76,8.42,13.83H467.7C472.79,814.29,476.12,809.24,476.12,803.53Zm102.6-33.85V747.57h15.41v22.11Zm-2.44-48.36h15.41v5.52H576.28Zm-16.22,0h15.41v5.52H560.06Zm-16.22,0h15.41v5.52H543.84Zm-16.22,0H543v5.52H527.62Zm-16.22,0h15.41v5.52H511.4Zm-16.22,0h15.41v5.52H495.18Zm-16.22,0h15.41v5.52H479Zm-16.22,0h15.41v5.52H462.74Zm-16.23,0h15.41v5.52H446.51Zm-16.22,0H445.7v5.52H430.29Zm-1.62,48.36V747.57h15.41v22.11Zm11.27,24.18-.07.08-.45-.08Zm-11.27-49.75v-1c0-3.63,3.45-6.56,7.71-6.56s7.7,2.93,7.7,6.56v1Zm-14.6-22.79h15.41v5.52H414.07Zm5.68,72.54v6.9h-4.87v-6.9Zm-15.41,1.38H410L406,798.69h-1.62Zm7.3,1.38v8.29h-4.87v-4.84Zm-17-2.07H397v.69h4.06v3.45l-.82.69h-5.67Zm-13,9,5.68,2.76s-2.44,3.46-5.68,2.07C378,806.82,381.63,803.53,381.63,803.53Zm-9.2-11.06a.81.81,0,0,0,.68.35h1.63v7.6h-2v-3.11l-2.43-4.84Zm-5.4,1.39c3.25,0,2.43,3.45,2.43,3.45h-5.67S363,793.86,367,793.86Zm1.62,12.43a2.92,2.92,0,0,1-3.24,2.77,33.45,33.45,0,0,1-5.87-.72.68.68,0,0,1-.59-.83.82.82,0,0,1,1-.51,32.33,32.33,0,0,0,5.48.67c1.48,0,1.62-1.06,1.62-1.38a.82.82,0,0,1,1.62,0Zm-15.41-10.36h3.25a2.27,2.27,0,0,1,2.43-2.07h3.25v3.45h-4.06l-1.62,2.07h-3.25Zm-8.11,0h5.68v3.45h-5.68Zm-8.92,0h5.68v3.45h-2.43l-3.25-2.07ZM333,797.31l3.24,2.07H333Zm0,6.22h7.3a1.4,1.4,0,1,1,0,2.76H333ZM316.75,722.7h15.41v5.52H316.75Zm13,71.85v4.83h-3.24v-4.83ZM318.37,798c1.62,0,2.43-3.45,2.43-3.45h2.43v4.83h-4.86v4.15l1.49.32a8.65,8.65,0,0,0,3.51,0l1.49-.32h4.86v2.07h-2.43a1.4,1.4,0,1,0,0,2.76h27.58l-2,5.62a1,1,0,0,0,1.13,1.29,1.17,1.17,0,0,0,1.11-.68l2.17-5.53a27.45,27.45,0,0,0,7.3,1.38,7.81,7.81,0,0,0,4.86-1.38h2.84v1c2.47,0,4.46-1.7,4.46-3.8v-4.83H380v1.38s-3.25,3.45-.81,6.22c1.36,1.54,3.47,1.57,5.08,1.3a4.29,4.29,0,0,0,3-2h1.62v4.49a1.23,1.23,0,0,0,2.43,0v-4.49h26.36a1.75,1.75,0,1,0,0-3.45h-2v-2.76h12.17a.7.7,0,1,0,0-1.39H423v-6.9h7.3v1.68l1.52.33c.1,0,2.27.5,6.05,1.23a14.72,14.72,0,0,0-1.38,8.21c.6,5,3.79,9.3,8.36,12.05H302.56A16,16,0,0,0,309,806a14.77,14.77,0,0,0-2-8.61c4.19-.9,6.59-1.48,6.7-1.51l1.46-.36v-.26h1.63S316.75,798,318.37,798Zm107.82,58.25c-.14.21-.27.41-.4.63a74.48,74.48,0,0,0-8,18V856.25Zm-8.38,48.48,1.94,1.37v26.4l-1.94-1.38Zm-47.34-24.52c-.41-1.05-.84-2.08-1.27-3.08a83.16,83.16,0,0,0-12.3-20.06c0-.05-.09-.11-.14-.17l-.57-.65H370.9v25.08C370.76,881,370.62,880.59,370.47,880.21Zm.43,25.28v.62L365,910.3V884.06l.78-.55A88.33,88.33,0,0,1,370.9,905.49ZM300.53,722.7h15.41v5.52H300.53Zm0,21.76c0-3.62,3.45-6.56,7.7-6.56s7.71,2.94,7.71,6.56v1H300.53Zm0,4.49h15.41v22.11H300.53ZM284.3,722.7h15.41v5.52H284.3Zm1.63,21.76v1H270.52v-1c0-3.62,3.45-6.56,7.7-6.56S285.93,740.84,285.93,744.46Zm-135.45,26.6V749h15.41v22.11Zm.55,86.69v20.33a68.16,68.16,0,0,0-6.65-14.3A70.07,70.07,0,0,1,151,857.75ZM195.9,749v22.11H180.49V749Zm-15.41-3.45v-1c0-3.62,3.45-6.56,7.71-6.56s7.7,2.94,7.7,6.56v1Zm92.38,49.74a15.83,15.83,0,0,0-2.82,5.07,387.12,387.12,0,0,1-51.85,3.91,428.7,428.7,0,0,1-50.86-3.36,15.74,15.74,0,0,0-3-5.62Zm-47-46.29v22.11H210.5V749ZM210.5,745.5v-1c0-3.62,3.45-6.56,7.7-6.56s7.71,2.94,7.71,6.56v1ZM255.92,749v22.11H240.51V749Zm-15.41-3.45v-1c0-3.62,3.45-6.56,7.7-6.56s7.71,2.94,7.71,6.56v1Zm-74.62,0H150.48v-1c0-3.62,3.45-6.56,7.71-6.56s7.7,2.94,7.7,6.56Zm-7,110.75H171.4c-.82,1-1.65,2-2.49,3.11a66.85,66.85,0,0,0-10,19.78Zm2.59-38.89a15.87,15.87,0,0,0,6.41-12.45c0-.17,0-.33,0-.5a430.63,430.63,0,0,0,50.3,3.26,389.4,389.4,0,0,0,51.14-3.77c0,.33,0,.67,0,1a15.87,15.87,0,0,0,6.41,12.45Zm109-46.3V749h15.41v22.11Zm-2.44-48.36h15.41v5.52H268.08Zm-16.22,0h15.41v5.52H251.86Zm-16.22,0h15.41v5.52H235.64Zm-16.22,0h15.41v5.52H219.42Zm-16.22,0h15.41v5.52H203.2Zm-16.22,0h15.41v5.52H187Zm-16.22,0h15.41v5.52H170.76Zm-16.22,0H170v5.52H154.54Zm-16.22,0h15.41v5.52H138.32Zm5.81,133.55q-1.45,1.31-3,2.82c-.76-1-1.51-2-2.26-2.82Zm-22-133.55H137.5v5.52H122.09Zm13.79,21.76v1H120.47v-1c0-3.62,3.45-6.56,7.71-6.56S135.88,740.84,135.88,744.46Zm-24.33,57.69h-4.87v-6.91h4.87Zm-5.68-73.93V722.7h15.41v5.52Zm25.8,67.1-.45-.08h.52A.27.27,0,0,1,131.67,795.32Zm-11.2-24.26V749h15.41v22.11Zm3,85.19h9.72a52.53,52.53,0,0,1,5.11,5.82l-.13.15a78.09,78.09,0,0,0-14.7,24.34Zm-11.61,29a77.75,77.75,0,0,0-14.19-23,74.54,74.54,0,0,0-6-6h20.14Zm10.22,117.19,1.39-87.51c.7-18.87,6.8-35,18.09-48.09A68.28,68.28,0,0,1,151,896.59l2.7,105.85C143.94,1002.28,130.65,1002.6,122.09,1002.44Zm110.16-1.6c-26.62-.28-51.31,1.91-73.33,1.56V902.2c.49-15.59,4.75-28.92,12.68-39.61a52.54,52.54,0,0,1,5.5-6.34H348.39c1.45,1.45,2.94,3.07,4.44,4.86a77,77,0,0,1,11.74,19.3L232.25,974.15ZM363.5,885.15v26.24l-6.12,4.36V889.48Zm-7.65,5.41v26.28l-6.13,4.37V894.89ZM348.19,896V922.3l-6.12,4.37V900.31Zm-7.65,5.41v26.37l-6.12,4.36v-26.4Zm-7.65,5.42v26.41l-6.13,4.36V911.14Zm-7.66,5.41v26.45L319.11,943V916.55Zm-7.65,5.42v26.49l-6.12,4.37V922Zm-7.65,5.41v26.54L303.8,954V927.38Zm-7.66,5.42V955l-6.12,4.37V932.8Zm-7.65,5.41V960.5l-6.12,4.37V938.21ZM287,939.3V966l-6.13,4.36V943.63Zm-7.66,5.41v26.7l-6.12,4.37V949.05Zm-7.65,5.42v26.74l-6.12,4.37V954.46ZM264,955.54v26.79l-6.12,4.36V959.88Zm-23,43.16-3.08,2.19-3.43,0V976.39l6.51-4.6Zm7.65-5.46-6.12,4.37v-26.9l6.12-4.34Zm1.53-28,6.12-4.33v26.83l-6.12,4.36ZM371,1001.47c-41.68.06-82-.13-119-.45l119-84Zm11.46-145.22h15.23l0,.06-.39.44-.14.15a82.87,82.87,0,0,0-12.49,20.37c-.44,1-.86,2-1.27,3.08v0c-.25.63-.49,1.28-.73,1.94l-.15.41Zm6.66,28.19v26.23l-6.22-4.43A89.14,89.14,0,0,1,388,883.66Zm20.49,116.9q-13.58.07-27,.11V917l27,19Zm-19-89.58V885.52l6.12,4.33v26.28Zm7.65,5.46V890.94l6.12,4.33v26.31Zm11.31,8.06-3.66-2.6V896.35l3.66,2.59Zm0-30.31-20.36-14.42a77.28,77.28,0,0,1,11.24-18.74,74.42,74.42,0,0,1,9.12,28.71Zm.31-21.24c-.1-.33-.21-.64-.31-1a75,75,0,0,0-6-13.67c-.11-.18-.21-.37-.31-.54l1.78-2.31H410Zm7.58,127.57V941.63l83.25,58.76C473,1000.84,445.12,1001.13,417.52,1001.3Zm3.76-67.71V907.18l6.12,4.33V938Zm7.65,5.46V912.6l6.13,4.33v26.48Zm7.66,5.45V918l6.12,4.33v26.53Zm7.65,5.46V923.43l6.12,4.33v26.57Zm7.65,5.46V928.84l6.13,4.33v26.61Zm7.66,5.45V934.26l6.12,4.33v26.65Zm7.65,5.46V939.67l6.12,4.33v26.7Zm7.65,5.46v-26.7l6.12,4.33v26.73Zm7.66,5.46V950.5l6.12,4.33v26.78Zm7.65,5.45V955.92l6.12,4.33v26.82Zm13.77,9.82-6.12-4.36V961.33l6.12,4.33Zm7.66,5.46-6.13-4.36V966.75l6.13,4.33Zm8,2.08-5,.09-1.51-1.08V972.16l6.5,4.61Zm72.88.83c-23.77.76-46-1.35-70.58-.88V974.52L417.81,900.77v-1.45c.48-16.54,4.73-30.68,12.64-42,.25-.36.5-.7.76-1H565.66a70.18,70.18,0,0,1,10.86,9.94c10.24,11.55,16.32,25.59,18.14,41.83Zm2.16-115.64a78.16,78.16,0,0,0-14.19-23,76.23,76.23,0,0,0-6-6h20.14Zm11.61,117.15V914.93c.7-18.87,6.79-35,18.09-48.09a68.41,68.41,0,0,1,9.46,29.75l.86,105.81C625.61,1002.77,615.56,1002.09,606.27,1002.4Zm243.65-2.25c-43.25,10.26-120-1.54-208.75,2.25l.54-100.2c.48-15.59,4.75-28.92,12.67-39.61a52.54,52.54,0,0,1,5.51-6.34h161a70.18,70.18,0,0,1,10.86,9.94C842,877.74,848.11,891.78,849.92,908Zm0-114.9a78,78,0,0,0-14.18-23,76.26,76.26,0,0,0-6-6h20.14Zm47.05-29h12.48c-.82,1-1.65,2-2.48,3.11a66.6,66.6,0,0,0-10,19.78Zm-14.79,0c-1,.87-2,1.81-3,2.82-.76-1-1.52-2-2.27-2.82Zm-20.65,0h9.72a53.58,53.58,0,0,1,5.12,5.82l-.14.15a78.09,78.09,0,0,0-14.7,24.34Zm27.55,128c-2.77,2-9.21,6.48-12.11,8.33-4.47,2.86-7.29,3-15.44,5.41V914.93c.7-18.87,6.8-35,18.09-48.09a68.14,68.14,0,0,1,9.46,29.75Zm0-106.16a68.16,68.16,0,0,0-6.65-14.3,70.07,70.07,0,0,1,6.65-6ZM897,976.93V902.2c.49-15.59,4.75-28.92,12.68-39.61a51.67,51.67,0,0,1,5.51-6.34l206.14-5.33C1072.1,916.13,975,907.18,897,976.93ZM1647,766a10.07,10.07,0,0,0-.66,3.64c-11.37.46-18,.85-29.6,1.31-1.78-2.21-3.08-6.45-5.45-10.28-2-3.25,1.6-12.89,1.88-13.3,1.6-2.33,3.84-10.88,3.61-24.7a36.39,36.39,0,0,0,27.8-3.47s-4.64,16.19.46,27.63S1648.6,761.37,1647,766Z"/>
    </g>
  </g>
</svg>
